<?xml version="1.0" standalone="no"?>
<!DOCTYPE svg PUBLIC "-//W3C//DTD SVG 1.1//EN" "http://www.w3.org/Graphics/SVG/1.1/DTD/svg11.dtd" >
<svg xmlns="http://www.w3.org/2000/svg" xmlns:xlink="http://www.w3.org/1999/xlink" version="1.1">
<metadata>
Created by FontForge 20170731 at Fri Jan 16 15:54:27 2015
 By Aleksey,,,
(c) 2012, 2013, 2014, 2015 by Stawix Ruecha &#38; Foundry. All rights reserved.
</metadata>
<defs>
<font id="AmsiPro-Black" horiz-adv-x="433" >
  <font-face 
    font-family="AmsiPro-Black"
    font-weight="400"
    font-stretch="normal"
    units-per-em="1000"
    panose-1="2 11 10 6 2 2 1 1 1 4"
    ascent="854"
    descent="-146"
    x-height="532"
    cap-height="706"
    bbox="-218.447 -299 1364 1042"
    underline-thickness="55"
    underline-position="-154"
    unicode-range="U+0020-FB4E"
  />
<missing-glyph horiz-adv-x="492" 
d="M0 690h492v-690h-492v690zM443 94v503l-168 -252zM49 597v-503l168 251zM246 389l168 252h-335zM246 301l-167 -252h334z" />
    <glyph glyph-name="f_f" unicode="ff" horiz-adv-x="712" 
d="M575 517h90q28 0 28 -28v-65q0 -27 -28 -27h-90v-372q0 -25 -28 -25h-104q-28 0 -28 25v372h-166v-372q0 -25 -28 -25h-104q-28 0 -28 25v372h-45q-27 0 -27 27v65q0 28 27 28h45v44q0 154 164 154q51 0 78 -9q28 -7 28 -27v-51q0 -13 -6 -19.5t-16 -5.5q-30 4 -43 4
q-45 0 -45 -52v-38h166v38q0 83 43 121.5t131 38.5q51 0 81 -9q25 -7 25 -28v-59q0 -13 -6 -20.5t-17 -6.5q-32 4 -43 4q-29 0 -41.5 -12.5t-12.5 -40.5v-26z" />
    <glyph glyph-name="fi" unicode="fi" horiz-adv-x="641" 
d="M578 489v-461q0 -28 -27 -28h-108q-28 0 -28 28v369h-166v-372q0 -25 -28 -25h-104q-28 0 -28 25v372h-45q-27 0 -27 27v65q0 28 27 28h45v42q0 156 163 156q48 0 79 -9q28 -7 28 -27v-51q0 -13 -6 -19.5t-16 -5.5q-4 0 -19 2t-24 2q-45 0 -45 -53v-37h302q27 0 27 -28z
M578 679v-64q0 -27 -28 -27h-107q-27 0 -27 27v64q0 27 27 27h107q28 0 28 -27z" />
    <glyph glyph-name="fl" unicode="fl" horiz-adv-x="640" 
d="M578 661v-633q0 -28 -27 -28h-109q-27 0 -27 28v567q-29 6 -71 6q-52 0 -73.5 -15t-21.5 -49v-20h56q28 0 28 -28v-65q0 -27 -28 -27h-56v-372q0 -25 -28 -25h-104q-28 0 -28 25v372h-45q-27 0 -27 27v65q0 28 27 28h45v19q0 97 59 138.5t202 41.5q121 0 200 -24
q15 -5 21.5 -11.5t6.5 -19.5z" />
    <glyph glyph-name="f_f_i" unicode="ffi" horiz-adv-x="967" 
d="M904 489v-461q0 -28 -28 -28h-108q-27 0 -27 28v369h-166v-372q0 -25 -28 -25h-104q-28 0 -28 25v372h-166v-372q0 -25 -28 -25h-104q-28 0 -28 25v372h-45q-27 0 -27 27v65q0 28 27 28h45v44q0 154 164 154q51 0 78 -9q28 -7 28 -27v-51q0 -13 -5.5 -19.5t-16.5 -5.5
q-30 4 -43 4q-45 0 -45 -52v-38h166v44q0 154 164 154q51 0 78 -9q29 -8 29 -27v-51q0 -13 -6.5 -19.5t-16.5 -5.5q-30 4 -43 4q-45 0 -45 -52v-38h301q28 0 28 -28zM903 679v-64q0 -27 -27 -27h-107q-28 0 -28 27v64q0 27 28 27h107q27 0 27 -27z" />
    <glyph glyph-name="f_f_l" unicode="ffl" horiz-adv-x="965" 
d="M575 397v-372q0 -25 -28 -25h-104q-28 0 -28 25v372h-166v-372q0 -25 -28 -25h-104q-28 0 -28 25v372h-45q-27 0 -27 27v65q0 28 27 28h45v44q0 154 164 154q51 0 78 -9q28 -7 28 -27v-51q0 -13 -6 -19.5t-16 -5.5q-30 4 -43 4q-45 0 -45 -52v-38h166v19q0 98 59 139
t203 41q118 0 199 -24q15 -5 21.5 -11.5t6.5 -19.5v-633q0 -28 -28 -28h-108q-27 0 -27 28v567q-30 6 -71 6q-53 0 -74 -15t-21 -49v-20h56q28 0 28 -28v-65q0 -27 -28 -27h-56z" />
    <glyph glyph-name="f_b" unicode="fb" horiz-adv-x="992" 
d="M577 266q0 -150 106 -150q53 0 79 35.5t26 114.5q0 80 -26 115.5t-79 35.5q-106 0 -106 -151zM578 661v-191q20 35 64 54.5t93 19.5q105 0 161.5 -70t56.5 -208t-56.5 -207.5t-161.5 -69.5q-50 0 -96 21t-67 57l-5 -45q-2 -22 -29 -22h-96q-27 0 -27 28v567q-29 6 -71 6
q-52 0 -73.5 -15t-21.5 -49v-20h56q28 0 28 -28v-65q0 -27 -28 -27h-56v-372q0 -25 -28 -25h-104q-28 0 -28 25v372h-45q-27 0 -27 27v65q0 28 27 28h45v19q0 97 59 138.5t203 41.5q120 0 199 -24q15 -5 21.5 -11.5t6.5 -19.5z" />
    <glyph glyph-name="f_f_b" unicode="ffb" horiz-adv-x="1318" 
d="M902 266q0 -150 107 -150q53 0 78.5 35.5t25.5 114.5q0 80 -25.5 115.5t-78.5 35.5q-107 0 -107 -151zM904 661v-191q19 35 63.5 54.5t92.5 19.5q106 0 162.5 -70t56.5 -208t-56.5 -207.5t-161.5 -69.5q-51 0 -96.5 21t-66.5 57l-6 -45q-4 -22 -28 -22h-96q-27 0 -27 28
v567q-30 6 -71 6q-53 0 -74 -15t-21 -49v-20h56q28 0 28 -28v-65q0 -27 -28 -27h-56v-372q0 -25 -28 -25h-104q-28 0 -28 25v372h-166v-372q0 -25 -28 -25h-104q-28 0 -28 25v372h-45q-27 0 -27 27v65q0 28 27 28h45v44q0 154 164 154q46 0 78 -9q28 -7 28 -27v-51
q0 -13 -6 -19.5t-16 -5.5q-30 4 -43 4q-45 0 -45 -52v-38h166v19q0 98 59 139t203 41q118 0 199 -24q15 -5 21.5 -11.5t6.5 -19.5z" />
    <glyph glyph-name="f_h" unicode="fh" horiz-adv-x="973" 
d="M578 661v-192q47 75 161 75q178 0 178 -200v-316q0 -28 -28 -28h-108q-27 0 -27 28v286q0 47 -18.5 70.5t-61.5 23.5q-47 0 -71.5 -29t-24.5 -77v-274q0 -28 -27 -28h-109q-27 0 -27 28v567q-29 6 -71 6q-52 0 -73.5 -15t-21.5 -49v-20h56q28 0 28 -28v-65q0 -27 -28 -27
h-56v-372q0 -25 -28 -25h-104q-28 0 -28 25v372h-45q-27 0 -27 27v65q0 28 27 28h45v19q0 97 59 138.5t203 41.5q120 0 199 -24q15 -5 21.5 -11.5t6.5 -19.5z" />
    <glyph glyph-name="f_f_h" unicode="ffh" horiz-adv-x="1299" 
d="M904 661v-192q47 75 160 75q179 0 179 -200v-316q0 -28 -28 -28h-108q-28 0 -28 28v286q0 48 -18 71t-61 23q-48 0 -72 -29t-24 -77v-274q0 -28 -28 -28h-108q-27 0 -27 28v567q-30 6 -71 6q-53 0 -74 -15t-21 -49v-20h56q28 0 28 -28v-65q0 -27 -28 -27h-56v-372
q0 -25 -28 -25h-104q-28 0 -28 25v372h-166v-372q0 -25 -28 -25h-104q-28 0 -28 25v372h-45q-27 0 -27 27v65q0 28 27 28h45v44q0 154 163 154q52 0 79 -9q28 -7 28 -27v-51q0 -13 -6 -19.5t-16 -5.5q-30 4 -43 4q-45 0 -45 -52v-38h166v19q0 98 59 139t203 41
q118 0 199 -24q15 -5 21.5 -11.5t6.5 -19.5z" />
    <glyph glyph-name="f_j" unicode="fj" horiz-adv-x="640" 
d="M579 489v-448q0 -84 -36.5 -121.5t-118.5 -37.5q-43 0 -79 9q-25 6 -25 28v68q0 13 6 18.5t17 4.5q4 0 16.5 -2t19.5 -2q37 0 37 51v340h-167v-372q0 -25 -28 -25h-104q-28 0 -28 25v372h-45q-27 0 -27 27v65q0 28 27 28h45v44q0 154 164 154q51 0 78 -9q28 -7 28 -27
v-51q0 -13 -6 -19.5t-16 -5.5q-30 4 -43 4q-45 0 -45 -52v-38h303q27 0 27 -28zM579 679v-64q0 -27 -28 -27h-107q-27 0 -27 27v64q0 27 27 27h107q28 0 28 -27z" />
    <glyph glyph-name="f_f_j" unicode="ffj" horiz-adv-x="966" 
d="M905 489v-448q0 -84 -36.5 -121.5t-118.5 -37.5q-47 0 -79 9q-26 6 -26 28v68q0 23 24 23q6 0 17 -2t19 -2q37 0 37 51v340h-167v-372q0 -25 -28 -25h-104q-28 0 -28 25v372h-166v-372q0 -25 -28 -25h-104q-28 0 -28 25v372h-45q-27 0 -27 27v65q0 28 27 28h45v44
q0 154 164 154q51 0 78 -9q28 -7 28 -27v-51q0 -13 -6 -19.5t-16 -5.5q-30 4 -43 4q-45 0 -45 -52v-38h166v44q0 154 164 154q51 0 78 -9q29 -8 29 -28v-50q0 -13 -6.5 -19.5t-16.5 -5.5q-30 4 -43 4q-45 0 -45 -52v-38h302q28 0 28 -28zM904 679v-64q0 -27 -27 -27h-107
q-28 0 -28 27v64q0 27 28 27h107q27 0 27 -27z" />
    <glyph glyph-name="f_k" unicode="fk" horiz-adv-x="923" 
d="M578 661v-297l144 148q18 20 41 20h118q15 0 19 -11t-7 -24l-202 -205l213 -257q10 -13 6 -24t-18 -11h-120q-26 0 -42 22l-152 186v-180q0 -28 -27 -28h-109q-27 0 -27 28v567q-29 6 -71 6q-52 0 -73.5 -15t-21.5 -49v-20h56q28 0 28 -28v-65q0 -27 -28 -27h-56v-372
q0 -25 -28 -25h-104q-28 0 -28 25v372h-45q-27 0 -27 27v65q0 28 27 28h45v19q0 97 59 138.5t203 41.5q119 0 200 -24q15 -5 21 -11t6 -20z" />
    <glyph glyph-name="f_f_k" unicode="ffk" horiz-adv-x="1248" 
d="M741 28v567q-30 6 -71 6q-53 0 -74 -15t-21 -49v-20h56q28 0 28 -28v-65q0 -27 -28 -27h-56v-372q0 -25 -28 -25h-104q-28 0 -28 25v372h-166v-372q0 -25 -28 -25h-104q-28 0 -28 25v372h-45q-27 0 -27 27v65q0 28 27 28h45v44q0 154 164 154q51 0 78 -9q28 -7 28 -27
v-51q0 -13 -6 -19.5t-16 -5.5q-30 4 -43 4q-45 0 -45 -52v-38h166v19q0 98 59 139t203 41q120 0 199 -24q16 -5 22 -11t6 -20v-297l143 148q18 20 42 20h117q15 0 20 -11.5t-7 -23.5l-202 -205l213 -257q10 -13 6 -24t-18 -11h-120q-26 0 -42 22l-152 186v-180
q0 -28 -27 -28h-109q-27 0 -27 28z" />
    <glyph glyph-name="f_t" unicode="ft" horiz-adv-x="728" 
d="M249 517h168v121q0 24 28 24h101q28 0 28 -24v-121h98q28 0 28 -28v-65q0 -27 -28 -27h-97v-219q0 -36 12.5 -49.5t47.5 -13.5q8 0 22 2.5t20 2.5q23 0 23 -25l1 -66q0 -22 -25 -28q-38 -10 -87 -10q-92 0 -133 38.5t-41 130.5v237h-166v-372q0 -25 -28 -25h-104
q-28 0 -28 25v372h-45q-27 0 -27 27v65q0 28 27 28h45v44q0 154 164 154q51 0 78 -9q28 -7 28 -27v-51q0 -13 -6 -19.5t-16 -5.5q-30 4 -43 4q-45 0 -45 -52v-38z" />
    <glyph glyph-name="f_f_t" unicode="fft" horiz-adv-x="1053" 
d="M415 517v44q0 154 164 154q51 0 78 -9q29 -8 29 -27v-51q0 -13 -6.5 -19.5t-16.5 -5.5q-30 4 -43 4q-45 0 -45 -52v-38h168v121q0 24 28 24h100q28 0 28 -24v-121h99q27 0 27 -28v-65q0 -27 -27 -27h-97v-219q0 -36 12.5 -49.5t47.5 -13.5q8 0 20.5 2.5t19.5 2.5
q22 0 23 -25l4 -66q1 -20 -25 -28q-38 -10 -88 -10q-92 0 -133 38.5t-41 130.5v237h-166v-372q0 -25 -28 -25h-104q-28 0 -28 25v372h-166v-372q0 -25 -28 -25h-104q-28 0 -28 25v372h-45q-27 0 -27 27v65q0 28 27 28h45v44q0 154 164 154q51 0 78 -9q28 -7 28 -27v-51
q0 -13 -6 -19.5t-16 -5.5q-30 4 -43 4q-45 0 -45 -52v-38h166z" />
    <glyph glyph-name="t_t" unicode="tt" horiz-adv-x="725" 
d="M670 397h-98v-219q0 -36 13 -49.5t47 -13.5q8 0 20.5 2.5t19.5 2.5q23 0 24 -25l3 -66q1 -13 -5 -18.5t-20 -9.5q-36 -10 -88 -10q-92 0 -133 38.5t-41 130.5v237h-169v-219q0 -36 12.5 -49.5t44.5 -13.5q7 0 19.5 2.5t18.5 2.5q22 0 23 -25l4 -66q1 -20 -25 -28
q-38 -10 -86 -10q-90 0 -130.5 38.5t-40.5 130.5v237h-46q-28 0 -28 27v65q0 28 28 28h48v121q0 24 28 24h100q28 0 28 -24v-121h173v121q0 24 28 24h101q28 0 28 -24v-121h99q27 0 27 -28v-65q0 -27 -27 -27z" />
    <glyph glyph-name="t_t_f" unicode="ttf" horiz-adv-x="1048" 
d="M572 397v-219q0 -36 13 -49.5t45 -13.5q8 0 21 2.5t17 2.5q24 0 24 -25l1 -66q0 -22 -25 -28q-38 -10 -84 -10q-90 0 -131 38.5t-41 130.5v237h-169v-219q0 -36 12.5 -49.5t44.5 -13.5q7 0 19.5 2.5t18.5 2.5q22 0 23 -25l4 -66q1 -20 -25 -28q-38 -10 -86 -10
q-90 0 -130.5 38.5t-40.5 130.5v237h-46q-28 0 -28 27v65q0 28 28 28h48v121q0 24 28 24h100q28 0 28 -24v-121h173v121q0 24 28 24h101q28 0 28 -24v-121h173v38q0 83 43 121.5t130 38.5q52 0 82 -9q25 -7 25 -28v-59q0 -13 -6 -20.5t-17 -6.5q-32 4 -42 4
q-30 0 -42.5 -12.5t-12.5 -40.5v-26h90q28 0 28 -28v-65q0 -27 -28 -27h-90v-372q0 -25 -28 -25h-104q-28 0 -28 25v372h-172z" />
    <glyph glyph-name=".notdef" horiz-adv-x="492" 
d="M0 690h492v-690h-492v690zM443 94v503l-168 -252zM49 597v-503l168 251zM246 389l168 252h-335zM246 301l-167 -252h334z" />
    <glyph glyph-name=".null" horiz-adv-x="0" 
 />
    <glyph glyph-name="nonmarkingreturn" horiz-adv-x="333" 
 />
    <glyph glyph-name="space" unicode=" " horiz-adv-x="287" 
 />
    <glyph glyph-name="exclam" unicode="!" horiz-adv-x="321" 
d="M76 28v107q0 27 29 27h111q29 0 29 -27v-107q0 -28 -27 -28h-115q-27 0 -27 28zM198 224h-75q-27 0 -29 26l-30 427q-2 29 28 29h137q30 0 28 -29l-30 -427q-2 -26 -29 -26z" />
    <glyph glyph-name="quotedbl" unicode="&#x22;" horiz-adv-x="400" 
d="M169 621l-32 -179h-54l-31 179q-7 44 -7 58q0 52 65 52q36 0 50.5 -12.5t14.5 -39.5q0 -20 -6 -58zM349 621l-32 -179h-54l-31 179q-7 44 -7 58q0 27 14.5 39.5t50.5 12.5t50.5 -12.5t14.5 -39.5q0 -20 -6 -58z" />
    <glyph glyph-name="numbersign" unicode="#" horiz-adv-x="647" 
d="M579 667l-37 -142h63q27 0 27 -27v-40q0 -28 -27 -28h-89l-41 -157h62q28 0 28 -28v-40q0 -27 -28 -27h-87l-42 -164q-8 -28 -34 -20l-44 12q-28 6 -20 33l36 139h-137l-42 -164q-8 -28 -34 -20l-44 12q-27 8 -20 33l36 139h-63q-28 0 -28 27v40q0 28 28 28h88l41 157
h-61q-28 0 -28 28v40q0 27 28 27h87l43 168q8 26 34 19l44 -11q26 -7 20 -34l-37 -142h136l44 168q8 26 34 19l44 -11q27 -7 20 -34zM275 430l-41 -157h137l41 157h-137z" />
    <glyph glyph-name="dollar" unicode="$" horiz-adv-x="606" 
d="M363 779v-64q101 -9 161 -40q25 -12 16 -36l-28 -73q-10 -26 -37 -17q-62 24 -142 24q-117 0 -117 -60q0 -36 58 -62q17 -8 73 -28q48 -17 70.5 -26.5t58.5 -29.5t53 -40t30.5 -53t13.5 -74q0 -89 -56.5 -139t-149.5 -65v-68q0 -28 -28 -28h-47q-28 0 -28 28v63
q-126 6 -207 45q-14 6 -17.5 13.5t0.5 22.5l28 76q10 27 37 16q75 -31 158 -31q138 0 138 67q0 16 -7.5 28t-29 23.5t-34 16.5t-49.5 18q-9 3 -14 5q-40 13 -66 23.5t-59 29.5t-51.5 41t-32 56.5t-13.5 77.5q0 86 56.5 135.5t158.5 59.5v65q0 27 28 27h47q28 0 28 -27z" />
    <glyph glyph-name="percent" unicode="%" horiz-adv-x="974" 
d="M741 679l-388 -652q-15 -27 -40 -27h-65q-32 0 -15 28l388 652q15 26 40 26h65q30 0 15 -27zM35 502q0 100 50 156t134 56t134 -56t50 -156q0 -99 -50 -155t-134 -56t-134 56t-50 155zM279 502q0 114 -60 114q-61 0 -61 -114q0 -113 61 -113q60 0 60 113zM571 204
q0 99 50 155t134 56t134 -56t50 -155q0 -100 -50 -155.5t-134 -55.5t-134 55.5t-50 155.5zM816 204q0 113 -61 113q-60 0 -60 -113q0 -114 60 -114q61 0 61 114z" />
    <glyph glyph-name="ampersand" unicode="&#x26;" horiz-adv-x="741" 
d="M684 307q0 -103 -57 -179l89 -99q8 -10 4.5 -19.5t-14.5 -9.5h-100q-29 0 -45 16l-29 32q-86 -57 -199 -57q-129 0 -211 57t-82 165q0 76 45 128.5t122 75.5l-16 19q-57 66 -57 135q0 68 52 107.5t163 39.5q81 0 142 -26q28 -12 22 -37l-14 -58q-8 -28 -39 -19
q-49 14 -90 14q-89 0 -89 -47q0 -8 2.5 -16.5t5 -14.5t9.5 -14.5t10.5 -13t12.5 -14.5t12 -13l202 -225q18 41 18 82q0 12 -5 30t-5 25q0 12 6 16.5t20 4.5h83q18 0 23 -19q9 -27 9 -66zM356 127q58 0 89 20l-159 179q-79 -28 -79 -98q0 -45 38.5 -73t110.5 -28z" />
    <glyph glyph-name="quotesingle" unicode="'" horiz-adv-x="220" 
d="M169 621l-32 -179h-54l-31 179q-7 44 -7 58q0 52 65 52q36 0 50.5 -12.5t14.5 -39.5q0 -20 -6 -58z" />
    <glyph glyph-name="parenleft" unicode="(" horiz-adv-x="382" 
d="M68 299q0 117 45.5 222.5t114.5 180.5q12 14 31 14h75q14 0 18 -10t-4 -21q-56 -77 -89.5 -178t-33.5 -208q0 -106 33.5 -206.5t89.5 -179.5q8 -11 4 -21t-18 -10h-75q-19 0 -31 14q-69 75 -114.5 180.5t-45.5 222.5z" />
    <glyph glyph-name="parenright" unicode=")" horiz-adv-x="382" 
d="M315 299q0 -117 -45.5 -222.5t-115.5 -180.5q-12 -14 -30 -14h-76q-14 0 -17.5 10t3.5 21q56 80 89.5 180.5t33.5 205.5t-33.5 205.5t-89.5 180.5q-7 11 -3.5 21t17.5 10h76q18 0 30 -14q70 -75 115.5 -180t45.5 -223z" />
    <glyph glyph-name="asterisk" unicode="*" horiz-adv-x="441" 
d="M222 329q-27 0 -37 10t-10 33q0 17 10 54.5t11 51.5q-12 -9 -40 -36t-42 -35q-15 -9 -28 -9q-20 0 -34 27q-10 16 -10 29q0 18 26 34q14 8 52 18.5t50 15.5q-13 6 -51 17t-51 19q-26 16 -26 34q0 12 10 28q16 28 35 28q12 0 27 -9q14 -8 41 -35.5t40 -36.5
q-1 14 -11 51.5t-10 54.5q0 23 10 33t36 10t36 -10t10 -33q0 -17 -9.5 -54.5t-10.5 -51.5q12 8 39.5 35.5t42.5 35.5q15 9 27 9q18 0 34 -27q10 -17 10 -29q0 -18 -25 -34q-14 -8 -52 -18.5t-50 -15.5q13 -6 51 -17t51 -19q26 -16 26 -34q0 -12 -10 -28q-24 -41 -62 -19
q-14 9 -41.5 36t-39.5 36q1 -14 11 -51.5t10 -54.5q0 -23 -10 -33t-36 -10z" />
    <glyph glyph-name="plus" unicode="+" horiz-adv-x="604" 
d="M523 282h-148v-150q0 -27 -27 -27h-92q-28 0 -28 27v150h-147q-27 0 -27 27v75q0 27 27 27h147v150q0 27 28 27h92q27 0 27 -27v-150h148q28 0 28 -27v-75q0 -27 -28 -27z" />
    <glyph glyph-name="comma" unicode="," horiz-adv-x="260" 
d="M204 4l-64 -123q-8 -14 -23 -14h-36q-10 0 -13.5 7.5t0.5 17.5l40 108h-32q-27 0 -27 28v106q0 27 30 27h103q29 0 29 -27v-95q0 -22 -7 -35z" />
    <glyph glyph-name="hyphen" unicode="-" horiz-adv-x="402" 
d="M335 214h-269q-27 0 -27 27v75q0 27 28 27h268q28 0 28 -26v-76q0 -27 -28 -27z" />
    <glyph glyph-name="period" unicode="." horiz-adv-x="260" 
d="M49 28v106q0 27 30 27h103q29 0 29 -27v-106q0 -28 -27 -28h-108q-27 0 -27 28z" />
    <glyph glyph-name="slash" unicode="/" horiz-adv-x="463" 
d="M12 34l286 647q11 25 37 25h94q17 0 22.5 -10t-0.5 -24l-286 -647q-11 -25 -36 -25h-95q-17 0 -23 9.5t1 24.5z" />
    <glyph glyph-name="zero" unicode="0" horiz-adv-x="683" 
d="M341 718q138 0 216 -92.5t78 -271.5t-78 -272t-216 -93q-137 0 -215.5 93t-78.5 271q0 179 78.5 272t215.5 93zM341 134q124 0 124 219t-124 219q-123 0 -123 -219t123 -219z" />
    <glyph glyph-name="one" unicode="1" horiz-adv-x="497" 
d="M225 29v503l-110 -65q-23 -13 -35 5l-50 65q-14 20 5 32l174 124q18 13 43 13h112q29 0 29 -29v-648q0 -29 -29 -29h-110q-29 0 -29 29z" />
    <glyph glyph-name="two" unicode="2" horiz-adv-x="633" 
d="M205 502q0 -14 2.5 -29.5t2.5 -19.5q0 -24 -25 -24h-102q-22 0 -28 26q-5 19 -5 52q0 94 63.5 152.5t191.5 58.5q138 0 203 -61.5t65 -158.5q0 -56 -27 -112t-72.5 -102.5t-91.5 -82t-96 -64.5h265q30 0 30 -29v-79q0 -29 -30 -29h-474q-29 0 -29 29v65q0 21 22 35
q60 34 113 70t106 83t84.5 99.5t31.5 102.5q0 97 -102 97q-52 0 -75 -23t-23 -56z" />
    <glyph glyph-name="three" unicode="3" horiz-adv-x="597" 
d="M191 426h76q53 0 77.5 18.5t24.5 59.5q0 78 -109 78q-80 0 -161 -32q-26 -11 -37 16l-27 68q-10 26 17 37q100 46 229 46q68 0 122.5 -17t92.5 -59.5t38 -107.5q0 -117 -102 -157q52 -15 85.5 -56.5t33.5 -108.5q0 -109 -69.5 -165t-205.5 -56q-134 0 -232 47
q-26 12 -17 37l27 71q11 27 38 16q76 -34 165 -34q67 0 97 22t30 68q0 82 -112 82h-81q-30 0 -30 29v69q0 29 30 29z" />
    <glyph glyph-name="four" unicode="4" horiz-adv-x="674" 
d="M524 0h-110q-29 0 -29 29v111h-324q-29 0 -29 30v76q0 21 12 36l332 408q13 16 33 16h114q29 0 29 -29v-402h75q29 0 29 -29v-76q0 -30 -29 -30h-75v-111q0 -29 -28 -29zM386 532l-212 -257h212v257z" />
    <glyph glyph-name="five" unicode="5" horiz-adv-x="614" 
d="M569 229q0 -120 -75 -179.5t-215 -59.5q-130 0 -228 48q-25 12 -16 38l27 69q11 29 38 16q81 -34 169 -34q69 0 101 25t32 77q0 49 -28 74t-90 25q-43 0 -83.5 -11.5t-48.5 -11.5q-6 0 -18 4l-58 17q-19 5 -16 27q20 193 20 320q0 33 31 33h389q29 0 29 -29v-79
q0 -29 -29 -29h-283q-6 -91 -11 -139q49 17 115 17q128 0 188 -57.5t60 -160.5z" />
    <glyph glyph-name="six" unicode="6" horiz-adv-x="654" 
d="M483 568q-53 16 -103 16q-88 0 -129 -45.5t-43 -131.5q58 70 167 70q115 0 175.5 -63.5t60.5 -168.5q0 -114 -72 -185t-194 -71q-150 0 -224 89.5t-74 242.5q0 194 76 295.5t243 101.5q87 0 151 -27q28 -10 22 -34l-18 -69q-7 -28 -38 -20zM343 126q55 0 86.5 33t31.5 89
q0 49 -30.5 80t-89.5 31t-91.5 -31.5t-32.5 -83.5q0 -48 32 -83t94 -35z" />
    <glyph glyph-name="seven" unicode="7" horiz-adv-x="587" 
d="M133 28q14 131 85.5 287.5t151.5 253.5h-306q-29 0 -29 29v79q0 29 29 29h456q29 0 29 -29v-67q0 -10 -3.5 -18t-10.5 -16.5t-8 -10.5q-83 -119 -147 -262.5t-74 -274.5q-2 -16 -8 -22t-22 -6h-114q-32 0 -29 28z" />
    <glyph glyph-name="eight" unicode="8" horiz-adv-x="652" 
d="M326 -11q-138 0 -211 54t-73 147q0 136 150 176q-61 18 -96.5 61t-35.5 103q0 91 70 139.5t196 48.5t195.5 -48.5t69.5 -139.5q0 -59 -35.5 -102.5t-95.5 -61.5q150 -40 150 -176q0 -93 -73 -147t-211 -54zM326 598q-102 0 -102 -76q0 -41 25 -66.5t77 -40.5
q102 30 102 107q0 76 -102 76zM326 314q-118 -30 -118 -113q0 -40 30.5 -63.5t87.5 -23.5q56 0 87 23.5t31 63.5q0 82 -118 113z" />
    <glyph glyph-name="nine" unicode="9" horiz-adv-x="654" 
d="M173 138q53 -16 103 -16q168 0 171 173q-58 -66 -167 -66q-115 0 -176 63.5t-61 168.5q0 114 72 185t194 71q150 0 224 -90t74 -243q0 -194 -75 -294.5t-243 -100.5q-87 0 -151 26q-26 10 -21 34l18 69q7 28 38 20zM311 580q-55 0 -86.5 -33t-31.5 -88q0 -50 30.5 -81
t89.5 -31t91.5 31t32.5 83q0 51 -31.5 85t-94.5 34z" />
    <glyph glyph-name="colon" unicode=":" horiz-adv-x="302" 
d="M70 28v106q0 27 29 27h103q30 0 30 -27v-106q0 -28 -28 -28h-107q-27 0 -27 28zM70 398v108q0 26 29 26h103q30 0 30 -27v-107q0 -27 -28 -27h-107q-27 0 -27 27z" />
    <glyph glyph-name="semicolon" unicode=";" horiz-adv-x="302" 
d="M70 398v107q0 27 30 27h102q30 0 30 -27v-107q0 -27 -28 -27h-107q-27 0 -27 27zM224 4l-63 -123q-8 -14 -23 -14h-36q-10 0 -14 7.5t0 17.5l41 108h-32q-27 0 -27 28v106q0 27 29 27h103q30 0 30 -27v-95q0 -20 -8 -35z" />
    <glyph glyph-name="less" unicode="&#x3c;" horiz-adv-x="604" 
d="M57 345q0 16 13 27l359 280q22 18 40 -4l53 -64q17 -20 -4 -39l-265 -201l265 -200q22 -15 4 -38l-53 -66q-16 -21 -39 -4l-360 282q-13 11 -13 27z" />
    <glyph glyph-name="equal" unicode="=" horiz-adv-x="604" 
d="M509 397h-414q-27 0 -27 27v69q0 27 27 27h414q27 0 27 -27v-69q0 -27 -27 -27zM509 174h-414q-27 0 -27 27v68q0 27 27 27h414q27 0 27 -27v-68q0 -27 -27 -27z" />
    <glyph glyph-name="greater" unicode="&#x3e;" horiz-adv-x="604" 
d="M548 346q0 -18 -14 -28l-361 -282q-22 -17 -38 4l-52 66q-17 22 4 38l265 200l-265 201q-22 18 -4 39l52 64q16 20 38 4l361 -280q14 -10 14 -26z" />
    <glyph glyph-name="question" unicode="?" horiz-adv-x="553" 
d="M182 28v107q0 27 30 27h110q29 0 29 -27v-107q0 -28 -27 -28h-114q-28 0 -28 28zM346 266v-17q0 -25 -29 -25h-93q-29 0 -29 27v16q0 24 15.5 48.5t37.5 46t44 44t37.5 50.5t15.5 58q0 65 -100 65q-72 0 -145 -29q-27 -11 -38 16l-28 71q-10 25 17 37q91 43 215 43
q117 0 180.5 -45t63.5 -130q0 -46 -17 -84t-41 -62.5t-48 -45t-41 -42t-17 -42.5z" />
    <glyph glyph-name="at" unicode="@" horiz-adv-x="936" 
d="M543 232l21 122q-26 10 -61 10q-62 0 -95 -41t-33 -104q0 -84 70 -84q81 0 98 97zM677 -20q16 4 20 -14l8 -32q4 -14 -12 -19q-110 -32 -219 -32q-417 0 -417 335q0 178 120 285.5t318 107.5q188 0 287.5 -85.5t99.5 -223.5q0 -124 -61 -197t-163 -73h-61q-31 0 -35 20
l-8 46q-48 -67 -138 -67q-79 0 -126 44.5t-47 126.5q0 117 65 190t201 73q97 0 171 -36q21 -9 17 -28l-50 -296h18q137 0 137 198q0 110 -75 172.5t-233 62.5q-164 0 -260.5 -84.5t-96.5 -235.5q0 -139 82.5 -201.5t255.5 -62.5q82 0 202 26z" />
    <glyph glyph-name="A" unicode="A" horiz-adv-x="693" 
d="M262 278h167l-81 259h-2zM276 706h141q26 0 35 -27l223 -645q5 -15 -1.5 -24.5t-20.5 -9.5h-119q-26 0 -35 27l-37 108h-232l-36 -108q-9 -27 -34 -27h-120q-14 0 -20.5 9.5t-1.5 24.5l223 645q9 27 35 27z" />
    <glyph glyph-name="B" unicode="B" horiz-adv-x="683" 
d="M234 422h112q59 0 84 18.5t25 59.5q0 40 -24.5 57.5t-85.5 17.5h-111v-153zM358 0h-264q-29 0 -29 29v648q0 29 29 29h255q140 0 206 -44t66 -143q0 -57 -26.5 -94t-66.5 -50q114 -34 114 -168q0 -207 -284 -207zM234 131h115q69 0 96 19t27 66q0 45 -27.5 64.5
t-94.5 19.5h-116v-169z" />
    <glyph glyph-name="C" unicode="C" horiz-adv-x="625" 
d="M402 138q57 0 113 26q28 13 40 -15l34 -73q10 -21 -16 -38q-76 -49 -199 -49q-157 0 -244.5 90.5t-87.5 273.5q0 182 86 273.5t241 91.5q120 0 196 -49q26 -17 16 -38l-33 -72q-11 -26 -40 -14q-50 23 -111 23q-93 0 -136.5 -51.5t-43.5 -163.5t44.5 -163.5t140.5 -51.5z
" />
    <glyph glyph-name="D" unicode="D" horiz-adv-x="689" 
d="M300 0h-206q-29 0 -29 29v648q0 29 29 29h205q175 0 261.5 -82.5t86.5 -266.5q0 -190 -86 -273.5t-261 -83.5zM292 556h-55v-406h56q95 0 138 44.5t43 162.5q0 113 -43.5 156t-138.5 43z" />
    <glyph glyph-name="E" unicode="E" horiz-adv-x="572" 
d="M484 290h-250v-146h268q30 0 30 -29v-85q0 -30 -30 -30h-408q-29 0 -29 29v648q0 29 29 29h404q29 0 29 -29v-86q0 -30 -29 -30h-264v-133h250q28 0 28 -29v-80q0 -29 -28 -29z" />
    <glyph glyph-name="F" unicode="F" horiz-adv-x="558" 
d="M484 271h-249v-242q0 -29 -29 -29h-112q-29 0 -29 29v648q0 29 29 29h401q29 0 29 -29v-86q0 -29 -29 -29h-260v-150h249q29 0 29 -29v-84q0 -28 -29 -28z" />
    <glyph glyph-name="G" unicode="G" horiz-adv-x="702" 
d="M406 426h211q29 0 29 -29v-321q0 -23 -23 -36q-84 -51 -236 -51q-345 0 -345 364q0 365 355 365q130 0 210 -51q25 -16 16 -38l-29 -73q-9 -25 -41 -14q-64 26 -130 26q-110 0 -158 -49.5t-48 -165.5q0 -115 46.5 -165t145.5 -50q48 0 84 15v145h-87q-29 0 -29 28v71
q0 29 29 29z" />
    <glyph glyph-name="H" unicode="H" horiz-adv-x="703" 
d="M467 29v254h-230v-254q0 -29 -30 -29h-113q-29 0 -29 29v648q0 29 29 29h113q30 0 30 -29v-242h230v242q0 29 29 29h113q29 0 29 -29v-648q0 -29 -29 -29h-113q-29 0 -29 29z" />
    <glyph glyph-name="I" unicode="I" horiz-adv-x="312" 
d="M70 29v648q0 29 29 29h113q30 0 30 -29v-648q0 -29 -30 -29h-113q-29 0 -29 29z" />
    <glyph glyph-name="J" unicode="J" horiz-adv-x="505" 
d="M273 251v426q0 29 29 29h114q29 0 29 -29v-441q0 -247 -241 -247q-101 0 -169 41q-25 15 -16 38l28 78q10 30 37 17q48 -23 90 -23q99 0 99 111z" />
    <glyph glyph-name="K" unicode="K" horiz-adv-x="648" 
d="M237 449l199 231q23 26 44 26h125q15 0 19.5 -12t-5.5 -25l-250 -292l256 -340q10 -13 5 -25t-20 -12h-127q-22 0 -42 27l-204 269v-267q0 -29 -30 -29h-113q-29 0 -29 29v648q0 29 29 29h113q30 0 30 -29v-228z" />
    <glyph glyph-name="L" unicode="L" horiz-adv-x="552" 
d="M237 677v-524h249q29 0 29 -29v-95q0 -29 -29 -29h-392q-29 0 -29 29v648q0 29 29 29h113q30 0 30 -29z" />
    <glyph glyph-name="M" unicode="M" horiz-adv-x="824" 
d="M412 154q-15 0 -24 14l-157 260v-399q0 -29 -29 -29h-108q-29 0 -29 29v648q0 29 29 29h105q23 0 34 -17l179 -299l179 299q9 17 33 17h105q30 0 30 -29v-648q0 -29 -30 -29h-108q-28 0 -28 29v399l-158 -260q-9 -14 -23 -14z" />
    <glyph glyph-name="N" unicode="N" horiz-adv-x="709" 
d="M644 677v-648q0 -29 -30 -29h-109q-25 0 -36 19l-238 399v-389q0 -29 -29 -29h-108q-29 0 -29 29v648q0 29 29 29h109q26 0 37 -19l238 -399v389q0 29 29 29h107q30 0 30 -29z" />
    <glyph glyph-name="O" unicode="O" horiz-adv-x="719" 
d="M359 718q152 0 235 -91t83 -274t-83 -273.5t-235 -90.5q-151 0 -234 90.5t-83 273.5t83 274t234 91zM359 137q73 0 108.5 52.5t35.5 163.5q0 217 -144 217q-143 0 -143 -217q0 -216 143 -216z" />
    <glyph glyph-name="P" unicode="P" horiz-adv-x="666" 
d="M235 342h88q68 0 98 25t30 85q0 59 -30 84t-98 25h-88v-219zM206 0h-112q-29 0 -29 29v648q0 29 29 29h231q150 0 224 -59.5t74 -194.5t-73.5 -194.5t-224.5 -59.5h-90v-169q0 -29 -29 -29z" />
    <glyph glyph-name="Q" unicode="Q" horiz-adv-x="719" 
d="M496 31q33 -10 71 -10q10 0 25 2.5t20 2.5q22 0 22 -22v-71q0 -18 -8 -24.5t-30 -6.5q-73 0 -146.5 25t-128.5 70q-134 11 -206.5 100t-72.5 259q0 181 83 271.5t234 90.5q152 0 235.5 -90.5t83.5 -271.5q0 -120 -49 -204.5t-133 -120.5zM359 142q73 0 108.5 52t35.5 162
q0 214 -144 214q-143 0 -143 -214t143 -214z" />
    <glyph glyph-name="R" unicode="R" horiz-adv-x="669" 
d="M235 363h93q69 0 98.5 23.5t29.5 75.5q0 55 -29 77t-98 22h-94v-198zM94 706h237q149 0 223 -57.5t74 -186.5q0 -166 -155 -213l150 -212q10 -13 4.5 -25t-21.5 -12h-116q-26 0 -41 23l-138 202h-76v-196q0 -29 -29 -29h-112q-29 0 -29 29v648q0 29 29 29z" />
    <glyph glyph-name="S" unicode="S" horiz-adv-x="591" 
d="M557 198q0 -105 -75.5 -156.5t-196.5 -51.5q-143 0 -229 44q-24 12 -16 36l28 76q9 28 37 17q70 -30 152 -30q128 0 128 67q0 21 -18.5 38.5t-40 27t-66.5 25.5q-40 14 -64 24.5t-56 30t-49.5 41t-30 55.5t-12.5 77q0 99 67.5 148.5t194.5 49.5q123 0 201 -40
q25 -14 17 -36l-28 -72q-10 -27 -37 -17q-61 21 -136 21q-107 0 -107 -59q0 -13 6.5 -24.5t14 -18.5t27 -17t31 -15t40.5 -16q36 -14 49 -19t43 -19t42.5 -24t32.5 -27.5t28.5 -36t15.5 -44t7 -55.5z" />
    <glyph glyph-name="T" unicode="T" horiz-adv-x="576" 
d="M25 583v94q0 29 29 29h467q30 0 30 -29v-94q0 -30 -30 -30h-147v-524q0 -29 -30 -29h-112q-30 0 -30 29v524h-148q-29 0 -29 30z" />
    <glyph glyph-name="U" unicode="U" horiz-adv-x="692" 
d="M346 -11q-285 0 -285 271v417q0 29 29 29h113q30 0 30 -29v-402q0 -68 26.5 -101t86.5 -33t87 33t27 101v402q0 29 29 29h113q29 0 29 -29v-417q0 -271 -285 -271z" />
    <glyph glyph-name="V" unicode="V" horiz-adv-x="684" 
d="M412 0h-140q-27 0 -36 27l-213 645q-5 15 1 24.5t21 9.5h120q27 0 35 -27l101 -339l39 -163h3l40 163l100 339q7 27 36 27h120q15 0 21 -9.5t1 -24.5l-213 -645q-9 -27 -36 -27z" />
    <glyph glyph-name="W" unicode="W" horiz-adv-x="1037" 
d="M468 706h101q30 0 36 -26l77 -298l39 -174h4l37 173l73 298q6 27 35 27h117q14 0 20 -9.5t2 -25.5l-177 -644q-8 -27 -36 -27h-125q-29 0 -36 27l-80 285l-35 144h-3l-35 -144l-80 -285q-8 -27 -36 -27h-124q-28 0 -36 27l-178 644q-4 16 2 25.5t20 9.5h117q29 0 35 -27
l73 -298l38 -173h3l39 174l77 298q6 26 36 26z" />
    <glyph glyph-name="X" unicode="X" horiz-adv-x="677" 
d="M338 227l-132 -200q-17 -27 -42 -27h-120q-15 0 -20 11t4 25l217 321l-211 313q-9 13 -3.5 24.5t19.5 11.5h123q25 0 41 -26l125 -193l126 193q17 26 41 26h121q14 0 19.5 -11.5t-3.5 -24.5l-212 -312l218 -322q9 -14 4 -25t-20 -11h-121q-26 0 -42 27z" />
    <glyph glyph-name="Y" unicode="Y" horiz-adv-x="676" 
d="M424 260v-231q0 -29 -29 -29h-114q-29 0 -29 29v231l-228 410q-8 13 -2 24.5t21 11.5h119q26 0 39 -27l95 -190l41 -94h2l41 94l95 190q13 27 39 27h119q15 0 21 -11.5t-2 -24.5z" />
    <glyph glyph-name="Z" unicode="Z" horiz-adv-x="620" 
d="M48 29v90q0 23 18 46l296 388h-276q-29 0 -29 30v94q0 29 29 29h447q29 0 29 -29v-90q0 -21 -18 -46l-294 -388h290q29 0 29 -29v-95q0 -29 -29 -29h-463q-29 0 -29 29z" />
    <glyph glyph-name="bracketleft" unicode="[" horiz-adv-x="382" 
d="M344 -23v-59q0 -28 -27 -28h-195q-28 0 -28 28v761q0 27 28 27h195q27 0 27 -27v-59q0 -28 -27 -28h-77v-588h77q27 0 27 -27z" />
    <glyph glyph-name="backslash" unicode="\" horiz-adv-x="463" 
d="M165 681l286 -647q7 -15 1 -24.5t-23 -9.5h-94q-26 0 -37 25l-286 647q-7 15 -1 24.5t23 9.5h95q25 0 36 -25z" />
    <glyph glyph-name="bracketright" unicode="]" horiz-adv-x="383" 
d="M38 -82v59q0 27 28 27h77v588h-77q-28 0 -28 28v59q0 27 28 27h195q28 0 28 -27v-761q0 -28 -28 -28h-195q-28 0 -28 28z" />
    <glyph glyph-name="asciicircum" unicode="^" horiz-adv-x="604" 
d="M257 706h90q26 0 38 -22l167 -307q8 -16 2.5 -26t-22.5 -10h-86q-25 0 -37 22l-107 200l-107 -200q-12 -22 -37 -22h-86q-17 0 -23 10t3 26l168 307q12 22 37 22z" />
    <glyph glyph-name="underscore" unicode="_" horiz-adv-x="529" 
d="M485 -120h-441q-27 0 -27 27v31q0 28 27 28h441q27 0 27 -28v-31q0 -27 -27 -27z" />
    <glyph glyph-name="grave" unicode="`" horiz-adv-x="365" 
d="M219 702l40 -87q7 -22 -17 -22h-61q-21 0 -35 14l-86 85q-9 8 -6 18.5t16 10.5h118q23 0 31 -19z" />
    <glyph glyph-name="a" unicode="a" horiz-adv-x="586" 
d="M529 354v-326q0 -28 -27 -28h-91q-24 0 -28 22l-6 44q-54 -74 -176 -74q-77 0 -123.5 40t-46.5 116q0 44 16.5 76t43.5 51t73 30t92.5 15.5t114.5 5.5v19q0 75 -103 75q-69 0 -144 -28q-26 -11 -34 17l-20 62q-8 23 16 34q90 39 206 39q237 0 237 -190zM371 197v42
q-97 -2 -141 -18.5t-44 -61.5q0 -28 20 -45t55 -17q55 0 82.5 27.5t27.5 72.5z" />
    <glyph glyph-name="b" unicode="b" horiz-adv-x="639" 
d="M224 267q0 -151 106 -151q53 0 78.5 35.5t25.5 114.5q0 80 -25.5 115.5t-78.5 35.5q-106 0 -106 -150zM219 66l-5 -44q-2 -22 -28 -22h-97q-27 0 -27 28v651q0 27 27 27h108q28 0 28 -27v-208q20 34 64 53.5t93 19.5q105 0 161.5 -70t56.5 -208t-56.5 -207.5
t-161.5 -69.5q-50 0 -96 20.5t-67 56.5z" />
    <glyph glyph-name="c" unicode="c" horiz-adv-x="521" 
d="M38 267q0 135 73.5 206t200.5 71q102 0 160 -36q24 -14 15 -37l-28 -64q-10 -24 -40 -13q-43 18 -88 18q-127 0 -127 -145q0 -74 33.5 -110t93.5 -36q53 0 93 21q28 12 39 -14l28 -63q9 -22 -15 -38q-25 -16 -69.5 -27t-90.5 -11q-129 0 -203.5 71t-74.5 207z" />
    <glyph glyph-name="d" unicode="d" horiz-adv-x="639" 
d="M416 266q0 151 -107 151q-52 0 -78 -35.5t-26 -115.5q0 -79 26 -114.5t78 -35.5q107 0 107 150zM426 22l-5 44q-22 -36 -67.5 -56.5t-95.5 -20.5q-105 0 -162 70t-57 207q0 138 57 208t162 70q48 0 92.5 -19.5t64.5 -53.5v208q0 27 27 27h108q28 0 28 -27v-651
q0 -28 -28 -28h-96q-24 0 -28 22z" />
    <glyph glyph-name="e" unicode="e" horiz-adv-x="589" 
d="M344 103q68 0 131 30q26 12 36 -17l18 -53q7 -22 -17 -34q-82 -41 -182 -41q-139 0 -215.5 72.5t-76.5 205.5t71 205.5t193 72.5q118 0 184 -70t66 -187v-49q0 -27 -28 -27h-325q9 -51 46.5 -79.5t98.5 -28.5zM305 429q-101 0 -111 -125h213v7q0 56 -26 87t-76 31z" />
    <glyph glyph-name="f" unicode="f" horiz-adv-x="387" 
d="M249 517h90q28 0 28 -28v-65q0 -27 -28 -27h-90v-372q0 -25 -28 -25h-104q-28 0 -28 25v372h-45q-27 0 -27 27v65q0 28 27 28h45v38q0 83 43 121.5t131 38.5q51 0 81 -9q25 -7 25 -28v-59q0 -13 -6.5 -20.5t-17.5 -6.5q-30 4 -42 4q-29 0 -41.5 -12.5t-12.5 -40.5v-26z
" />
    <glyph glyph-name="g" unicode="g" horiz-adv-x="609" 
d="M391 307q0 121 -95 121q-94 0 -94 -124q0 -125 94 -125q95 0 95 128zM550 505v-407q0 -108 -69 -164t-198 -56q-124 0 -188 31q-23 12 -17 34l18 62q8 27 34 17q68 -24 139 -24q128 0 128 107v35q-20 -34 -59 -52.5t-87 -18.5q-96 0 -153.5 57t-57.5 178t55.5 180
t149.5 59q49 0 89.5 -20t61.5 -53l5 40q3 22 28 22h93q28 0 28 -27z" />
    <glyph glyph-name="h" unicode="h" horiz-adv-x="620" 
d="M564 344v-316q0 -28 -28 -28h-108q-27 0 -27 28v286q0 47 -18.5 70.5t-61.5 23.5q-48 0 -72 -29t-24 -77v-275q0 -27 -28 -27h-108q-27 0 -27 28v651q0 27 27 27h108q28 0 28 -27v-210q47 75 160 75q179 0 179 -200z" />
    <glyph glyph-name="i" unicode="i" horiz-adv-x="289" 
d="M226 505v-477q0 -28 -27 -28h-109q-27 0 -27 28v477q0 27 27 27h109q27 0 27 -27zM227 677v-63q0 -28 -27 -28h-111q-27 0 -27 28v63q0 27 27 27h111q27 0 27 -27z" />
    <glyph glyph-name="j" unicode="j" horiz-adv-x="309" 
d="M83 57v448q0 27 27 27h108q28 0 28 -27v-464q0 -84 -36.5 -121.5t-118.5 -37.5q-49 0 -79 8q-26 6 -26 28v69q0 23 24 23q6 0 17 -2t18 -2q38 0 38 51zM247 677v-63q0 -28 -27 -28h-111q-28 0 -28 28v63q0 27 28 27h111q27 0 27 -27z" />
    <glyph glyph-name="k" unicode="k" horiz-adv-x="569" 
d="M539 0h-120q-25 0 -42 22l-152 186v-180q0 -28 -28 -28h-108q-27 0 -27 28v651q0 27 27 27h108q28 0 28 -27v-315l143 148q18 20 42 20h117q15 0 20 -11.5t-7 -23.5l-202 -205l213 -257q10 -13 6 -24t-18 -11z" />
    <glyph glyph-name="l" unicode="l" horiz-adv-x="287" 
d="M225 679v-651q0 -28 -28 -28h-108q-27 0 -27 28v651q0 27 27 27h108q28 0 28 -27z" />
    <glyph glyph-name="m" unicode="m" horiz-adv-x="917" 
d="M540 310v-282q0 -28 -27 -28h-106q-27 0 -27 28v291q0 45 -16 67.5t-53 22.5q-43 0 -66.5 -28t-23.5 -74v-279q0 -28 -28 -28h-106q-28 0 -28 28v477q0 27 28 27h97q25 0 28 -22l8 -45q52 79 157 79q111 0 148 -84q55 84 171 84q165 0 165 -196v-320q0 -28 -27 -28h-107
q-28 0 -28 28v290q0 91 -70 91q-43 0 -66 -27.5t-23 -71.5z" />
    <glyph glyph-name="n" unicode="n" horiz-adv-x="616" 
d="M559 345v-317q0 -28 -27 -28h-108q-28 0 -28 28v286q0 48 -18 71t-61 23q-47 0 -71 -28.5t-24 -77.5v-274q0 -28 -28 -28h-108q-27 0 -27 28v477q0 27 27 27h97q25 0 28 -22l8 -45q51 79 163 79q177 0 177 -199z" />
    <glyph glyph-name="o" unicode="o" horiz-adv-x="612" 
d="M306 -11q-125 0 -196.5 71t-71.5 206q0 136 71.5 207t196.5 71t197 -71t72 -207q0 -135 -72 -206t-197 -71zM306 115q103 0 103 151q0 152 -103 152q-102 0 -102 -152q0 -151 102 -151z" />
    <glyph glyph-name="p" unicode="p" horiz-adv-x="637" 
d="M221 266q0 -150 107 -150q52 0 78 35.5t26 114.5q0 80 -26 115.5t-78 35.5q-107 0 -107 -151zM211 510l5 -44q21 35 67.5 56.5t95.5 21.5q105 0 162 -70t57 -208q0 -137 -57 -207t-162 -70q-49 0 -93 18.5t-64 54.5v-144q0 -28 -27 -28h-108q-28 0 -28 28v587q0 27 28 27
h96q25 0 28 -22z" />
    <glyph glyph-name="q" unicode="q" horiz-adv-x="637" 
d="M416 266q0 151 -107 151q-52 0 -78 -35.5t-26 -115.5q0 -79 26 -114.5t78 -35.5q107 0 107 150zM421 466l5 44q3 22 28 22h96q28 0 28 -27v-587q0 -28 -28 -28h-108q-27 0 -27 28v143q-20 -35 -63.5 -53.5t-93.5 -18.5q-105 0 -162 70t-57 207q0 138 57 208t162 70
q49 0 95.5 -21.5t67.5 -56.5z" />
    <glyph glyph-name="r" unicode="r" horiz-adv-x="422" 
d="M87 532h97q25 0 28 -24l8 -68q18 39 58.5 68.5t94.5 29.5q26 0 26 -25v-110q0 -22 -24 -22q-5 0 -16.5 1t-20.5 1q-53 0 -84.5 -36t-31.5 -91v-228q0 -28 -27 -28h-108q-28 0 -28 28v477q0 27 28 27z" />
    <glyph glyph-name="s" unicode="s" horiz-adv-x="486" 
d="M453 147q0 -158 -226 -158q-100 0 -176 29q-25 10 -18 33l17 58q6 26 34 17q59 -19 115 -19q94 0 94 45q0 22 -21.5 35t-71.5 29q-82 28 -111 50q-55 41 -55 122q0 78 55.5 117t156.5 39t165 -27q25 -10 18 -34l-17 -56q-8 -26 -34 -18q-55 17 -107 17q-77 0 -77 -43
q0 -22 21.5 -35t73.5 -32q41 -15 64.5 -26t49.5 -30.5t38 -47t12 -65.5z" />
    <glyph glyph-name="t" unicode="t" horiz-adv-x="395" 
d="M340 397h-97v-219q0 -36 12.5 -49.5t47.5 -13.5q8 0 20.5 2.5t19.5 2.5q22 0 23 -25l4 -66q0 -13 -6 -18.5t-19 -9.5q-38 -10 -89 -10q-91 0 -132 38.5t-41 130.5v237h-46q-28 0 -28 27v65q0 28 28 28h48v121q0 24 28 24h100q28 0 28 -24v-121h99q27 0 27 -28v-65
q0 -27 -27 -27z" />
    <glyph glyph-name="u" unicode="u" horiz-adv-x="610" 
d="M54 181v324q0 27 28 27h108q27 0 27 -27v-292q0 -45 16.5 -68t58.5 -23q45 0 70 28t25 75v280q0 27 28 27h108q27 0 27 -27v-477q0 -28 -27 -28h-97q-25 0 -29 22l-7 46q-49 -79 -156 -79q-92 0 -136 46.5t-44 145.5z" />
    <glyph glyph-name="v" unicode="v" horiz-adv-x="564" 
d="M342 0h-120q-26 0 -35 22l-170 478q-5 14 1 23t20 9h110q26 0 33 -25l63 -210l37 -138h3l36 138l63 210q8 25 33 25h111q14 0 19.5 -9t0.5 -23l-170 -478q-9 -22 -35 -22z" />
    <glyph glyph-name="w" unicode="w" horiz-adv-x="866" 
d="M393 532h79q24 0 31 -23l69 -240l24 -105h2l21 105l58 238q6 25 33 25h111q31 0 21 -32l-140 -473q-8 -27 -35 -27h-106q-27 0 -36 27l-63 208l-27 110h-4l-27 -110l-62 -208q-9 -27 -37 -27h-106q-26 0 -34 27l-142 473q-5 14 1 23t21 9h111q27 0 33 -25l59 -238
l20 -105h2l24 105l69 240q7 23 30 23z" />
    <glyph glyph-name="x" unicode="x" horiz-adv-x="562" 
d="M194 510l88 -132l88 132q14 22 42 22h108q14 0 18 -10t-5 -24l-167 -229l173 -235q9 -13 4.5 -23.5t-18.5 -10.5h-112q-28 0 -42 22l-91 139l-93 -139q-14 -22 -43 -22h-108q-14 0 -18 10t5 24l172 235l-167 229q-10 13 -5.5 23.5t18.5 10.5h111q28 0 42 -22z" />
    <glyph glyph-name="y" unicode="y" horiz-adv-x="560" 
d="M544 500l-146 -450q-31 -97 -71 -132.5t-136 -35.5q-70 0 -107 11q-27 6 -26 28l4 66q1 23 24 23q3 0 23 -3t38 -3q34 0 45.5 16.5t0.5 42.5l-174 437q-5 14 0 23t19 9h112q27 0 34 -25l70 -218l38 -140h3l31 140l54 218q6 25 32 25h110q14 0 20 -9t2 -23z" />
    <glyph glyph-name="z" unicode="z" horiz-adv-x="529" 
d="M484 505v-57q0 -22 -15 -39l-236 -280h227q27 0 27 -27v-74q0 -28 -27 -28h-393q-27 0 -27 28v57q0 17 12 34l240 284h-216q-28 0 -28 27v75q0 27 28 27h381q27 0 27 -27z" />
    <glyph glyph-name="braceleft" unicode="{" horiz-adv-x="382" 
d="M25 262v72q0 28 27 28h15q28 0 41 32.5t13 110.5q0 119 33 160t128 41h48q28 0 28 -27v-60q0 -27 -28 -27h-16q-30 0 -39 -23.5t-9 -85.5q0 -163 -88 -185q88 -22 88 -186q0 -61 9 -84.5t39 -23.5h16q28 0 28 -27v-59q0 -28 -28 -28h-48q-95 0 -128 41t-33 160
q0 78 -13 111t-41 33h-15q-27 0 -27 27z" />
    <glyph glyph-name="bar" unicode="|" horiz-adv-x="325" 
d="M231 698v-780q0 -28 -27 -28h-83q-28 0 -28 28v780q0 28 28 28h83q27 0 27 -28z" />
    <glyph glyph-name="braceright" unicode="}" horiz-adv-x="382" 
d="M357 334v-72q0 -27 -27 -27h-15q-28 0 -40.5 -33t-12.5 -111q0 -119 -33.5 -160t-127.5 -41h-49q-28 0 -28 28v59q0 27 28 27h16q31 0 40 23.5t9 84.5q0 164 88 186q-88 22 -88 186q0 61 -9 84.5t-40 23.5h-16q-28 0 -28 27v60q0 27 28 27h49q94 0 127.5 -41t33.5 -160
q0 -78 12.5 -110.5t40.5 -32.5h15q27 0 27 -28z" />
    <glyph glyph-name="asciitilde" unicode="~" horiz-adv-x="604" 
d="M173 461q49 0 105 -25l49 -23q36 -17 59 -17q32 0 47 32l6 16q9 25 37 10l53 -26q22 -12 20 -42q-3 -55 -34.5 -91t-83.5 -36q-45 0 -105 26l-48 22q-36 17 -60 17q-32 0 -47 -31l-6 -17q-8 -23 -37 -10l-52 27q-23 12 -21 37q4 59 35 95t83 36z" />
    <glyph glyph-name="uni00A0" unicode="&#xa0;" horiz-adv-x="0" 
 />
    <glyph glyph-name="exclamdown" unicode="&#xa1;" horiz-adv-x="319" 
d="M244 505v-108q0 -27 -29 -27h-110q-30 0 -30 27v108q0 27 27 27h115q27 0 27 -27zM122 308h76q26 0 28 -26l30 -401q2 -29 -28 -29h-136q-31 0 -29 29l30 401q2 26 29 26z" />
    <glyph glyph-name="cent" unicode="&#xa2;" horiz-adv-x="545" 
d="M39 266q0 121 62 191.5t171 83.5v64q0 27 28 27h48q27 0 27 -27v-64q73 -8 117 -34q24 -14 14 -37l-29 -63q-10 -25 -39 -13q-46 18 -95 18q-66 0 -102 -36t-36 -110q0 -145 139 -145q55 0 99 20q27 12 39 -13l29 -63q9 -23 -15 -38q-41 -27 -121 -35v-64q0 -28 -27 -28
h-48q-28 0 -28 28v65q-110 13 -171.5 82.5t-61.5 190.5z" />
    <glyph glyph-name="sterling" unicode="&#xa3;" horiz-adv-x="667" 
d="M149 316h-90q-21 0 -21 21v36q0 20 21 20h51q-33 64 -33 113q0 91 67 151.5t204 60.5q129 0 191 -53t62 -143q0 -47 -26 -47h-99q-24 0 -24 20q0 5 1 12t1 13q0 29 -25.5 46t-73.5 17q-57 0 -85 -26t-28 -67q0 -35 27 -97h173q21 0 21 -20v-36q0 -21 -21 -21h-146
q15 -35 15 -66q0 -72 -80 -118q35 9 71 9q26 0 67 -7.5t64 -7.5q36 0 51 16.5t17 49.5q1 25 32 25h73q31 0 31 -35q0 -94 -33.5 -142t-119.5 -48q-46 0 -111.5 14.5t-104.5 14.5q-74 0 -125 -22q-30 -12 -39 2l-55 78q-16 23 6 36q111 62 111 138q0 29 -17 63z" />
    <glyph glyph-name="currency" unicode="&#xa4;" horiz-adv-x="621" 
d="M91 117l41 41q-39 51 -39 126q0 74 39 125l-41 41q-15 15 0 29l23 23q15 15 30 0l41 -42q53 35 125 35q73 0 126 -35l42 42q13 14 29 0l23 -23q15 -14 0 -29l-42 -42q39 -51 39 -124q0 -76 -39 -125l42 -42q15 -14 0 -29l-23 -23q-15 -14 -29 0l-42 43q-52 -36 -126 -36
q-72 0 -125 36l-41 -43q-14 -15 -30 0l-23 23q-16 14 0 29zM418 284q0 49 -29 78.5t-79 29.5t-79 -29.5t-29 -78.5q0 -50 29.5 -79.5t78.5 -29.5q50 0 79 29.5t29 79.5z" />
    <glyph glyph-name="yen" unicode="&#xa5;" horiz-adv-x="656" 
d="M414 161v-132q0 -29 -29 -29h-114q-29 0 -29 29v132h-155q-21 0 -21 21v35q0 20 21 20h155v17l-30 55h-125q-21 0 -21 21v35q0 20 21 20h87l-154 285q-8 14 -2 25t21 11h119q27 0 39 -27l130 -282h3l129 282q11 27 39 27h119q15 0 21 -11t-2 -25l-154 -285h87
q21 0 21 -20v-35q0 -21 -21 -21h-125l-30 -55v-17h155q21 0 21 -20v-35q0 -21 -21 -21h-155z" />
    <glyph glyph-name="brokenbar" unicode="&#xa6;" horiz-adv-x="325" 
d="M231 698v-280q0 -28 -27 -28h-83q-28 0 -28 28v280q0 28 28 28h83q27 0 27 -28zM231 198v-280q0 -28 -27 -28h-83q-28 0 -28 28v280q0 28 28 28h83q27 0 27 -28z" />
    <glyph glyph-name="section" unicode="&#xa7;" horiz-adv-x="672" 
d="M57 317q-1 42 27 76.5t77 46.5q-35 26 -53 53.5t-18 66.5q0 81 60 119t186 38q119 0 199 -28q25 -10 20 -35l-13 -59q-6 -26 -35 -18q-66 17 -143 17q-61 0 -86.5 -12.5t-25.5 -37.5q0 -13 7.5 -23t30.5 -21t38 -17t56 -20q117 -40 171.5 -79t54.5 -109q0 -77 -105 -116
q79 -46 79 -118q0 -79 -74.5 -120t-209.5 -41q-124 0 -195 28q-25 10 -19 35l12 59q6 26 35 18q61 -17 157 -17q132 0 132 50q0 9 -4 16.5t-12.5 14t-16.5 12t-22.5 11t-25 9.5t-28 10t-27.5 9q-128 45 -164 68q-65 41 -65 114zM272 377q-56 -13 -56 -54q0 -34 58 -59
q27 -12 119 -43q57 14 59 51q0 31 -40 52t-140 53z" />
    <glyph glyph-name="dieresis" unicode="&#xa8;" horiz-adv-x="365" 
d="M147 681v-61q0 -27 -27 -27h-83q-28 0 -28 27v61q0 27 28 27h83q27 0 27 -27zM356 681v-61q0 -27 -28 -27h-83q-27 0 -27 27v61q0 27 27 27h83q28 0 28 -27z" />
    <glyph glyph-name="copyright" unicode="&#xa9;" horiz-adv-x="875" 
d="M467 252q39 0 73 16q22 9 30 -10l21 -53q7 -17 -10 -27q-20 -13 -57 -22t-72 -9q-99 0 -158 53.5t-59 156.5q0 104 58.5 157.5t157.5 53.5q79 0 127 -29q18 -10 10 -28l-22 -53q-8 -19 -29 -10q-30 14 -70 14q-46 0 -72.5 -26t-26.5 -79q0 -52 26.5 -78.5t72.5 -26.5z
M138 353q0 -126 77.5 -207.5t221.5 -81.5t222 81.5t78 206.5q0 127 -78 209t-222 82t-221.5 -82t-77.5 -208zM58 353q0 155 100.5 260t278.5 105q179 0 280 -105t101 -260t-101 -259.5t-280 -104.5q-178 0 -278.5 104.5t-100.5 259.5z" />
    <glyph glyph-name="ordfeminine" unicode="&#xaa;" horiz-adv-x="478" 
d="M300 648v31q-74 0 -109 -13.5t-35 -47.5q0 -46 55 -46q44 0 66.5 21t22.5 55zM309 511l-4 24q-43 -51 -139 -51q-64 0 -102.5 32.5t-38.5 92.5q0 37 14 63t36 41t60.5 23.5t74.5 11.5t90 4v18q0 29 -17.5 42.5t-58.5 13.5q-52 0 -119 -25q-25 -9 -33 15l-17 50
q-6 20 16 29q75 33 167 33q194 0 194 -152v-260q0 -26 -26 -26h-70q-23 0 -27 21z" />
    <glyph glyph-name="guillemotleft" unicode="&#xab;" horiz-adv-x="529" 
d="M30 290q0 5 4 13l82 140q11 19 33 19h91q14 0 18.5 -8.5t-2.5 -19.5l-85 -144l85 -144q7 -11 2.5 -19.5t-18.5 -8.5h-91q-23 0 -33 19l-82 140q-4 8 -4 13zM255 289q0 6 4 14l82 140q11 19 33 19h91q14 0 18 -8.5t-3 -19.5l-85 -144l85 -144q7 -12 3 -20t-18 -8h-91
q-23 0 -33 19l-82 140q-4 7 -4 12z" />
    <glyph glyph-name="logicalnot" unicode="&#xac;" horiz-adv-x="630" 
d="M559 389v-250q0 -28 -28 -28h-107q-28 0 -28 28v144h-316q-28 0 -28 28v78q0 27 28 27h451q28 0 28 -27z" />
    <glyph glyph-name="uni00AD" unicode="&#xad;" horiz-adv-x="402" 
d="M335 214h-269q-27 0 -27 27v75q0 27 28 27h268q28 0 28 -26v-76q0 -27 -28 -27z" />
    <glyph glyph-name="registered" unicode="&#xae;" horiz-adv-x="474" 
d="M218 548h22q20 0 28 5.5t8 19.5q0 25 -35 25h-23v-50zM237 718q87 0 134 -51t47 -126t-47 -126t-134 -51t-134.5 51t-47.5 126t47.5 126t134.5 51zM237 402q70 0 105 38.5t35 100.5t-35 100.5t-105 38.5q-71 0 -106 -38.5t-35 -100.5t35 -100.5t106 -38.5zM162 456v174
q0 12 12 12h70q88 0 88 -69q0 -45 -42 -59l39 -57q3 -5 1 -8.5t-7 -3.5h-36q-10 0 -15 8l-33 53h-21v-50q0 -11 -11 -11h-33q-12 0 -12 11z" />
    <glyph glyph-name="macron" unicode="&#xaf;" horiz-adv-x="365" 
d="M335 598h-305q-26 0 -26 26v39q0 26 26 26h305q26 0 26 -26v-39q0 -26 -26 -26z" />
    <glyph glyph-name="degree" unicode="&#xb0;" horiz-adv-x="385" 
d="M193 490q33 0 55 21t22 54t-22 54.5t-55 21.5q-34 0 -55.5 -21t-21.5 -55t21.5 -54.5t55.5 -20.5zM193 416q-69 0 -113.5 41.5t-44.5 107.5t44.5 107.5t113.5 41.5t113.5 -41t44.5 -107t-44.5 -108t-113.5 -42z" />
    <glyph glyph-name="plusminus" unicode="&#xb1;" horiz-adv-x="604" 
d="M523 335h-148v-137q0 -27 -27 -27h-92q-28 0 -28 27v137h-147q-27 0 -27 27v75q0 27 27 27h147v136q0 27 28 27h92q27 0 27 -27v-136h148q28 0 28 -27v-75q0 -27 -28 -27zM523 0h-442q-27 0 -27 27v47q0 27 27 27h442q28 0 28 -27v-47q0 -27 -28 -27z" />
    <glyph glyph-name="two.superior" unicode="&#xb2;" 
d="M152 792q0 -4 0.5 -11.5t0.5 -13.5q0 -21 -24 -21h-59q-22 0 -25 20q-3 14 -3 31q0 59 41.5 95t126.5 36q87 0 128.5 -37.5t41.5 -97.5q0 -62 -49.5 -115.5t-114.5 -91.5h149q27 0 27 -26v-43q0 -27 -27 -27h-296q-26 0 -26 27v39q0 13 18 25q197 117 197 204
q0 48 -54 48q-52 0 -52 -41z" />
    <glyph glyph-name="three.superior" unicode="&#xb3;" 
d="M202 664h-52q-26 0 -26 26v33q0 26 26 26h50q53 0 53 42q0 40 -65 40q-47 0 -93 -19q-25 -11 -34 12l-17 44q-7 18 14 29q60 28 148 28q74 0 120.5 -29t46.5 -88q0 -66 -57 -92q65 -28 65 -99q0 -66 -44.5 -101t-125.5 -35q-92 0 -154 30q-23 11 -16 29l17 43
q10 25 35 14q48 -21 102 -21q64 0 64 46q0 42 -57 42z" />
    <glyph glyph-name="acute" unicode="&#xb4;" horiz-adv-x="365" 
d="M107 615l40 87q8 19 30 19h118q13 0 15.5 -10.5t-6.5 -18.5l-85 -85q-14 -14 -35 -14h-61q-11 0 -15.5 6.5t-0.5 15.5z" />
    <glyph glyph-name="mu" unicode="&#xb5;" horiz-adv-x="611" 
d="M555 505v-324q0 -99 -43.5 -146t-135.5 -47q-109 0 -156 79l2 -151q0 -26 -28 -26h-107q-28 0 -28 28v587q0 27 28 27h108q27 0 27 -27v-281q0 -47 25 -74.5t70 -27.5q42 0 58.5 22.5t16.5 67.5v293q0 27 28 27h108q27 0 27 -27z" />
    <glyph glyph-name="paragraph" unicode="&#xb6;" horiz-adv-x="562" 
d="M512 623h-34q-29 0 -40 -11.5t-11 -40.5v-557q0 -67 -26.5 -98t-93.5 -31q-49 0 -74 14q-14 6 -14 21v38q0 14 20 14q6 0 20 -2t22 -2q41 0 41 58v232h-31q-109 0 -177.5 57.5t-68.5 166.5q0 110 67 167t177 57h223q28 0 28 -27v-29q0 -27 -28 -27z" />
    <glyph glyph-name="periodcentered" unicode="&#xb7;" horiz-adv-x="260" 
d="M49 225v106q0 27 30 27h103q29 0 29 -27v-106q0 -28 -27 -28h-108q-27 0 -27 28z" />
    <glyph glyph-name="cedilla" unicode="&#xb8;" horiz-adv-x="365" 
d="M138 9h52q50 -9 86.5 -37t36.5 -66q0 -39 -29.5 -60.5t-85.5 -21.5q-33 0 -54 7q-15 3 -15 17v37q0 16 17 16h31q46 0 46 31q0 46 -85 77z" />
    <glyph glyph-name="one.superior" unicode="&#xb9;" 
d="M186 797l-61 -33q-23 -12 -34 6l-26 40q-11 16 5 28l109 74q14 10 34 10h68q26 0 26 -27v-378q0 -27 -26 -27h-68q-27 0 -27 27v280z" />
    <glyph glyph-name="ordmasculine" unicode="&#xba;" horiz-adv-x="494" 
d="M247 822q-81 0 -81 -116t81 -116t81 116t-81 116zM247 484q-102 0 -160 56.5t-58 165.5t58 165.5t160 56.5t160 -56.5t58 -165.5t-58 -165.5t-160 -56.5z" />
    <glyph glyph-name="guillemotright" unicode="&#xbb;" horiz-adv-x="529" 
d="M499 290q0 -5 -4 -13l-82 -140q-12 -19 -34 -19h-91q-13 0 -17.5 8t2.5 20l85 144l-85 144q-7 11 -2.5 19.5t17.5 8.5h91q23 0 34 -19l82 -140q4 -8 4 -13zM274 290q0 -5 -4 -13l-82 -140q-12 -19 -33 -19h-91q-14 0 -18.5 8t2.5 20l86 144l-86 144q-7 11 -2 19.5t18 8.5
h91q22 0 33 -19l82 -140q4 -8 4 -13z" />
    <glyph glyph-name="onequarter" unicode="&#xbc;" horiz-adv-x="1013" 
d="M773 679l-388 -652q-15 -27 -40 -27h-65q-31 0 -15 28l388 652q15 26 40 26h65q14 0 18.5 -7t-3.5 -20zM186 581l-61 -33q-23 -12 -34 6l-26 40q-11 16 5 28l109 74q14 10 34 10h68q26 0 26 -27v-378q0 -27 -26 -27h-68q-27 0 -27 27v280zM814 308l-109 -128h109v128z
M968 85h-34v-59q0 -27 -27 -27h-67q-26 0 -26 27v59h-187q-27 0 -27 23v48q0 13 10 26l199 235q12 14 29 14h69q27 0 27 -27v-224h34q27 0 27 -26v-43q0 -26 -27 -26z" />
    <glyph glyph-name="onehalf" unicode="&#xbd;" horiz-adv-x="1013" 
d="M740 679l-388 -652q-15 -27 -40 -27h-65q-31 0 -15 28l388 652q15 26 40 26h65q31 0 15 -27zM186 582l-61 -33q-23 -12 -34 6l-26 40q-11 16 5 28l109 74q14 10 34 10h68q26 0 26 -27v-378q0 -27 -26 -27h-68q-27 0 -27 27v280zM738 301q0 41 52 41q54 0 54 -48
q0 -87 -197 -204q-18 -12 -18 -25v-39q0 -27 26 -27h296q27 0 27 27v43q0 26 -27 26h-149q65 38 114.5 91.5t49.5 115.5q0 60 -41.5 97.5t-128.5 37.5q-85 0 -126.5 -36t-41.5 -95q0 -17 3 -31q3 -20 25 -20h59q24 0 24 21q0 6 -0.5 13.5t-0.5 11.5z" />
    <glyph glyph-name="threequarters" unicode="&#xbe;" horiz-adv-x="1013" 
d="M788 679l-388 -652q-15 -27 -40 -27h-65q-31 0 -15 28l388 652q15 26 40 26h65q31 0 15 -27zM814 308l-109 -128h109v128zM968 85h-34v-59q0 -27 -27 -27h-67q-26 0 -26 27v59h-187q-27 0 -27 23v48q0 13 10 26l199 235q12 14 29 14h69q27 0 27 -27v-224h34q27 0 27 -26
v-43q0 -26 -27 -26zM202 451h-52q-26 0 -26 26v33q0 26 26 26h50q53 0 53 42q0 40 -65 40q-47 0 -93 -19q-25 -11 -34 12l-17 44q-7 18 14 29q60 28 148 28q74 0 120.5 -29t46.5 -88q0 -66 -57 -92q65 -28 65 -99q0 -66 -44.5 -101t-125.5 -35q-92 0 -154 30
q-13 6 -16.5 11.5t0.5 17.5l17 43q10 25 35 14q48 -21 102 -21q64 0 64 46q0 42 -57 42z" />
    <glyph glyph-name="questiondown" unicode="&#xbf;" horiz-adv-x="508" 
d="M360 505v-109q0 -26 -30 -26h-110q-29 0 -29 27v108q0 27 27 27h114q28 0 28 -27zM196 281v-13q0 -19 -16.5 -38t-40 -38.5t-46.5 -42.5t-39.5 -60t-16.5 -81q0 -165 236 -165q120 0 207 42q26 11 16 36l-28 72q-10 26 -38 15q-65 -28 -133 -28q-54 0 -74 14t-20 45
q0 28 15 54.5t36.5 47.5t42.5 40.5t36 42t15 44.5v13q0 27 -28 27h-95q-29 0 -29 -27z" />
    <glyph glyph-name="Agrave" unicode="&#xc0;" horiz-adv-x="693" 
d="M262 278h167l-81 259h-2zM276 706h141q26 0 35 -27l223 -645q5 -15 -1.5 -24.5t-20.5 -9.5h-119q-26 0 -35 27l-37 108h-232l-36 -108q-9 -27 -34 -27h-120q-14 0 -20.5 9.5t-1.5 24.5l223 645q9 27 35 27zM356 866l40 -87q4 -9 -0.5 -15.5t-16.5 -6.5h-61q-21 0 -35 14
l-87 85q-9 8 -6 19t16 11h119q22 0 31 -20z" />
    <glyph glyph-name="Aacute" unicode="&#xc1;" horiz-adv-x="693" 
d="M262 278h167l-81 259h-2zM276 706h141q26 0 35 -27l223 -645q5 -15 -1.5 -24.5t-20.5 -9.5h-119q-26 0 -35 27l-37 108h-232l-36 -108q-9 -27 -34 -27h-120q-14 0 -20.5 9.5t-1.5 24.5l223 645q9 27 35 27zM297 779l40 87q9 20 31 20h119q13 0 15.5 -11t-6.5 -19l-86 -85
q-16 -14 -35 -14h-61q-12 0 -16.5 6.5t-0.5 15.5z" />
    <glyph glyph-name="Acircumflex" unicode="&#xc2;" horiz-adv-x="693" 
d="M262 278h167l-81 259h-2zM276 706h141q26 0 35 -27l223 -645q5 -15 -1.5 -24.5t-20.5 -9.5h-119q-26 0 -35 27l-37 108h-232l-36 -108q-9 -27 -34 -27h-120q-14 0 -20.5 9.5t-1.5 24.5l223 645q9 27 35 27zM414 770l-67 53l-68 -53q-17 -13 -31 -13h-50q-13 0 -16.5 9
t4.5 17l92 99q16 17 38 17h61q22 0 38 -17l92 -99q8 -8 4.5 -17t-16.5 -9h-50q-16 0 -31 13z" />
    <glyph glyph-name="Atilde" unicode="&#xc3;" horiz-adv-x="693" 
d="M262 278h167l-81 259h-2zM276 706h141q26 0 35 -27l223 -645q5 -15 -1.5 -24.5t-20.5 -9.5h-119q-26 0 -35 27l-37 108h-232l-36 -108q-9 -27 -34 -27h-120q-14 0 -20.5 9.5t-1.5 24.5l223 645q9 27 35 27zM534 841q0 -41 -21.5 -64.5t-62.5 -23.5q-43 0 -85 16l-43 16
q-33 12 -52 12q-23 0 -24 -16l-1 -7q-3 -18 -25 -18h-35q-14 0 -20 7t-6 26q0 43 22 67.5t65 24.5q38 0 82 -17l44 -16q33 -12 50 -12q22 0 25 17l1 7q3 19 25 19h35q26 0 26 -38z" />
    <glyph glyph-name="Adieresis" unicode="&#xc4;" horiz-adv-x="693" 
d="M262 278h167l-81 259h-2zM276 706h141q26 0 35 -27l223 -645q5 -15 -1.5 -24.5t-20.5 -9.5h-119q-26 0 -35 27l-37 108h-232l-36 -108q-9 -27 -34 -27h-120q-14 0 -20.5 9.5t-1.5 24.5l223 645q9 27 35 27zM311 843v-59q0 -27 -28 -27h-86q-27 0 -27 27v59q0 28 27 28h86
q28 0 28 -28zM523 843v-59q0 -27 -28 -27h-85q-28 0 -28 27v59q0 28 28 28h85q28 0 28 -28z" />
    <glyph glyph-name="Aring" unicode="&#xc5;" horiz-adv-x="693" 
d="M225 757q0 50 34.5 81t87.5 31q52 0 86.5 -31t34.5 -81q0 -37 -21 -66l5 -12l223 -645q5 -15 -1.5 -24.5t-20.5 -9.5h-119q-26 0 -35 27l-37 108h-232l-36 -108q-9 -27 -34 -27h-120q-14 0 -20.5 9.5t-1.5 24.5l223 645q1 4 5 12q-21 27 -21 66zM262 278h167l-81 259h-2z
M292 757q0 -22 14 -35.5t36 -15.5h9q22 2 36 15.5t14 35.5q0 23 -15 37t-39 14t-39.5 -14t-15.5 -37z" />
    <glyph glyph-name="AE" unicode="&#xc6;" horiz-adv-x="902" 
d="M814 290h-227v-145h246q29 0 29 -29v-87q0 -29 -29 -29h-385q-30 0 -30 29v103h-188l-45 -105q-11 -27 -36 -27h-121q-15 0 -21 10t0 24l275 645q10 27 37 27h509q29 0 29 -29v-87q0 -29 -29 -29h-241v-133h227q28 0 28 -29v-80q0 -29 -28 -29zM270 274h148v288h-28z" />
    <glyph glyph-name="Ccedilla" unicode="&#xc7;" horiz-adv-x="625" 
d="M402 138q57 0 113 26q28 13 40 -15l34 -73q10 -21 -16 -38q-74 -48 -195 -49q66 -35 66 -88q0 -42 -30.5 -64.5t-89.5 -22.5q-37 0 -56 7q-16 5 -16 18v39q0 17 18 17h33q46 0 46 33q0 38 -56 68q-120 22 -185.5 111t-65.5 246q0 182 86 273.5t241 91.5q120 0 196 -49
q26 -17 16 -38l-33 -72q-11 -26 -40 -14q-50 23 -111 23q-93 0 -136.5 -51.5t-43.5 -163.5t44.5 -163.5t140.5 -51.5z" />
    <glyph glyph-name="Egrave" unicode="&#xc8;" horiz-adv-x="572" 
d="M484 290h-250v-146h268q30 0 30 -29v-85q0 -30 -30 -30h-408q-29 0 -29 29v648q0 29 29 29h404q29 0 29 -29v-86q0 -30 -29 -30h-264v-133h250q28 0 28 -29v-80q0 -29 -28 -29zM331 866l40 -87q4 -9 -0.5 -15.5t-16.5 -6.5h-61q-21 0 -35 14l-87 85q-9 8 -6 19t16 11h119
q22 0 31 -20z" />
    <glyph glyph-name="Eacute" unicode="&#xc9;" horiz-adv-x="572" 
d="M484 290h-250v-146h268q30 0 30 -29v-85q0 -30 -30 -30h-408q-29 0 -29 29v648q0 29 29 29h404q29 0 29 -29v-86q0 -30 -29 -30h-264v-133h250q28 0 28 -29v-80q0 -29 -28 -29zM237 779l40 87q9 20 31 20h119q13 0 15.5 -11t-6.5 -19l-86 -85q-16 -14 -35 -14h-61
q-12 0 -16.5 6.5t-0.5 15.5z" />
    <glyph glyph-name="Ecircumflex" unicode="&#xca;" horiz-adv-x="572" 
d="M484 290h-250v-146h268q30 0 30 -29v-85q0 -30 -30 -30h-408q-29 0 -29 29v648q0 29 29 29h404q29 0 29 -29v-86q0 -30 -29 -30h-264v-133h250q28 0 28 -29v-80q0 -29 -28 -29zM367 770l-67 53l-68 -53q-17 -13 -31 -13h-50q-13 0 -16.5 9t4.5 17l92 99q16 17 38 17h61
q22 0 38 -17l92 -99q8 -8 4.5 -17t-16.5 -9h-50q-16 0 -31 13z" />
    <glyph glyph-name="Edieresis" unicode="&#xcb;" horiz-adv-x="572" 
d="M484 290h-250v-146h268q30 0 30 -29v-85q0 -30 -30 -30h-408q-29 0 -29 29v648q0 29 29 29h404q29 0 29 -29v-86q0 -30 -29 -30h-264v-133h250q28 0 28 -29v-80q0 -29 -28 -29zM264 843v-59q0 -27 -28 -27h-86q-27 0 -27 27v59q0 28 27 28h86q28 0 28 -28zM476 843v-59
q0 -27 -28 -27h-85q-28 0 -28 27v59q0 28 28 28h85q28 0 28 -28z" />
    <glyph glyph-name="Igrave" unicode="&#xcc;" horiz-adv-x="312" 
d="M70 29v648q0 29 29 29h113q30 0 30 -29v-648q0 -29 -30 -29h-113q-29 0 -29 29zM174 866l40 -87q4 -9 -0.5 -15.5t-16.5 -6.5h-61q-21 0 -35 14l-87 85q-9 8 -6 19t16 11h119q22 0 31 -20z" />
    <glyph glyph-name="Iacute" unicode="&#xcd;" horiz-adv-x="312" 
d="M70 29v648q0 29 29 29h113q30 0 30 -29v-648q0 -29 -30 -29h-113q-29 0 -29 29zM104 779l40 87q9 20 31 20h119q13 0 15.5 -11t-6.5 -19l-86 -85q-16 -14 -35 -14h-61q-12 0 -16.5 6.5t-0.5 15.5z" />
    <glyph glyph-name="Icircumflex" unicode="&#xce;" horiz-adv-x="312" 
d="M70 29v648q0 29 29 29h113q30 0 30 -29v-648q0 -29 -30 -29h-113q-29 0 -29 29zM223 770l-67 53l-68 -53q-17 -13 -31 -13h-50q-13 0 -16.5 9t4.5 17l92 99q16 17 38 17h61q22 0 38 -17l92 -99q8 -8 4.5 -17t-16.5 -9h-50q-16 0 -31 13z" />
    <glyph glyph-name="Idieresis" unicode="&#xcf;" horiz-adv-x="312" 
d="M70 29v648q0 29 29 29h113q30 0 30 -29v-648q0 -29 -30 -29h-113q-29 0 -29 29zM120 843v-59q0 -27 -28 -27h-86q-27 0 -27 27v59q0 28 27 28h86q28 0 28 -28zM332 843v-59q0 -27 -28 -27h-85q-28 0 -28 27v59q0 28 28 28h85q28 0 28 -28z" />
    <glyph glyph-name="Eth" unicode="&#xd0;" horiz-adv-x="691" 
d="M302 0h-206q-29 0 -29 29v281h-38q-21 0 -21 20v47q0 21 21 21h38v279q0 29 29 29h205q176 0 262 -83t86 -270t-86 -270t-261 -83zM343 310h-104v-160h56q94 0 137.5 43.5t43.5 159.5t-43.5 159.5t-138.5 43.5h-55v-158h104q20 0 20 -21v-47q0 -20 -20 -20z" />
    <glyph glyph-name="Ntilde" unicode="&#xd1;" horiz-adv-x="709" 
d="M644 677v-648q0 -29 -30 -29h-109q-25 0 -36 19l-238 399v-389q0 -29 -29 -29h-108q-29 0 -29 29v648q0 29 29 29h109q26 0 37 -19l238 -399v389q0 29 29 29h107q30 0 30 -29zM542 841q0 -41 -21.5 -64.5t-62.5 -23.5q-43 0 -85 16l-43 16q-33 12 -52 12q-23 0 -24 -16
l-1 -7q-3 -18 -25 -18h-35q-14 0 -20 7t-6 26q0 43 22 67.5t65 24.5q38 0 82 -17l44 -16q33 -12 50 -12q22 0 25 17l1 7q3 19 25 19h35q26 0 26 -38z" />
    <glyph glyph-name="Ograve" unicode="&#xd2;" horiz-adv-x="719" 
d="M359 718q152 0 235 -91t83 -274t-83 -273.5t-235 -90.5q-151 0 -234 90.5t-83 273.5t83 274t234 91zM359 137q73 0 108.5 52.5t35.5 163.5q0 217 -144 217q-143 0 -143 -217q0 -216 143 -216zM375 866l40 -87q4 -9 -0.5 -15.5t-16.5 -6.5h-61q-21 0 -35 14l-87 85
q-9 8 -6 19t16 11h119q22 0 31 -20z" />
    <glyph glyph-name="Oacute" unicode="&#xd3;" horiz-adv-x="719" 
d="M359 718q152 0 235 -91t83 -274t-83 -273.5t-235 -90.5q-151 0 -234 90.5t-83 273.5t83 274t234 91zM359 137q73 0 108.5 52.5t35.5 163.5q0 217 -144 217q-143 0 -143 -217q0 -216 143 -216zM307 779l40 87q9 20 31 20h119q13 0 15.5 -11t-6.5 -19l-86 -85
q-16 -14 -35 -14h-61q-12 0 -16.5 6.5t-0.5 15.5z" />
    <glyph glyph-name="Ocircumflex" unicode="&#xd4;" horiz-adv-x="719" 
d="M359 718q152 0 235 -91t83 -274t-83 -273.5t-235 -90.5q-151 0 -234 90.5t-83 273.5t83 274t234 91zM359 137q73 0 108.5 52.5t35.5 163.5q0 217 -144 217q-143 0 -143 -217q0 -216 143 -216zM427 770l-67 53l-68 -53q-17 -13 -31 -13h-50q-13 0 -16.5 9t4.5 17l92 99
q16 17 38 17h61q22 0 38 -17l92 -99q8 -8 4.5 -17t-16.5 -9h-50q-16 0 -31 13z" />
    <glyph glyph-name="Otilde" unicode="&#xd5;" horiz-adv-x="719" 
d="M359 718q152 0 235 -91t83 -274t-83 -273.5t-235 -90.5q-151 0 -234 90.5t-83 273.5t83 274t234 91zM359 137q73 0 108.5 52.5t35.5 163.5q0 217 -144 217q-143 0 -143 -217q0 -216 143 -216zM547 841q0 -41 -21.5 -64.5t-62.5 -23.5q-43 0 -85 16l-43 16q-33 12 -52 12
q-23 0 -24 -16l-1 -7q-3 -18 -25 -18h-35q-14 0 -20 7t-6 26q0 43 22 67.5t65 24.5q38 0 82 -17l44 -16q33 -12 50 -12q22 0 25 17l1 7q3 19 25 19h35q26 0 26 -38z" />
    <glyph glyph-name="Odieresis" unicode="&#xd6;" horiz-adv-x="719" 
d="M359 718q152 0 235 -91t83 -274t-83 -273.5t-235 -90.5q-151 0 -234 90.5t-83 273.5t83 274t234 91zM359 137q73 0 108.5 52.5t35.5 163.5q0 217 -144 217q-143 0 -143 -217q0 -216 143 -216zM324 843v-59q0 -27 -28 -27h-86q-27 0 -27 27v59q0 28 27 28h86q28 0 28 -28z
M536 843v-59q0 -27 -28 -27h-85q-28 0 -28 27v59q0 28 28 28h85q28 0 28 -28z" />
    <glyph glyph-name="multiply" unicode="&#xd7;" horiz-adv-x="604" 
d="M428 122l-126 126l-126 -126q-19 -20 -39 0l-59 60q-19 20 -1 38l127 127l-127 125q-19 18 0 39l60 60q21 20 40 0l125 -126l126 126q19 19 38 0l61 -60q18 -20 -1 -39l-126 -125l126 -127q18 -20 0 -38l-60 -60q-18 -20 -38 0z" />
    <glyph glyph-name="Oslash" unicode="&#xd8;" horiz-adv-x="722" 
d="M361 718q108 0 184 -54l30 35q17 21 38 6l33 -24q22 -16 5 -39l-36 -45q63 -91 63 -244q0 -183 -83 -273.5t-234 -90.5q-113 0 -186 53l-31 -36q-17 -22 -38 -5l-33 25q-20 16 -5 37l37 46q-62 91 -62 244q0 182 83.5 273.5t234.5 91.5zM361 137q143 0 143 216
q0 48 -10 88l-224 -272q36 -32 91 -32zM218 353q0 -53 10 -87l222 271q-36 33 -89 33q-143 0 -143 -217z" />
    <glyph glyph-name="Ugrave" unicode="&#xd9;" horiz-adv-x="692" 
d="M346 -11q-285 0 -285 271v417q0 29 29 29h113q30 0 30 -29v-402q0 -68 26.5 -101t86.5 -33t87 33t27 101v402q0 29 29 29h113q29 0 29 -29v-417q0 -271 -285 -271zM372 866l40 -87q4 -9 -0.5 -15.5t-16.5 -6.5h-61q-21 0 -35 14l-87 85q-9 8 -6 19t16 11h119q22 0 31 -20
z" />
    <glyph glyph-name="Uacute" unicode="&#xda;" horiz-adv-x="692" 
d="M346 -11q-285 0 -285 271v417q0 29 29 29h113q30 0 30 -29v-402q0 -68 26.5 -101t86.5 -33t87 33t27 101v402q0 29 29 29h113q29 0 29 -29v-417q0 -271 -285 -271zM280 779l40 87q9 20 31 20h119q13 0 15.5 -11t-6.5 -19l-86 -85q-16 -14 -35 -14h-61q-12 0 -16.5 6.5
t-0.5 15.5z" />
    <glyph glyph-name="Ucircumflex" unicode="&#xdb;" horiz-adv-x="692" 
d="M346 -11q-285 0 -285 271v417q0 29 29 29h113q30 0 30 -29v-402q0 -68 26.5 -101t86.5 -33t87 33t27 101v402q0 29 29 29h113q29 0 29 -29v-417q0 -271 -285 -271zM413 770l-67 53l-68 -53q-17 -13 -31 -13h-50q-13 0 -16.5 9t4.5 17l92 99q16 17 38 17h61q22 0 38 -17
l92 -99q8 -8 4.5 -17t-16.5 -9h-50q-16 0 -31 13z" />
    <glyph glyph-name="Udieresis" unicode="&#xdc;" horiz-adv-x="692" 
d="M346 -11q-285 0 -285 271v417q0 29 29 29h113q30 0 30 -29v-402q0 -68 26.5 -101t86.5 -33t87 33t27 101v402q0 29 29 29h113q29 0 29 -29v-417q0 -271 -285 -271zM310 843v-59q0 -27 -28 -27h-86q-27 0 -27 27v59q0 28 27 28h86q28 0 28 -28zM522 843v-59q0 -27 -28 -27
h-85q-28 0 -28 27v59q0 28 28 28h85q28 0 28 -28z" />
    <glyph glyph-name="Yacute" unicode="&#xdd;" horiz-adv-x="676" 
d="M424 260v-231q0 -29 -29 -29h-114q-29 0 -29 29v231l-228 410q-8 13 -2 24.5t21 11.5h119q26 0 39 -27l95 -190l41 -94h2l41 94l95 190q13 27 39 27h119q15 0 21 -11.5t-2 -24.5zM286 779l40 87q9 20 31 20h119q13 0 15.5 -11t-6.5 -19l-86 -85q-16 -14 -35 -14h-61
q-12 0 -16.5 6.5t-0.5 15.5z" />
    <glyph glyph-name="Thorn" unicode="&#xde;" horiz-adv-x="656" 
d="M206 0h-112q-29 0 -29 29v648q0 29 29 29h112q29 0 29 -29v-53h87q148 0 219.5 -57t71.5 -190t-71.5 -190t-219.5 -57h-87v-101q0 -29 -29 -29zM235 271h85q66 0 95 24t29 82t-29 81.5t-95 23.5h-85v-211z" />
    <glyph glyph-name="germandbls" unicode="&#xdf;" horiz-adv-x="666" 
d="M318 598q-102 0 -102 -105v-468q0 -25 -27 -25h-99q-28 0 -28 25v481q0 212 270 212q112 0 176 -43.5t64 -118.5q0 -30 -11.5 -55t-28 -40.5t-33 -27.5t-28 -22.5t-11.5 -20.5t17.5 -21.5t42 -27t49 -36t42 -57t17.5 -83.5q0 -174 -201 -174q-22 0 -33 1q-99 2 -99 31v63
q0 25 27 25q6 0 17.5 -1t16.5 -1q112 0 112 81q0 32 -25.5 60t-56.5 45.5t-56.5 42.5t-25.5 50q0 18 17 37t37.5 32t37.5 32.5t17 39.5q0 30 -23 49.5t-72 19.5z" />
    <glyph glyph-name="agrave" unicode="&#xe0;" horiz-adv-x="586" 
d="M529 354v-326q0 -28 -27 -28h-91q-24 0 -28 22l-6 44q-54 -74 -176 -74q-77 0 -123.5 40t-46.5 116q0 44 16.5 76t43.5 51t73 30t92.5 15.5t114.5 5.5v19q0 75 -103 75q-69 0 -144 -28q-26 -11 -34 17l-20 62q-8 23 16 34q90 39 206 39q237 0 237 -190zM371 197v42
q-97 -2 -141 -18.5t-44 -61.5q0 -28 20 -45t55 -17q55 0 82.5 27.5t27.5 72.5zM318 702l40 -87q7 -22 -17 -22h-61q-21 0 -35 14l-86 85q-9 8 -6 18.5t16 10.5h118q23 0 31 -19z" />
    <glyph glyph-name="aacute" unicode="&#xe1;" horiz-adv-x="586" 
d="M529 354v-326q0 -28 -27 -28h-91q-24 0 -28 22l-6 44q-54 -74 -176 -74q-77 0 -123.5 40t-46.5 116q0 44 16.5 76t43.5 51t73 30t92.5 15.5t114.5 5.5v19q0 75 -103 75q-69 0 -144 -28q-26 -11 -34 17l-20 62q-8 23 16 34q90 39 206 39q237 0 237 -190zM371 197v42
q-97 -2 -141 -18.5t-44 -61.5q0 -28 20 -45t55 -17q55 0 82.5 27.5t27.5 72.5zM227 615l40 87q8 19 30 19h118q13 0 15.5 -10.5t-6.5 -18.5l-85 -85q-14 -14 -35 -14h-61q-11 0 -15.5 6.5t-0.5 15.5z" />
    <glyph glyph-name="acircumflex" unicode="&#xe2;" horiz-adv-x="586" 
d="M529 354v-326q0 -28 -27 -28h-91q-24 0 -28 22l-6 44q-54 -74 -176 -74q-77 0 -123.5 40t-46.5 116q0 44 16.5 76t43.5 51t73 30t92.5 15.5t114.5 5.5v19q0 75 -103 75q-69 0 -144 -28q-26 -11 -34 17l-20 62q-8 23 16 34q90 39 206 39q237 0 237 -190zM371 197v42
q-97 -2 -141 -18.5t-44 -61.5q0 -28 20 -45t55 -17q55 0 82.5 27.5t27.5 72.5zM359 606l-66 54l-68 -54q-17 -13 -30 -13h-50q-12 0 -15.5 9t3.5 17l91 100q14 17 38 17h61q24 0 38 -17l91 -100q7 -8 3.5 -17t-15.5 -9h-50q-16 0 -31 13z" />
    <glyph glyph-name="atilde" unicode="&#xe3;" horiz-adv-x="586" 
d="M529 354v-326q0 -28 -27 -28h-91q-24 0 -28 22l-6 44q-54 -74 -176 -74q-77 0 -123.5 40t-46.5 116q0 44 16.5 76t43.5 51t73 30t92.5 15.5t114.5 5.5v19q0 75 -103 75q-69 0 -144 -28q-26 -11 -34 17l-20 62q-8 23 16 34q90 39 206 39q237 0 237 -190zM371 197v42
q-97 -2 -141 -18.5t-44 -61.5q0 -28 20 -45t55 -17q55 0 82.5 27.5t27.5 72.5zM471 677q0 -86 -79 -86q-40 0 -83 16l-43 15q-64 25 -70 -4l-1 -7q-4 -17 -25 -17h-35q-14 0 -20 6.5t-6 24.5q0 42 21 66t61 24q37 0 81 -16l44 -16q65 -22 69 6l1 7q4 17 25 17h35
q25 0 25 -36z" />
    <glyph glyph-name="adieresis" unicode="&#xe4;" horiz-adv-x="586" 
d="M529 354v-326q0 -28 -27 -28h-91q-24 0 -28 22l-6 44q-54 -74 -176 -74q-77 0 -123.5 40t-46.5 116q0 44 16.5 76t43.5 51t73 30t92.5 15.5t114.5 5.5v19q0 75 -103 75q-69 0 -144 -28q-26 -11 -34 17l-20 62q-8 23 16 34q90 39 206 39q237 0 237 -190zM371 197v42
q-97 -2 -141 -18.5t-44 -61.5q0 -28 20 -45t55 -17q55 0 82.5 27.5t27.5 72.5zM255 681v-61q0 -27 -27 -27h-83q-28 0 -28 27v61q0 27 28 27h83q27 0 27 -27zM464 681v-61q0 -27 -28 -27h-83q-27 0 -27 27v61q0 27 27 27h83q28 0 28 -27z" />
    <glyph glyph-name="aring" unicode="&#xe5;" horiz-adv-x="586" 
d="M529 354v-326q0 -28 -27 -28h-91q-24 0 -28 22l-6 44q-54 -74 -176 -74q-77 0 -123.5 40t-46.5 116q0 44 16.5 76t43.5 51t73 30t92.5 15.5t114.5 5.5v19q0 75 -103 75q-69 0 -144 -28q-26 -11 -34 17l-20 62q-8 23 16 34q90 39 206 39q237 0 237 -190zM371 197v42
q-97 -2 -141 -18.5t-44 -61.5q0 -28 20 -45t55 -17q55 0 82.5 27.5t27.5 72.5zM298 646q23 0 38 14t15 36t-15.5 36t-38.5 14t-38 -14t-15 -36t15 -36t39 -14zM297 805q52 0 86 -30.5t34 -78.5q0 -49 -33.5 -79t-85.5 -30t-86 30t-34 79q0 48 33.5 78.5t85.5 30.5z" />
    <glyph glyph-name="ae" unicode="&#xe6;" horiz-adv-x="908" 
d="M669 103q63 0 126 30q25 11 35 -17l19 -54q6 -20 -18 -34q-74 -40 -176 -40q-80 0 -134 27.5t-75 71.5q-68 -95 -212 -95q-103 0 -153 38.5t-50 118.5q0 45 17 75.5t42.5 47.5t74 27t91.5 12.5t115 3.5v36q0 69 -102 69q-71 0 -146 -28q-26 -10 -35 17l-20 62
q-8 24 17 34q97 39 201 39q137 0 174 -79q25 37 71.5 58t104.5 21q108 0 171 -67.5t63 -181.5v-51q0 -27 -28 -27h-313q10 -53 45.5 -83.5t94.5 -30.5zM630 429q-96 0 -106 -119h201v7q0 112 -95 112zM371 203v24q-35 -1 -55 -1.5t-44.5 -3t-37.5 -7t-25.5 -11.5t-17.5 -18
t-5 -27q0 -61 77 -61q54 0 81 29.5t27 75.5z" />
    <glyph glyph-name="ccedilla" unicode="&#xe7;" horiz-adv-x="521" 
d="M38 267q0 135 73.5 206t200.5 71q102 0 160 -36q24 -14 15 -37l-28 -64q-10 -24 -40 -13q-43 18 -88 18q-127 0 -127 -145q0 -74 33.5 -110t93.5 -36q53 0 93 21q28 12 39 -14l28 -63q9 -22 -15 -38q-54 -35 -150 -38q63 -31 63 -83q0 -39 -29.5 -60.5t-85.5 -21.5
q-33 0 -54 7q-15 3 -15 17v37q0 16 17 16h31q46 0 46 31q0 36 -53 63q-98 18 -153 87t-55 185z" />
    <glyph glyph-name="egrave" unicode="&#xe8;" horiz-adv-x="589" 
d="M344 103q68 0 131 30q26 12 36 -17l18 -53q7 -22 -17 -34q-82 -41 -182 -41q-139 0 -215.5 72.5t-76.5 205.5t71 205.5t193 72.5q118 0 184 -70t66 -187v-49q0 -27 -28 -27h-325q9 -51 46.5 -79.5t98.5 -28.5zM305 429q-101 0 -111 -125h213v7q0 56 -26 87t-76 31z
M320 702l40 -87q7 -22 -17 -22h-61q-21 0 -35 14l-86 85q-9 8 -6 18.5t16 10.5h118q23 0 31 -19z" />
    <glyph glyph-name="eacute" unicode="&#xe9;" horiz-adv-x="589" 
d="M344 103q68 0 131 30q26 12 36 -17l18 -53q7 -22 -17 -34q-82 -41 -182 -41q-139 0 -215.5 72.5t-76.5 205.5t71 205.5t193 72.5q118 0 184 -70t66 -187v-49q0 -27 -28 -27h-325q9 -51 46.5 -79.5t98.5 -28.5zM305 429q-101 0 -111 -125h213v7q0 56 -26 87t-76 31z
M233 615l40 87q8 19 30 19h118q13 0 15.5 -10.5t-6.5 -18.5l-85 -85q-14 -14 -35 -14h-61q-11 0 -15.5 6.5t-0.5 15.5z" />
    <glyph glyph-name="ecircumflex" unicode="&#xea;" horiz-adv-x="589" 
d="M344 103q68 0 131 30q26 12 36 -17l18 -53q7 -22 -17 -34q-82 -41 -182 -41q-139 0 -215.5 72.5t-76.5 205.5t71 205.5t193 72.5q118 0 184 -70t66 -187v-49q0 -27 -28 -27h-325q9 -51 46.5 -79.5t98.5 -28.5zM305 429q-101 0 -111 -125h213v7q0 56 -26 87t-76 31z
M366 606l-66 54l-68 -54q-17 -13 -30 -13h-50q-12 0 -15.5 9t3.5 17l91 100q14 17 38 17h61q24 0 38 -17l91 -100q7 -8 3.5 -17t-15.5 -9h-50q-16 0 -31 13z" />
    <glyph glyph-name="edieresis" unicode="&#xeb;" horiz-adv-x="589" 
d="M344 103q68 0 131 30q26 12 36 -17l18 -53q7 -22 -17 -34q-82 -41 -182 -41q-139 0 -215.5 72.5t-76.5 205.5t71 205.5t193 72.5q118 0 184 -70t66 -187v-49q0 -27 -28 -27h-325q9 -51 46.5 -79.5t98.5 -28.5zM305 429q-101 0 -111 -125h213v7q0 56 -26 87t-76 31z
M264 681v-61q0 -27 -27 -27h-83q-28 0 -28 27v61q0 27 28 27h83q27 0 27 -27zM473 681v-61q0 -27 -28 -27h-83q-27 0 -27 27v61q0 27 27 27h83q28 0 28 -27z" />
    <glyph glyph-name="igrave" unicode="&#xec;" horiz-adv-x="292" 
d="M227 505v-477q0 -28 -27 -28h-108q-28 0 -28 28v477q0 27 28 27h108q27 0 27 -27zM159 702l40 -87q7 -22 -17 -22h-61q-21 0 -35 14l-86 85q-9 8 -6 18.5t16 10.5h118q23 0 31 -19z" />
    <glyph glyph-name="iacute" unicode="&#xed;" horiz-adv-x="292" 
d="M227 505v-477q0 -28 -27 -28h-108q-28 0 -28 28v477q0 27 28 27h108q27 0 27 -27zM94 615l40 87q8 19 30 19h118q13 0 15.5 -10.5t-6.5 -18.5l-85 -85q-14 -14 -35 -14h-61q-11 0 -15.5 6.5t-0.5 15.5z" />
    <glyph glyph-name="icircumflex" unicode="&#xee;" horiz-adv-x="292" 
d="M227 505v-477q0 -28 -27 -28h-108q-28 0 -28 28v477q0 27 28 27h108q27 0 27 -27zM213 606l-66 54l-68 -54q-17 -13 -30 -13h-50q-12 0 -15.5 9t3.5 17l91 100q14 17 38 17h61q24 0 38 -17l91 -100q7 -8 3.5 -17t-15.5 -9h-50q-16 0 -31 13z" />
    <glyph glyph-name="idieresis" unicode="&#xef;" horiz-adv-x="292" 
d="M227 505v-477q0 -28 -27 -28h-108q-28 0 -28 28v477q0 27 28 27h108q27 0 27 -27zM111 681v-61q0 -27 -27 -27h-83q-28 0 -28 27v61q0 27 28 27h83q27 0 27 -27zM320 681v-61q0 -27 -28 -27h-83q-27 0 -27 27v61q0 27 27 27h83q28 0 28 -27z" />
    <glyph glyph-name="eth" unicode="&#xf0;" horiz-adv-x="612" 
d="M531 576h-54q98 -137 98 -306q0 -139 -72 -210t-197 -71q-124 0 -196 71t-72 203q0 130 71.5 200.5t183.5 70.5q66 0 99 -26q-14 30 -46 68h-136q-21 0 -21 21v29q0 20 21 20h77q-15 17 -50 38q-9 7 -6.5 16.5t13.5 9.5h103q21 0 35 -14q17 -15 47 -50h102q20 0 20 -20
v-29q0 -21 -20 -21zM306 115q103 0 103 148q0 155 -103 155q-102 0 -102 -155q0 -148 102 -148z" />
    <glyph glyph-name="ntilde" unicode="&#xf1;" horiz-adv-x="616" 
d="M559 345v-317q0 -28 -27 -28h-108q-28 0 -28 28v286q0 48 -18 71t-61 23q-47 0 -71 -28.5t-24 -77.5v-274q0 -28 -28 -28h-108q-27 0 -27 28v477q0 27 27 27h97q25 0 28 -22l8 -45q51 79 163 79q177 0 177 -199zM488 677q0 -86 -79 -86q-40 0 -83 16l-43 15
q-64 25 -70 -4l-1 -7q-4 -17 -25 -17h-35q-14 0 -20 6.5t-6 24.5q0 42 21 66t61 24q37 0 81 -16l44 -16q65 -22 69 6l1 7q4 17 25 17h35q25 0 25 -36z" />
    <glyph glyph-name="ograve" unicode="&#xf2;" horiz-adv-x="612" 
d="M306 -11q125 0 197 71t72 206q0 136 -72 207t-197 71t-196.5 -71t-71.5 -207q0 -135 71.5 -206t196.5 -71zM306 115q-102 0 -102 151q0 152 102 152q103 0 103 -152q0 -151 -103 -151zM323 702l40 -87q7 -22 -17 -22h-61q-21 0 -35 14l-86 85q-9 8 -6 18.5t16 10.5h118
q23 0 31 -19z" />
    <glyph glyph-name="oacute" unicode="&#xf3;" horiz-adv-x="612" 
d="M306 -11q125 0 197 71t72 206q0 136 -72 207t-197 71t-196.5 -71t-71.5 -207q0 -135 71.5 -206t196.5 -71zM306 115q-102 0 -102 151q0 152 102 152q103 0 103 -152q0 -151 -103 -151zM249 615l40 87q8 19 30 19h118q13 0 15.5 -10.5t-6.5 -18.5l-85 -85q-14 -14 -35 -14
h-61q-11 0 -15.5 6.5t-0.5 15.5z" />
    <glyph glyph-name="ocircumflex" unicode="&#xf4;" horiz-adv-x="612" 
d="M306 -11q125 0 197 71t72 206q0 136 -72 207t-197 71t-196.5 -71t-71.5 -207q0 -135 71.5 -206t196.5 -71zM306 115q-102 0 -102 151q0 152 102 152q103 0 103 -152q0 -151 -103 -151zM373 606l-66 54l-68 -54q-17 -13 -30 -13h-50q-12 0 -15.5 9t3.5 17l91 100
q14 17 38 17h61q24 0 38 -17l91 -100q7 -8 3.5 -17t-15.5 -9h-50q-16 0 -31 13z" />
    <glyph glyph-name="otilde" unicode="&#xf5;" horiz-adv-x="612" 
d="M306 -11q-125 0 -196.5 71t-71.5 206q0 136 71.5 207t196.5 71t197 -71t72 -207q0 -135 -72 -206t-197 -71zM306 115q103 0 103 151q0 152 -103 152q-102 0 -102 -152q0 -151 102 -151zM487 677q0 -86 -79 -86q-40 0 -83 16l-43 15q-64 25 -70 -4l-1 -7q-4 -17 -25 -17
h-35q-14 0 -20 6.5t-6 24.5q0 42 21 66t61 24q37 0 81 -16l44 -16q65 -22 69 6l1 7q4 17 25 17h35q25 0 25 -36z" />
    <glyph glyph-name="odieresis" unicode="&#xf6;" horiz-adv-x="612" 
d="M306 -11q125 0 197 71t72 206q0 136 -72 207t-197 71t-196.5 -71t-71.5 -207q0 -135 71.5 -206t196.5 -71zM306 115q-102 0 -102 151q0 152 102 152q103 0 103 -152q0 -151 -103 -151zM271 681v-61q0 -27 -27 -27h-83q-28 0 -28 27v61q0 27 28 27h83q27 0 27 -27z
M480 681v-61q0 -27 -28 -27h-83q-27 0 -27 27v61q0 27 27 27h83q28 0 28 -27z" />
    <glyph glyph-name="divide" unicode="&#xf7;" horiz-adv-x="604" 
d="M522 289h-440q-27 0 -27 27v62q0 27 28 27h439q27 0 27 -27v-62q0 -27 -27 -27zM224 97v97q0 27 30 27h96q30 0 30 -27v-97q0 -28 -28 -28h-100q-28 0 -28 28zM224 500v97q0 27 30 27h96q30 0 30 -27v-97q0 -28 -28 -28h-100q-28 0 -28 28z" />
    <glyph glyph-name="oslash" unicode="&#xf8;" horiz-adv-x="616" 
d="M308 -11q-96 0 -158 41l-24 -27q-18 -21 -38 -3l-22 20q-20 17 -3 36l26 30q-49 68 -49 180q0 136 71.5 207t196.5 71q92 0 158 -41l24 26q19 22 38 4l22 -20q20 -17 3 -36l-26 -30q50 -70 50 -181q0 -135 -72 -206t-197 -71zM308 418q-102 0 -102 -152q0 -31 8 -53
l162 179q-24 26 -68 26zM308 115q103 0 103 151q0 33 -9 54l-161 -180q24 -25 67 -25z" />
    <glyph glyph-name="ugrave" unicode="&#xf9;" horiz-adv-x="610" 
d="M54 181v324q0 27 28 27h108q27 0 27 -27v-292q0 -45 16.5 -68t58.5 -23q45 0 70 28t25 75v280q0 27 28 27h108q27 0 27 -27v-477q0 -28 -27 -28h-97q-25 0 -29 22l-7 46q-49 -79 -156 -79q-92 0 -136 46.5t-44 145.5zM323 702l40 -87q7 -22 -17 -22h-61q-21 0 -35 14
l-86 85q-9 8 -6 18.5t16 10.5h118q23 0 31 -19z" />
    <glyph glyph-name="uacute" unicode="&#xfa;" horiz-adv-x="610" 
d="M54 181v324q0 27 28 27h108q27 0 27 -27v-292q0 -45 16.5 -68t58.5 -23q45 0 70 28t25 75v280q0 27 28 27h108q27 0 27 -27v-477q0 -28 -27 -28h-97q-25 0 -29 22l-7 46q-49 -79 -156 -79q-92 0 -136 46.5t-44 145.5zM246 615l40 87q8 19 30 19h118q13 0 15.5 -10.5
t-6.5 -18.5l-85 -85q-14 -14 -35 -14h-61q-11 0 -15.5 6.5t-0.5 15.5z" />
    <glyph glyph-name="ucircumflex" unicode="&#xfb;" horiz-adv-x="610" 
d="M54 181v324q0 27 28 27h108q27 0 27 -27v-292q0 -45 16.5 -68t58.5 -23q45 0 70 28t25 75v280q0 27 28 27h108q27 0 27 -27v-477q0 -28 -27 -28h-97q-25 0 -29 22l-7 46q-49 -79 -156 -79q-92 0 -136 46.5t-44 145.5zM371 606l-66 54l-68 -54q-17 -13 -30 -13h-50
q-12 0 -15.5 9t3.5 17l91 100q14 17 38 17h61q24 0 38 -17l91 -100q7 -8 3.5 -17t-15.5 -9h-50q-16 0 -31 13z" />
    <glyph glyph-name="udieresis" unicode="&#xfc;" horiz-adv-x="610" 
d="M54 181v324q0 27 28 27h108q27 0 27 -27v-292q0 -45 16.5 -68t58.5 -23q45 0 70 28t25 75v280q0 27 28 27h108q27 0 27 -27v-477q0 -28 -27 -28h-97q-25 0 -29 22l-7 46q-49 -79 -156 -79q-92 0 -136 46.5t-44 145.5zM269 681v-61q0 -27 -27 -27h-83q-28 0 -28 27v61
q0 27 28 27h83q27 0 27 -27zM478 681v-61q0 -27 -28 -27h-83q-27 0 -27 27v61q0 27 27 27h83q28 0 28 -27z" />
    <glyph glyph-name="yacute" unicode="&#xfd;" horiz-adv-x="560" 
d="M544 500l-146 -450q-31 -97 -71 -132.5t-136 -35.5q-70 0 -107 11q-27 6 -26 28l4 66q1 23 24 23q3 0 23 -3t38 -3q34 0 45.5 16.5t0.5 42.5l-174 437q-5 14 0 23t19 9h112q27 0 34 -25l70 -218l38 -140h3l31 140l54 218q6 25 32 25h110q14 0 20 -9t2 -23zM218 615l40 87
q8 19 30 19h118q13 0 15.5 -10.5t-6.5 -18.5l-85 -85q-14 -14 -35 -14h-61q-11 0 -15.5 6.5t-0.5 15.5z" />
    <glyph glyph-name="thorn" unicode="&#xfe;" horiz-adv-x="637" 
d="M87 706h108q28 0 28 -27v-208q20 34 64 53.5t93 19.5q105 0 161.5 -69.5t56.5 -207.5t-56.5 -208t-161.5 -70q-50 0 -93.5 18.5t-63.5 54.5v-144q0 -28 -28 -28h-108q-27 0 -27 28v761q0 27 27 27zM222 266q0 -150 106 -150q53 0 78.5 35.5t25.5 114.5q0 80 -25.5 115.5
t-78.5 35.5q-106 0 -106 -151z" />
    <glyph glyph-name="ydieresis" unicode="&#xff;" horiz-adv-x="560" 
d="M544 500l-146 -450q-31 -97 -71 -132.5t-136 -35.5q-70 0 -107 11q-27 6 -26 28l4 66q1 23 24 23q3 0 23 -3t38 -3q34 0 45.5 16.5t0.5 42.5l-174 437q-5 14 0 23t19 9h112q27 0 34 -25l70 -218l38 -140h3l31 140l54 218q6 25 32 25h110q14 0 20 -9t2 -23zM245 681v-61
q0 -27 -27 -27h-83q-28 0 -28 27v61q0 27 28 27h83q27 0 27 -27zM454 681v-61q0 -27 -28 -27h-83q-27 0 -27 27v61q0 27 27 27h83q28 0 28 -27z" />
    <glyph glyph-name="Amacron" unicode="&#x100;" horiz-adv-x="693" 
d="M262 278h167l-81 259h-2zM276 706h141q26 0 35 -27l223 -645q5 -15 -1.5 -24.5t-20.5 -9.5h-119q-26 0 -35 27l-37 108h-232l-36 -108q-9 -27 -34 -27h-120q-14 0 -20.5 9.5t-1.5 24.5l223 645q9 27 35 27zM502 762h-311q-26 0 -26 26v42q0 26 26 26h311q26 0 26 -26v-42
q0 -26 -26 -26z" />
    <glyph glyph-name="amacron" unicode="&#x101;" horiz-adv-x="586" 
d="M529 354v-326q0 -28 -27 -28h-91q-24 0 -28 22l-6 44q-54 -74 -176 -74q-77 0 -123.5 40t-46.5 116q0 44 16.5 76t43.5 51t73 30t92.5 15.5t114.5 5.5v19q0 75 -103 75q-69 0 -144 -28q-26 -11 -34 17l-20 62q-8 23 16 34q90 39 206 39q237 0 237 -190zM371 197v42
q-97 -2 -141 -18.5t-44 -61.5q0 -28 20 -45t55 -17q55 0 82.5 27.5t27.5 72.5zM443 598h-305q-26 0 -26 26v39q0 26 26 26h305q26 0 26 -26v-39q0 -26 -26 -26z" />
    <glyph glyph-name="Abreve" unicode="&#x102;" horiz-adv-x="693" 
d="M262 278h167l-81 259h-2zM276 706h141q26 0 35 -27l223 -645q5 -15 -1.5 -24.5t-20.5 -9.5h-119q-26 0 -35 27l-37 108h-232l-36 -108q-9 -27 -34 -27h-120q-14 0 -20.5 9.5t-1.5 24.5l223 645q9 27 35 27zM347 753q-81 0 -123 38.5t-42 92.5q0 21 21 21h43q20 0 25 -20
q12 -53 76 -53q63 0 75 53q5 20 24 20h44q21 0 21 -21q0 -54 -42 -92.5t-122 -38.5z" />
    <glyph glyph-name="abreve" unicode="&#x103;" horiz-adv-x="586" 
d="M529 354v-326q0 -28 -27 -28h-91q-24 0 -28 22l-6 44q-54 -74 -176 -74q-77 0 -123.5 40t-46.5 116q0 44 16.5 76t43.5 51t73 30t92.5 15.5t114.5 5.5v19q0 75 -103 75q-69 0 -144 -28q-26 -11 -34 17l-20 62q-8 23 16 34q90 39 206 39q237 0 237 -190zM371 197v42
q-97 -2 -141 -18.5t-44 -61.5q0 -28 20 -45t55 -17q55 0 82.5 27.5t27.5 72.5zM291 588q-82 0 -123 38.5t-41 93.5q0 21 21 21h41q21 0 24 -20q12 -55 78 -55q65 0 76 55q5 20 25 20h41q21 0 21 -21q-1 -56 -41.5 -94t-121.5 -38z" />
    <glyph glyph-name="Aogonek" unicode="&#x104;" horiz-adv-x="693" 
d="M276 706h141q26 0 35 -27l223 -645q5 -15 -1.5 -24.5t-20.5 -9.5h-25q-53 -29 -53 -69q0 -33 47 -33q10 0 19.5 2.5t12.5 2.5q12 0 15 -11l11 -38q4 -13 -10 -21q-28 -19 -83 -19q-109 0 -109 80q0 31 24.5 60.5t59.5 45.5h-28q-26 0 -35 27l-37 108h-232l-36 -108
q-9 -27 -34 -27h-120q-14 0 -20.5 9.5t-1.5 24.5l223 645q9 27 35 27zM262 278h167l-81 259h-2z" />
    <glyph glyph-name="aogonek" unicode="&#x105;" horiz-adv-x="586" 
d="M529 354v-326q0 -28 -27 -28h-15q-51 -28 -51 -65q0 -31 43 -31q10 0 19.5 2t12.5 2q12 1 15 -11l10 -35q4 -13 -9 -20q-30 -18 -80 -18q-104 0 -104 76q0 31 23 58t57 42h-12q-24 0 -28 22l-6 44q-54 -74 -176 -74q-77 0 -123.5 40t-46.5 116q0 44 16.5 76t43.5 51
t73 30t92.5 15.5t114.5 5.5v19q0 75 -103 75q-69 0 -144 -28q-26 -11 -34 17l-20 62q-8 23 16 34q90 39 206 39q237 0 237 -190zM371 197v42q-97 -2 -141 -18.5t-44 -61.5q0 -28 20 -45t55 -17q55 0 82.5 27.5t27.5 72.5z" />
    <glyph glyph-name="Cacute" unicode="&#x106;" horiz-adv-x="625" 
d="M402 138q57 0 113 26q28 13 40 -15l34 -73q10 -21 -16 -38q-76 -49 -199 -49q-157 0 -244.5 90.5t-87.5 273.5q0 182 86 273.5t241 91.5q120 0 196 -49q26 -17 16 -38l-33 -72q-11 -26 -40 -14q-50 23 -111 23q-93 0 -136.5 -51.5t-43.5 -163.5t44.5 -163.5t140.5 -51.5z
M290 779l40 87q9 20 31 20h119q13 0 15.5 -11t-6.5 -19l-86 -85q-16 -14 -35 -14h-61q-12 0 -16.5 6.5t-0.5 15.5z" />
    <glyph glyph-name="cacute" unicode="&#x107;" horiz-adv-x="521" 
d="M38 267q0 135 73.5 206t200.5 71q102 0 160 -36q24 -14 15 -37l-28 -64q-10 -24 -40 -13q-43 18 -88 18q-127 0 -127 -145q0 -74 33.5 -110t93.5 -36q53 0 93 21q28 12 39 -14l28 -63q9 -22 -15 -38q-25 -16 -69.5 -27t-90.5 -11q-129 0 -203.5 71t-74.5 207zM235 615
l40 87q8 19 30 19h118q13 0 15.5 -10.5t-6.5 -18.5l-85 -85q-14 -14 -35 -14h-61q-11 0 -15.5 6.5t-0.5 15.5z" />
    <glyph glyph-name="Ccircumflex" unicode="&#x108;" horiz-adv-x="625" 
d="M402 138q57 0 113 26q28 13 40 -15l34 -73q10 -21 -16 -38q-76 -49 -199 -49q-157 0 -244.5 90.5t-87.5 273.5q0 182 86 273.5t241 91.5q120 0 196 -49q26 -17 16 -38l-33 -72q-11 -26 -40 -14q-50 23 -111 23q-93 0 -136.5 -51.5t-43.5 -163.5t44.5 -163.5t140.5 -51.5z
M427 770l-67 53l-68 -53q-17 -13 -31 -13h-50q-13 0 -16.5 9t4.5 17l92 99q16 17 38 17h61q22 0 38 -17l92 -99q8 -8 4.5 -17t-16.5 -9h-50q-16 0 -31 13z" />
    <glyph glyph-name="ccircumflex" unicode="&#x109;" horiz-adv-x="521" 
d="M38 267q0 135 73.5 206t200.5 71q102 0 160 -36q24 -14 15 -37l-28 -64q-10 -24 -40 -13q-43 18 -88 18q-127 0 -127 -145q0 -74 33.5 -110t93.5 -36q53 0 93 21q28 12 39 -14l28 -63q9 -22 -15 -38q-25 -16 -69.5 -27t-90.5 -11q-129 0 -203.5 71t-74.5 207zM356 606
l-66 54l-68 -54q-17 -13 -30 -13h-50q-12 0 -15.5 9t3.5 17l91 100q14 17 38 17h61q24 0 38 -17l91 -100q7 -8 3.5 -17t-15.5 -9h-50q-16 0 -31 13z" />
    <glyph glyph-name="Cdotaccent" unicode="&#x10a;" horiz-adv-x="625" 
d="M402 138q57 0 113 26q28 13 40 -15l34 -73q10 -21 -16 -38q-76 -49 -199 -49q-157 0 -244.5 90.5t-87.5 273.5q0 182 86 273.5t241 91.5q120 0 196 -49q26 -17 16 -38l-33 -72q-11 -26 -40 -14q-50 23 -111 23q-93 0 -136.5 -51.5t-43.5 -163.5t44.5 -163.5t140.5 -51.5z
M435 855v-72q0 -28 -28 -28h-103q-28 0 -28 28v72q0 27 28 27h103q28 0 28 -27z" />
    <glyph glyph-name="cdotaccent" unicode="&#x10b;" horiz-adv-x="521" 
d="M38 267q0 135 73.5 206t200.5 71q102 0 160 -36q24 -14 15 -37l-28 -64q-10 -24 -40 -13q-43 18 -88 18q-127 0 -127 -145q0 -74 33.5 -110t93.5 -36q53 0 93 21q28 12 39 -14l28 -63q9 -22 -15 -38q-25 -16 -69.5 -27t-90.5 -11q-129 0 -203.5 71t-74.5 207zM374 687
v-69q0 -27 -28 -27h-103q-28 0 -28 27v69q0 28 28 28h103q28 0 28 -28z" />
    <glyph glyph-name="Ccaron" unicode="&#x10c;" horiz-adv-x="625" 
d="M402 138q57 0 113 26q28 13 40 -15l34 -73q10 -21 -16 -38q-76 -49 -199 -49q-157 0 -244.5 90.5t-87.5 273.5q0 182 86 273.5t241 91.5q120 0 196 -49q26 -17 16 -38l-33 -72q-11 -26 -40 -14q-50 23 -111 23q-93 0 -136.5 -51.5t-43.5 -163.5t44.5 -163.5t140.5 -51.5z
M360 833l67 52q18 14 30 14h51q12 0 16 -9.5t-4 -16.5l-92 -100q-15 -16 -38 -16h-61q-22 0 -38 16l-92 100q-8 8 -4 17t16 9h51q13 0 30 -13z" />
    <glyph glyph-name="ccaron" unicode="&#x10d;" horiz-adv-x="521" 
d="M38 267q0 135 73.5 206t200.5 71q102 0 160 -36q24 -14 15 -37l-28 -64q-10 -24 -40 -13q-43 18 -88 18q-127 0 -127 -145q0 -74 33.5 -110t93.5 -36q53 0 93 21q28 12 39 -14l28 -63q9 -22 -15 -38q-25 -16 -69.5 -27t-90.5 -11q-129 0 -203.5 71t-74.5 207zM292 668
l66 55q17 13 31 13h50q12 0 15.5 -9t-3.5 -17l-91 -100q-14 -17 -38 -17h-61q-22 0 -38 17l-91 100q-7 8 -3.5 17t15.5 9h50q15 0 30 -13z" />
    <glyph glyph-name="Dcaron" unicode="&#x10e;" horiz-adv-x="689" 
d="M300 0h-206q-29 0 -29 29v648q0 29 29 29h205q175 0 261.5 -82.5t86.5 -266.5q0 -190 -86 -273.5t-261 -83.5zM292 556h-55v-406h56q95 0 138 44.5t43 162.5q0 113 -43.5 156t-138.5 43zM323 833l67 52q18 14 30 14h51q12 0 16 -9.5t-4 -16.5l-92 -100q-15 -16 -38 -16
h-61q-22 0 -38 16l-92 100q-8 8 -4 17t16 9h51q13 0 30 -13z" />
    <glyph glyph-name="dcaron" unicode="&#x10f;" horiz-adv-x="795" 
d="M416 266q0 151 -107 151q-52 0 -78 -35.5t-26 -115.5q0 -79 26 -114.5t78 -35.5q107 0 107 150zM426 22l-5 44q-22 -36 -67.5 -56.5t-95.5 -20.5q-105 0 -162 70t-57 207q0 138 57 208t162 70q48 0 92.5 -19.5t64.5 -53.5v208q0 27 27 27h108q28 0 28 -27v-651
q0 -28 -28 -28h-96q-24 0 -28 22zM788 566l-56 -109q-8 -15 -24 -15h-33q-10 0 -13.5 7t-0.5 16l38 102h-35q-28 0 -28 28v97q0 27 29 27h101q29 0 29 -27v-91q0 -22 -7 -35z" />
    <glyph glyph-name="Dcroat" unicode="&#x110;" horiz-adv-x="691" 
d="M302 0h-206q-29 0 -29 29v281h-38q-21 0 -21 20v47q0 21 21 21h38v279q0 29 29 29h205q176 0 262 -83t86 -270t-86 -270t-261 -83zM343 310h-104v-160h56q94 0 137.5 43.5t43.5 159.5t-43.5 159.5t-138.5 43.5h-55v-158h104q20 0 20 -21v-47q0 -20 -20 -20z" />
    <glyph glyph-name="dcroat" unicode="&#x111;" horiz-adv-x="639" 
d="M426 22l-5 44q-22 -36 -67.5 -56.5t-95.5 -20.5q-105 0 -162 70t-57 207q0 138 57 208t162 70q48 0 92.5 -19.5t64.5 -53.5v115h-124q-21 0 -21 21v29q0 20 21 20h124v23q0 27 27 27h108q28 0 28 -27v-23h35q20 0 20 -20v-29q0 -21 -20 -21h-35v-558q0 -28 -28 -28h-96
q-24 0 -28 22zM416 266q0 151 -107 151q-52 0 -78 -35.5t-26 -115.5q0 -79 26 -114.5t78 -35.5q107 0 107 150z" />
    <glyph glyph-name="Emacron" unicode="&#x112;" horiz-adv-x="572" 
d="M484 290h-250v-146h268q30 0 30 -29v-85q0 -30 -30 -30h-408q-29 0 -29 29v648q0 29 29 29h404q29 0 29 -29v-86q0 -30 -29 -30h-264v-133h250q28 0 28 -29v-80q0 -29 -28 -29zM456 762h-311q-26 0 -26 26v42q0 26 26 26h311q26 0 26 -26v-42q0 -26 -26 -26z" />
    <glyph glyph-name="emacron" unicode="&#x113;" horiz-adv-x="589" 
d="M344 103q68 0 131 30q26 12 36 -17l18 -53q7 -22 -17 -34q-82 -41 -182 -41q-139 0 -215.5 72.5t-76.5 205.5t71 205.5t193 72.5q118 0 184 -70t66 -187v-49q0 -27 -28 -27h-325q9 -51 46.5 -79.5t98.5 -28.5zM305 429q-101 0 -111 -125h213v7q0 56 -26 87t-76 31z
M455 598h-305q-26 0 -26 26v39q0 26 26 26h305q26 0 26 -26v-39q0 -26 -26 -26z" />
    <glyph glyph-name="Ebreve" unicode="&#x114;" horiz-adv-x="572" 
d="M484 290h-250v-146h268q30 0 30 -29v-85q0 -30 -30 -30h-408q-29 0 -29 29v648q0 29 29 29h404q29 0 29 -29v-86q0 -30 -29 -30h-264v-133h250q28 0 28 -29v-80q0 -29 -28 -29zM304 753q-81 0 -123 38.5t-42 92.5q0 21 21 21h43q20 0 25 -20q12 -53 76 -53q63 0 75 53
q5 20 24 20h44q21 0 21 -21q0 -54 -42 -92.5t-122 -38.5z" />
    <glyph glyph-name="ebreve" unicode="&#x115;" horiz-adv-x="589" 
d="M344 103q68 0 131 30q26 12 36 -17l18 -53q7 -22 -17 -34q-82 -41 -182 -41q-139 0 -215.5 72.5t-76.5 205.5t71 205.5t193 72.5q118 0 184 -70t66 -187v-49q0 -27 -28 -27h-325q9 -51 46.5 -79.5t98.5 -28.5zM305 429q-101 0 -111 -125h213v7q0 56 -26 87t-76 31z
M303 588q-82 0 -123 38.5t-41 93.5q0 21 21 21h41q21 0 24 -20q12 -55 78 -55q65 0 76 55q5 20 25 20h41q21 0 21 -21q-1 -56 -41.5 -94t-121.5 -38z" />
    <glyph glyph-name="Edotaccent" unicode="&#x116;" horiz-adv-x="572" 
d="M484 290h-250v-146h268q30 0 30 -29v-85q0 -30 -30 -30h-408q-29 0 -29 29v648q0 29 29 29h404q29 0 29 -29v-86q0 -30 -29 -30h-264v-133h250q28 0 28 -29v-80q0 -29 -28 -29zM386 855v-72q0 -28 -28 -28h-103q-28 0 -28 28v72q0 27 28 27h103q28 0 28 -27z" />
    <glyph glyph-name="edotaccent" unicode="&#x117;" horiz-adv-x="589" 
d="M344 103q68 0 131 30q26 12 36 -17l18 -53q7 -22 -17 -34q-82 -41 -182 -41q-139 0 -215.5 72.5t-76.5 205.5t71 205.5t193 72.5q118 0 184 -70t66 -187v-49q0 -27 -28 -27h-325q9 -51 46.5 -79.5t98.5 -28.5zM305 429q-101 0 -111 -125h213v7q0 56 -26 87t-76 31z
M382 687v-69q0 -27 -28 -27h-103q-28 0 -28 27v69q0 28 28 28h103q28 0 28 -28z" />
    <glyph glyph-name="Eogonek" unicode="&#x118;" horiz-adv-x="572" 
d="M484 290h-250v-146h268q30 0 30 -29v-85q0 -30 -30 -30h-26q-53 -29 -53 -69q0 -33 47 -33q10 0 19.5 2.5t12.5 2.5q12 0 15 -11l11 -38q4 -13 -10 -21q-29 -19 -83 -19q-109 0 -109 80q0 31 24.5 60.5t59.5 45.5h-316q-29 0 -29 29v648q0 29 29 29h404q29 0 29 -29v-86
q0 -30 -29 -30h-264v-133h250q28 0 28 -29v-80q0 -29 -28 -29z" />
    <glyph glyph-name="eogonek" unicode="&#x119;" horiz-adv-x="589" 
d="M344 103q68 0 131 30q26 12 36 -17l18 -53q7 -22 -17 -34q-43 -23 -92 -32q-46 -25 -46 -62q0 -31 43 -31q10 0 19.5 2t12.5 2q12 1 15 -11l10 -35q4 -13 -9 -20q-30 -18 -80 -18q-104 0 -104 76q0 50 58 88h-9q-139 0 -215.5 72.5t-76.5 205.5t71 205.5t193 72.5
q118 0 184 -70t66 -187v-49q0 -27 -28 -27h-325q9 -51 46.5 -79.5t98.5 -28.5zM305 429q-101 0 -111 -125h213v7q0 56 -26 87t-76 31z" />
    <glyph glyph-name="Ecaron" unicode="&#x11a;" horiz-adv-x="572" 
d="M484 290h-250v-146h268q30 0 30 -29v-85q0 -30 -30 -30h-408q-29 0 -29 29v648q0 29 29 29h404q29 0 29 -29v-86q0 -30 -29 -30h-264v-133h250q28 0 28 -29v-80q0 -29 -28 -29zM301 833l67 52q18 14 30 14h51q12 0 16 -9.5t-4 -16.5l-92 -100q-15 -16 -38 -16h-61
q-22 0 -38 16l-92 100q-8 8 -4 17t16 9h51q13 0 30 -13z" />
    <glyph glyph-name="ecaron" unicode="&#x11b;" horiz-adv-x="589" 
d="M344 103q68 0 131 30q26 12 36 -17l18 -53q7 -22 -17 -34q-82 -41 -182 -41q-139 0 -215.5 72.5t-76.5 205.5t71 205.5t193 72.5q118 0 184 -70t66 -187v-49q0 -27 -28 -27h-325q9 -51 46.5 -79.5t98.5 -28.5zM305 429q-101 0 -111 -125h213v7q0 56 -26 87t-76 31z
M303 668l66 55q17 13 31 13h50q12 0 15.5 -9t-3.5 -17l-91 -100q-14 -17 -38 -17h-61q-22 0 -38 17l-91 100q-7 8 -3.5 17t15.5 9h50q15 0 30 -13z" />
    <glyph glyph-name="Gcircumflex" unicode="&#x11c;" horiz-adv-x="702" 
d="M406 426h211q29 0 29 -29v-321q0 -23 -23 -36q-84 -51 -236 -51q-345 0 -345 364q0 365 355 365q130 0 210 -51q25 -16 16 -38l-29 -73q-9 -25 -41 -14q-64 26 -130 26q-110 0 -158 -49.5t-48 -165.5q0 -115 46.5 -165t145.5 -50q48 0 84 15v145h-87q-29 0 -29 28v71
q0 29 29 29zM440 770l-67 53l-68 -53q-17 -13 -31 -13h-50q-13 0 -16.5 9t4.5 17l92 99q16 17 38 17h61q22 0 38 -17l92 -99q8 -8 4.5 -17t-16.5 -9h-50q-16 0 -31 13z" />
    <glyph glyph-name="gcircumflex" unicode="&#x11d;" horiz-adv-x="609" 
d="M391 307q0 121 -95 121q-94 0 -94 -124q0 -125 94 -125q95 0 95 128zM550 505v-407q0 -108 -69 -164t-198 -56q-124 0 -188 31q-23 12 -17 34l18 62q8 27 34 17q68 -24 139 -24q128 0 128 107v35q-20 -34 -59 -52.5t-87 -18.5q-96 0 -153.5 57t-57.5 178t55.5 180
t149.5 59q49 0 89.5 -20t61.5 -53l5 40q3 22 28 22h93q28 0 28 -27zM368 606l-66 54l-68 -54q-17 -13 -30 -13h-50q-12 0 -15.5 9t3.5 17l91 100q14 17 38 17h61q24 0 38 -17l91 -100q7 -8 3.5 -17t-15.5 -9h-50q-16 0 -31 13z" />
    <glyph glyph-name="Gbreve" unicode="&#x11e;" horiz-adv-x="702" 
d="M406 426h211q29 0 29 -29v-321q0 -23 -23 -36q-84 -51 -236 -51q-345 0 -345 364q0 365 355 365q130 0 210 -51q25 -16 16 -38l-29 -73q-9 -25 -41 -14q-64 26 -130 26q-110 0 -158 -49.5t-48 -165.5q0 -115 46.5 -165t145.5 -50q48 0 84 15v145h-87q-29 0 -29 28v71
q0 29 29 29zM375 753q-81 0 -123 38.5t-42 92.5q0 21 21 21h43q20 0 25 -20q12 -53 76 -53q63 0 75 53q5 20 24 20h44q21 0 21 -21q0 -54 -42 -92.5t-122 -38.5z" />
    <glyph glyph-name="gbreve" unicode="&#x11f;" horiz-adv-x="609" 
d="M391 307q0 121 -95 121q-94 0 -94 -124q0 -125 94 -125q95 0 95 128zM550 505v-407q0 -108 -69 -164t-198 -56q-124 0 -188 31q-23 12 -17 34l18 62q8 27 34 17q68 -24 139 -24q128 0 128 107v35q-20 -34 -59 -52.5t-87 -18.5q-96 0 -153.5 57t-57.5 178t55.5 180
t149.5 59q49 0 89.5 -20t61.5 -53l5 40q3 22 28 22h93q28 0 28 -27zM302 588q-82 0 -123 38.5t-41 93.5q0 21 21 21h41q21 0 24 -20q12 -55 78 -55q65 0 76 55q5 20 25 20h41q21 0 21 -21q-1 -56 -41.5 -94t-121.5 -38z" />
    <glyph glyph-name="Gdotaccent" unicode="&#x120;" horiz-adv-x="702" 
d="M406 426h211q29 0 29 -29v-321q0 -23 -23 -36q-84 -51 -236 -51q-345 0 -345 364q0 365 355 365q130 0 210 -51q25 -16 16 -38l-29 -73q-9 -25 -41 -14q-64 26 -130 26q-110 0 -158 -49.5t-48 -165.5q0 -115 46.5 -165t145.5 -50q48 0 84 15v145h-87q-29 0 -29 28v71
q0 29 29 29zM459 855v-72q0 -28 -28 -28h-103q-28 0 -28 28v72q0 27 28 27h103q28 0 28 -27z" />
    <glyph glyph-name="gdotaccent" unicode="&#x121;" horiz-adv-x="609" 
d="M391 307q0 121 -95 121q-94 0 -94 -124q0 -125 94 -125q95 0 95 128zM550 505v-407q0 -108 -69 -164t-198 -56q-124 0 -188 31q-23 12 -17 34l18 62q8 27 34 17q68 -24 139 -24q128 0 128 107v35q-20 -34 -59 -52.5t-87 -18.5q-96 0 -153.5 57t-57.5 178t55.5 180
t149.5 59q49 0 89.5 -20t61.5 -53l5 40q3 22 28 22h93q28 0 28 -27zM384 687v-69q0 -27 -28 -27h-103q-28 0 -28 27v69q0 28 28 28h103q28 0 28 -28z" />
    <glyph glyph-name="Gcommaaccent" unicode="&#x122;" horiz-adv-x="702" 
d="M406 426h211q29 0 29 -29v-321q0 -23 -23 -36q-84 -51 -236 -51q-345 0 -345 364q0 365 355 365q130 0 210 -51q25 -16 16 -38l-29 -73q-9 -25 -41 -14q-64 26 -130 26q-110 0 -158 -49.5t-48 -165.5q0 -115 46.5 -165t145.5 -50q48 0 84 15v145h-87q-29 0 -29 28v71
q0 29 29 29zM465 -182l-49 -101q-7 -16 -22 -16h-24q-19 0 -14 20l26 95h-30q-25 0 -25 25v87q0 24 26 24h93q26 0 26 -24v-77q0 -16 -7 -33z" />
    <glyph glyph-name="gcommaaccent" unicode="&#x123;" horiz-adv-x="609" 
d="M391 307q0 121 -95 121q-94 0 -94 -124q0 -125 94 -125q95 0 95 128zM550 505v-407q0 -108 -69 -164t-198 -56q-124 0 -188 31q-23 12 -17 34l18 62q8 27 34 17q68 -24 139 -24q128 0 128 107v35q-20 -34 -59 -52.5t-87 -18.5q-96 0 -153.5 57t-57.5 178t55.5 180
t149.5 59q49 0 89.5 -20t61.5 -53l5 40q3 22 28 22h93q28 0 28 -27zM237 727l45 98q9 15 21 15h24q18 0 13 -20l-24 -91h29q23 0 23 -23v-82q0 -23 -25 -23h-87q-25 0 -25 23v72q0 19 6 31z" />
    <glyph glyph-name="Hcircumflex" unicode="&#x124;" horiz-adv-x="703" 
d="M467 29v254h-230v-254q0 -29 -30 -29h-113q-29 0 -29 29v648q0 29 29 29h113q30 0 30 -29v-242h230v242q0 29 29 29h113q29 0 29 -29v-648q0 -29 -29 -29h-113q-29 0 -29 29zM393 770l-67 53l-68 -53q-17 -13 -31 -13h-50q-13 0 -16.5 9t4.5 17l92 99q16 17 38 17h61
q22 0 38 -17l92 -99q8 -8 4.5 -17t-16.5 -9h-50q-16 0 -31 13z" />
    <glyph glyph-name="hcircumflex" unicode="&#x125;" horiz-adv-x="620" 
d="M564 344v-316q0 -28 -28 -28h-108q-27 0 -27 28v286q0 47 -18.5 70.5t-61.5 23.5q-48 0 -72 -29t-24 -77v-275q0 -27 -28 -27h-108q-27 0 -27 28v651q0 27 27 27h108q28 0 28 -27v-210q47 75 160 75q179 0 179 -200zM363 770l-67 53l-68 -53q-17 -13 -31 -13h-50
q-13 0 -16.5 9t4.5 17l92 99q16 17 38 17h61q22 0 38 -17l92 -99q8 -8 4.5 -17t-16.5 -9h-50q-16 0 -31 13z" />
    <glyph glyph-name="Hbar" unicode="&#x126;" horiz-adv-x="696" 
d="M467 29v254h-230v-254q0 -29 -30 -29h-113q-29 0 -29 29v507h-36q-21 0 -21 21v29q0 20 21 20h36v71q0 29 29 29h113q30 0 30 -29v-71h230v71q0 29 29 29h113q29 0 29 -29v-71h37q20 0 20 -20v-29q0 -21 -20 -21h-37v-507q0 -29 -29 -29h-113q-29 0 -29 29zM237 435h230
v101h-230v-101z" />
    <glyph glyph-name="hbar" unicode="&#x127;" horiz-adv-x="638" 
d="M573 355v-331q0 -24 -24 -24h-90q-25 0 -25 24v296q0 93 -100 93q-58 0 -90 -30.5t-32 -81.5v-277q0 -24 -24 -24h-90q-25 0 -25 24v562h-42q-21 0 -21 21v31q0 22 21 22h42v22q0 24 25 24h90q24 0 24 -24v-22h147q22 0 22 -22v-31q0 -21 -22 -21h-147v-113q52 71 171 71
q93 0 141.5 -49.5t48.5 -139.5z" />
    <glyph glyph-name="Itilde" unicode="&#x128;" horiz-adv-x="312" 
d="M70 29v648q0 29 29 29h113q30 0 30 -29v-648q0 -29 -30 -29h-113q-29 0 -29 29zM343 841q0 -41 -21.5 -64.5t-62.5 -23.5q-43 0 -85 16l-43 16q-33 12 -52 12q-23 0 -24 -16l-1 -7q-3 -18 -25 -18h-35q-14 0 -20 7t-6 26q0 43 22 67.5t65 24.5q38 0 82 -17l44 -16
q33 -12 50 -12q22 0 25 17l1 7q3 19 25 19h35q26 0 26 -38z" />
    <glyph glyph-name="itilde" unicode="&#x129;" horiz-adv-x="292" 
d="M227 505v-477q0 -28 -27 -28h-108q-28 0 -28 28v477q0 27 28 27h108q27 0 27 -27zM327 677q0 -86 -79 -86q-40 0 -83 16l-43 15q-64 25 -70 -4l-1 -7q-4 -17 -25 -17h-35q-14 0 -20 6.5t-6 24.5q0 42 21 66t61 24q37 0 81 -16l44 -16q65 -22 69 6l1 7q4 17 25 17h35
q25 0 25 -36z" />
    <glyph glyph-name="Imacron" unicode="&#x12a;" horiz-adv-x="312" 
d="M70 29v648q0 29 29 29h113q30 0 30 -29v-648q0 -29 -30 -29h-113q-29 0 -29 29zM311 762h-311q-26 0 -26 26v42q0 26 26 26h311q26 0 26 -26v-42q0 -26 -26 -26z" />
    <glyph glyph-name="imacron" unicode="&#x12b;" horiz-adv-x="292" 
d="M227 505v-477q0 -28 -27 -28h-108q-28 0 -28 28v477q0 27 28 27h108q27 0 27 -27zM299 598h-305q-26 0 -26 26v39q0 26 26 26h305q26 0 26 -26v-39q0 -26 -26 -26z" />
    <glyph glyph-name="Ibreve" unicode="&#x12c;" horiz-adv-x="312" 
d="M70 29v648q0 29 29 29h113q30 0 30 -29v-648q0 -29 -30 -29h-113q-29 0 -29 29zM156 753q-81 0 -123 38.5t-42 92.5q0 21 21 21h43q20 0 25 -20q12 -53 76 -53q63 0 75 53q5 20 24 20h44q21 0 21 -21q0 -54 -42 -92.5t-122 -38.5z" />
    <glyph glyph-name="ibreve" unicode="&#x12d;" horiz-adv-x="292" 
d="M227 505v-477q0 -28 -27 -28h-108q-28 0 -28 28v477q0 27 28 27h108q27 0 27 -27zM147 588q-82 0 -123 38.5t-41 93.5q0 21 21 21h41q21 0 24 -20q12 -55 78 -55q65 0 76 55q5 20 25 20h41q21 0 21 -21q-1 -56 -41.5 -94t-121.5 -38z" />
    <glyph glyph-name="Iogonek" unicode="&#x12e;" horiz-adv-x="312" 
d="M70 29v648q0 29 29 29h113q30 0 30 -29v-648q0 -29 -30 -29h-16q-53 -29 -53 -69q0 -33 47 -33q10 0 19.5 2.5t12.5 2.5q12 0 15 -11l11 -38q4 -13 -10 -21q-29 -19 -83 -19q-109 0 -109 80q0 31 24.5 60.5t59.5 45.5h-31q-29 0 -29 29z" />
    <glyph glyph-name="iogonek" unicode="&#x12f;" horiz-adv-x="289" 
d="M226 505v-477q0 -28 -27 -28h-18q-51 -28 -51 -65q0 -31 43 -31q10 0 19.5 2t12.5 2q12 1 15 -11l10 -35q4 -13 -9 -20q-30 -18 -80 -18q-104 0 -104 76q0 31 23 58t57 42h-27q-27 0 -27 28v477q0 27 27 27h109q27 0 27 -27zM227 677v-63q0 -28 -27 -28h-111
q-27 0 -27 28v63q0 27 27 27h111q27 0 27 -27z" />
    <glyph glyph-name="Idotaccent" unicode="&#x130;" horiz-adv-x="312" 
d="M70 29v648q0 29 29 29h113q30 0 30 -29v-648q0 -29 -30 -29h-113q-29 0 -29 29zM235 855v-72q0 -28 -28 -28h-103q-28 0 -28 28v72q0 27 28 27h103q28 0 28 -27z" />
    <glyph glyph-name="dotlessi" unicode="&#x131;" horiz-adv-x="292" 
d="M227 505v-477q0 -28 -27 -28h-108q-28 0 -28 28v477q0 27 28 27h108q27 0 27 -27z" />
    <glyph glyph-name="IJ" unicode="&#x132;" horiz-adv-x="810" 
d="M70 29v648q0 29 29 29h113q30 0 30 -29v-648q0 -29 -30 -29h-113q-29 0 -29 29zM576 251v426q0 29 29 29h114q29 0 29 -29v-441q0 -247 -241 -247q-101 0 -169 41q-25 15 -16 38l28 78q10 30 37 17q48 -23 90 -23q99 0 99 111z" />
    <glyph glyph-name="ij" unicode="&#x133;" horiz-adv-x="591" 
d="M226 505v-477q0 -28 -27 -28h-109q-27 0 -27 28v477q0 27 27 27h109q27 0 27 -27zM227 677v-63q0 -28 -27 -28h-111q-27 0 -27 28v63q0 27 27 27h111q27 0 27 -27zM365 166v339q0 27 28 27h108q27 0 27 -27v-355q0 -85 -36 -122t-119 -37q-47 0 -79 8q-26 7 -25 29v67
q0 13 6 18.5t17 4.5q2 0 15 -1.5t21 -1.5q37 0 37 51zM530 677v-63q0 -28 -28 -28h-111q-27 0 -27 28v63q0 27 27 27h111q28 0 28 -27z" />
    <glyph glyph-name="Jcircumflex" unicode="&#x134;" horiz-adv-x="505" 
d="M273 251v426q0 29 29 29h114q29 0 29 -29v-441q0 -247 -241 -247q-101 0 -169 41q-25 15 -16 38l28 78q10 30 37 17q48 -23 90 -23q99 0 99 111zM314 770l-67 53l-68 -53q-17 -13 -31 -13h-50q-13 0 -16.5 9t4.5 17l92 99q16 17 38 17h61q22 0 38 -17l92 -99
q8 -8 4.5 -17t-16.5 -9h-50q-16 0 -31 13z" />
    <glyph glyph-name="jcircumflex" unicode="&#x135;" horiz-adv-x="309" 
d="M83 57v448q0 27 27 27h108q28 0 28 -27v-464q0 -84 -36.5 -121.5t-118.5 -37.5q-49 0 -79 8q-26 6 -26 29v68q0 23 24 23q6 0 18 -1.5t17 -1.5q20 0 29 11.5t9 38.5zM223 606l-66 54l-68 -54q-17 -13 -30 -13h-50q-12 0 -15.5 9t3.5 17l91 100q14 17 38 17h61
q24 0 38 -17l91 -100q7 -8 3.5 -17t-15.5 -9h-50q-16 0 -31 13z" />
    <glyph glyph-name="Kcommaaccent" unicode="&#x136;" horiz-adv-x="648" 
d="M237 449l199 231q23 26 44 26h125q15 0 19.5 -12t-5.5 -25l-250 -292l256 -340q10 -13 5 -25t-20 -12h-127q-22 0 -42 27l-204 269v-267q0 -29 -30 -29h-113q-29 0 -29 29v648q0 29 29 29h113q30 0 30 -29v-228zM412 -182l-49 -101q-7 -16 -22 -16h-24q-19 0 -14 20
l26 95h-30q-25 0 -25 25v87q0 24 26 24h93q26 0 26 -24v-77q0 -16 -7 -33z" />
    <glyph glyph-name="kcommaaccent" unicode="&#x137;" horiz-adv-x="569" 
d="M539 0h-120q-25 0 -42 22l-152 186v-180q0 -28 -28 -28h-108q-27 0 -27 28v651q0 27 27 27h108q28 0 28 -27v-315l143 148q18 20 42 20h117q15 0 20 -11.5t-7 -23.5l-202 -205l213 -257q10 -13 6 -24t-18 -11zM371 -174l-45 -98q-9 -15 -21 -15h-24q-18 0 -13 20l24 91
h-29q-23 0 -23 23v82q0 23 25 23h87q25 0 25 -23v-72q0 -19 -6 -31z" />
    <glyph glyph-name="kgreenlandic" unicode="&#x138;" horiz-adv-x="568" 
d="M537 0h-120q-25 0 -42 22l-152 186v-184q0 -24 -24 -24h-111q-28 0 -28 28v477q0 27 28 27h107q28 0 28 -27v-141l144 148q18 20 41 20h118q15 0 19 -11t-7 -24l-202 -205l213 -257q10 -13 6 -24t-18 -11z" />
    <glyph glyph-name="Lacute" unicode="&#x139;" horiz-adv-x="552" 
d="M241 677v-524h249q29 0 29 -29v-95q0 -29 -29 -29h-392q-29 0 -29 29v648q0 29 29 29h113q30 0 30 -29zM111 779l40 87q9 20 31 20h119q13 0 15.5 -11t-6.5 -19l-86 -85q-16 -14 -35 -14h-61q-12 0 -16.5 6.5t-0.5 15.5z" />
    <glyph glyph-name="lacute" unicode="&#x13a;" horiz-adv-x="287" 
d="M225 679v-651q0 -28 -28 -28h-108q-27 0 -27 28v651q0 27 27 27h108q28 0 28 -27zM91 779l40 87q9 20 31 20h119q13 0 15.5 -11t-6.5 -19l-86 -85q-16 -14 -35 -14h-61q-12 0 -16.5 6.5t-0.5 15.5z" />
    <glyph glyph-name="Lcommaaccent" unicode="&#x13b;" horiz-adv-x="552" 
d="M237 677v-524h249q29 0 29 -29v-95q0 -29 -29 -29h-392q-29 0 -29 29v648q0 29 29 29h113q30 0 30 -29zM355 -182l-49 -101q-7 -16 -22 -16h-24q-19 0 -14 20l26 95h-30q-25 0 -25 25v87q0 24 26 24h93q26 0 26 -24v-77q0 -16 -7 -33z" />
    <glyph glyph-name="lcommaaccent" unicode="&#x13c;" horiz-adv-x="287" 
d="M226 679v-651q0 -28 -28 -28h-108q-27 0 -27 28v651q0 27 27 27h108q28 0 28 -27zM206 -174l-45 -98q-9 -15 -21 -15h-24q-18 0 -13 20l24 91h-29q-23 0 -23 23v82q0 23 25 23h87q25 0 25 -23v-72q0 -19 -6 -31z" />
    <glyph glyph-name="Lcaron" unicode="&#x13d;" horiz-adv-x="552" 
d="M237 677v-524h249q29 0 29 -29v-95q0 -29 -29 -29h-392q-29 0 -29 29v648q0 29 29 29h113q30 0 30 -29zM478 567l-56 -109q-8 -15 -24 -15h-33q-10 0 -13.5 7t-0.5 16l38 102h-35q-28 0 -28 28v97q0 27 29 27h101q29 0 29 -27v-91q0 -22 -7 -35z" />
    <glyph glyph-name="lcaron" unicode="&#x13e;" horiz-adv-x="444" 
d="M226 679v-651q0 -28 -28 -28h-108q-27 0 -27 28v651q0 27 27 27h108q28 0 28 -27zM437 566l-56 -109q-8 -15 -24 -15h-33q-10 0 -13.5 7t-0.5 16l38 102h-35q-28 0 -28 28v97q0 27 29 27h101q29 0 29 -27v-91q0 -22 -7 -35z" />
    <glyph glyph-name="Ldot" unicode="&#x13f;" horiz-adv-x="562" 
d="M237 677v-524h249q29 0 29 -29v-95q0 -29 -29 -29h-392q-29 0 -29 29v648q0 29 29 29h113q30 0 30 -29zM358 302v106q0 27 30 27h103q29 0 29 -27v-106q0 -28 -27 -28h-108q-27 0 -27 28z" />
    <glyph glyph-name="ldot" unicode="&#x140;" horiz-adv-x="434" 
d="M225 679v-651q0 -28 -28 -28h-108q-27 0 -27 28v651q0 27 27 27h108q28 0 28 -27zM277 236v106q0 27 30 27h103q29 0 29 -27v-106q0 -28 -27 -28h-108q-27 0 -27 28z" />
    <glyph glyph-name="Lslash" unicode="&#x141;" horiz-adv-x="554" 
d="M239 677v-225l101 60q19 12 30 -8l15 -27q10 -19 -8 -29l-138 -81v-214h249q29 0 29 -29v-95q0 -29 -29 -29h-392q-29 0 -29 29v237l-11 -5q-20 -9 -30 7l-15 28q-10 18 8 29l48 28v324q0 29 29 29h113q30 0 30 -29z" />
    <glyph glyph-name="lslash" unicode="&#x142;" horiz-adv-x="291" 
d="M227 679v-219l7 4q19 12 30 -8l15 -27q10 -18 -8 -29l-44 -26v-346q0 -28 -28 -28h-108q-27 0 -27 28v250l-7 -3q-21 -9 -30 8l-15 27q-10 19 8 29l44 26v314q0 27 27 27h108q28 0 28 -27z" />
    <glyph glyph-name="Nacute" unicode="&#x143;" horiz-adv-x="709" 
d="M644 677v-648q0 -29 -30 -29h-109q-25 0 -36 19l-238 399v-389q0 -29 -29 -29h-108q-29 0 -29 29v648q0 29 29 29h109q26 0 37 -19l238 -399v389q0 29 29 29h107q30 0 30 -29zM288 779l40 87q9 20 31 20h119q13 0 15.5 -11t-6.5 -19l-86 -85q-16 -14 -35 -14h-61
q-12 0 -16.5 6.5t-0.5 15.5z" />
    <glyph glyph-name="nacute" unicode="&#x144;" horiz-adv-x="616" 
d="M559 345v-317q0 -28 -27 -28h-108q-28 0 -28 28v286q0 48 -18 71t-61 23q-47 0 -71 -28.5t-24 -77.5v-274q0 -28 -28 -28h-108q-27 0 -27 28v477q0 27 27 27h97q25 0 28 -22l8 -45q51 79 163 79q177 0 177 -199zM233 615l40 87q8 19 30 19h118q13 0 15.5 -10.5
t-6.5 -18.5l-85 -85q-14 -14 -35 -14h-61q-11 0 -15.5 6.5t-0.5 15.5z" />
    <glyph glyph-name="Ncommaaccent" unicode="&#x145;" horiz-adv-x="709" 
d="M644 677v-648q0 -29 -30 -29h-109q-25 0 -36 19l-238 399v-389q0 -29 -29 -29h-108q-29 0 -29 29v648q0 29 29 29h109q26 0 37 -19l238 -399v389q0 29 29 29h107q30 0 30 -29zM398 -182l-49 -101q-7 -16 -22 -16h-24q-19 0 -14 20l26 95h-30q-25 0 -25 25v87q0 24 26 24
h93q26 0 26 -24v-77q0 -16 -7 -33z" />
    <glyph glyph-name="ncommaaccent" unicode="&#x146;" horiz-adv-x="616" 
d="M559 345v-317q0 -28 -27 -28h-108q-28 0 -28 28v286q0 48 -18 71t-61 23q-47 0 -71 -28.5t-24 -77.5v-274q0 -28 -28 -28h-108q-27 0 -27 28v477q0 27 27 27h97q25 0 28 -22l8 -45q51 79 163 79q177 0 177 -199zM373 -174l-45 -98q-9 -15 -21 -15h-24q-18 0 -13 20l24 91
h-29q-23 0 -23 23v82q0 23 25 23h87q25 0 25 -23v-72q0 -19 -6 -31z" />
    <glyph glyph-name="Ncaron" unicode="&#x147;" horiz-adv-x="709" 
d="M644 677v-648q0 -29 -30 -29h-109q-25 0 -36 19l-238 399v-389q0 -29 -29 -29h-108q-29 0 -29 29v648q0 29 29 29h109q26 0 37 -19l238 -399v389q0 29 29 29h107q30 0 30 -29zM333 833l67 52q18 14 30 14h51q12 0 16 -9.5t-4 -16.5l-92 -100q-15 -16 -38 -16h-61
q-22 0 -38 16l-92 100q-8 8 -4 17t16 9h51q13 0 30 -13z" />
    <glyph glyph-name="ncaron" unicode="&#x148;" horiz-adv-x="616" 
d="M559 345v-317q0 -28 -27 -28h-108q-28 0 -28 28v286q0 48 -18 71t-61 23q-47 0 -71 -28.5t-24 -77.5v-274q0 -28 -28 -28h-108q-27 0 -27 28v477q0 27 27 27h97q25 0 28 -22l8 -45q51 79 163 79q177 0 177 -199zM305 668l66 55q17 13 31 13h50q12 0 15.5 -9t-3.5 -17
l-91 -100q-14 -17 -38 -17h-61q-22 0 -38 17l-91 100q-7 8 -3.5 17t15.5 9h50q15 0 30 -13z" />
    <glyph glyph-name="napostrophe" unicode="&#x149;" horiz-adv-x="770" 
d="M714 345v-317q0 -28 -27 -28h-108q-28 0 -28 28v286q0 48 -18 71t-61 23q-47 0 -71 -28.5t-24 -77.5v-274q0 -28 -28 -28h-108q-27 0 -27 28v477q0 27 27 27h97q25 0 28 -22l8 -45q51 79 163 79q177 0 177 -199zM154 581l-56 -109q-8 -15 -24 -15h-33q-10 0 -13.5 7
t-0.5 16l38 102h-35q-28 0 -28 28v97q0 27 29 27h101q29 0 29 -27v-91q0 -22 -7 -35z" />
    <glyph glyph-name="Eng" unicode="&#x14a;" horiz-adv-x="709" 
d="M644 677v-643q0 -79 -38 -115.5t-117 -36.5q-47 0 -85 9q-27 6 -26 28l5 68q1 25 24 23q1 0 14 -2t22 -2q36 0 36 39l-248 373v-389q0 -29 -29 -29h-108q-29 0 -29 29v648q0 29 29 29h109q26 0 37 -19l238 -393v383q0 29 29 29h107q30 0 30 -29z" />
    <glyph glyph-name="eng" unicode="&#x14b;" horiz-adv-x="616" 
d="M396 57v257q0 48 -18 71t-61 23q-47 0 -71 -28.5t-24 -77.5v-274q0 -28 -28 -28h-108q-27 0 -27 28v477q0 27 27 27h97q26 0 29 -22l7 -45q51 79 163 79q177 0 177 -200v-303q0 -83 -36 -121t-117 -38q-42 0 -78 9q-25 6 -25 28v68q0 23 24 23q7 0 17.5 -1.5t15.5 -1.5
q36 0 36 50z" />
    <glyph glyph-name="Omacron" unicode="&#x14c;" horiz-adv-x="719" 
d="M359 718q152 0 235 -91t83 -274t-83 -273.5t-235 -90.5q-151 0 -234 90.5t-83 273.5t83 274t234 91zM359 137q73 0 108.5 52.5t35.5 163.5q0 217 -144 217q-143 0 -143 -217q0 -216 143 -216zM515 762h-311q-26 0 -26 26v42q0 26 26 26h311q26 0 26 -26v-42
q0 -26 -26 -26z" />
    <glyph glyph-name="omacron" unicode="&#x14d;" horiz-adv-x="612" 
d="M306 -11q125 0 197 71t72 206q0 136 -72 207t-197 71t-196.5 -71t-71.5 -207q0 -135 71.5 -206t196.5 -71zM306 115q-102 0 -102 151q0 152 102 152q103 0 103 -152q0 -151 -103 -151zM459 598h-305q-26 0 -26 26v39q0 26 26 26h305q26 0 26 -26v-39q0 -26 -26 -26z" />
    <glyph glyph-name="Obreve" unicode="&#x14e;" horiz-adv-x="719" 
d="M359 718q152 0 235 -91t83 -274t-83 -273.5t-235 -90.5q-151 0 -234 90.5t-83 273.5t83 274t234 91zM359 137q73 0 108.5 52.5t35.5 163.5q0 217 -144 217q-143 0 -143 -217q0 -216 143 -216zM360 753q-81 0 -123 38.5t-42 92.5q0 21 21 21h43q20 0 25 -20q12 -53 76 -53
q63 0 75 53q5 20 24 20h44q21 0 21 -21q0 -54 -42 -92.5t-122 -38.5z" />
    <glyph glyph-name="obreve" unicode="&#x14f;" horiz-adv-x="612" 
d="M306 -11q-125 0 -196.5 71t-71.5 206q0 136 71.5 207t196.5 71t197 -71t72 -207q0 -135 -72 -206t-197 -71zM306 115q103 0 103 151q0 152 -103 152q-102 0 -102 -152q0 -151 102 -151zM307 588q-82 0 -123 38.5t-41 93.5q0 21 21 21h41q21 0 24 -20q12 -55 78 -55
q65 0 76 55q5 20 25 20h41q21 0 21 -21q-1 -56 -41.5 -94t-121.5 -38z" />
    <glyph glyph-name="Ohungarumlaut" unicode="&#x150;" horiz-adv-x="719" 
d="M359 718q152 0 235 -91t83 -274t-83 -273.5t-235 -90.5q-151 0 -234 90.5t-83 273.5t83 274t234 91zM359 137q73 0 108.5 52.5t35.5 163.5q0 217 -144 217q-143 0 -143 -217q0 -216 143 -216zM209 784l36 91q7 20 30 20h110q13 0 16 -11.5t-5 -19.5l-75 -89
q-11 -14 -36 -14h-57q-12 0 -17 7t-2 16zM411 784l36 91q7 20 30 20h109q14 0 17 -11t-5 -20l-75 -89q-11 -14 -36 -14h-57q-12 0 -17.5 7t-1.5 16z" />
    <glyph glyph-name="ohungarumlaut" unicode="&#x151;" horiz-adv-x="612" 
d="M306 -11q125 0 197 71t72 206q0 136 -72 207t-197 71t-196.5 -71t-71.5 -207q0 -135 71.5 -206t196.5 -71zM306 115q-102 0 -102 151q0 152 102 152q103 0 103 -152q0 -151 -103 -151zM155 615l36 87q9 19 28 19h104q12 0 15.5 -10.5t-4.5 -18.5l-73 -85q-13 -14 -34 -14
h-53q-12 0 -17 6.5t-2 15.5zM349 615l34 87q6 19 29 19h103q14 0 17 -10.5t-5 -18.5l-72 -85q-11 -14 -35 -14h-53q-25 0 -18 22z" />
    <glyph glyph-name="OE" unicode="&#x152;" horiz-adv-x="934" 
d="M846 290h-226v-145h244q30 0 30 -29v-87q0 -29 -30 -29h-453q-175 0 -260 83t-85 270t85 270t260 83h448q30 0 30 -29v-87q0 -29 -30 -29h-239v-133h226q28 0 28 -29v-80q0 -29 -28 -29zM452 556h-34q-94 0 -136 -43.5t-42 -159.5t41.5 -159.5t135.5 -43.5h35v406z" />
    <glyph glyph-name="oe" unicode="&#x153;" horiz-adv-x="936" 
d="M697 103q62 0 125 30q26 12 36 -17l18 -54q8 -20 -16 -33q-78 -41 -178 -41q-63 0 -115.5 23t-82.5 63q-60 -85 -185 -85q-120 0 -190.5 71.5t-70.5 205.5q0 135 69.5 206.5t186.5 71.5q130 0 188 -81q58 81 180 81q108 0 172 -70t64 -184v-48q0 -28 -28 -28h-312
q9 -53 45 -82t94 -29zM302 115q101 0 101 151q0 152 -101 152q-98 0 -98 -152q0 -151 98 -151zM658 429q-95 0 -105 -122h200v7q0 53 -24.5 84t-70.5 31z" />
    <glyph glyph-name="Racute" unicode="&#x154;" horiz-adv-x="669" 
d="M235 363h93q69 0 98.5 23.5t29.5 75.5q0 55 -29 77t-98 22h-94v-198zM94 706h237q149 0 223 -57.5t74 -186.5q0 -166 -155 -213l150 -212q10 -13 4.5 -25t-21.5 -12h-116q-26 0 -41 23l-138 202h-76v-196q0 -29 -29 -29h-112q-29 0 -29 29v648q0 29 29 29zM272 779l40 87
q9 20 31 20h119q13 0 15.5 -11t-6.5 -19l-86 -85q-16 -14 -35 -14h-61q-12 0 -16.5 6.5t-0.5 15.5z" />
    <glyph glyph-name="racute" unicode="&#x155;" horiz-adv-x="422" 
d="M87 532h97q25 0 28 -24l8 -68q18 39 58.5 68.5t94.5 29.5q26 0 26 -25v-110q0 -22 -24 -22q-5 0 -16.5 1t-20.5 1q-53 0 -84.5 -36t-31.5 -91v-228q0 -28 -27 -28h-108q-28 0 -28 28v477q0 27 28 27zM146 615l40 87q8 19 30 19h118q13 0 15.5 -10.5t-6.5 -18.5l-85 -85
q-14 -14 -35 -14h-61q-11 0 -15.5 6.5t-0.5 15.5z" />
    <glyph glyph-name="Rcommaaccent" unicode="&#x156;" horiz-adv-x="669" 
d="M235 363h93q69 0 98.5 23.5t29.5 75.5q0 55 -29 77t-98 22h-94v-198zM94 706h237q149 0 223 -57.5t74 -186.5q0 -166 -155 -213l150 -212q10 -13 4.5 -25t-21.5 -12h-116q-26 0 -41 23l-138 202h-76v-196q0 -29 -29 -29h-112q-29 0 -29 29v648q0 29 29 29zM401 -182
l-49 -101q-7 -16 -22 -16h-24q-19 0 -14 20l26 95h-30q-25 0 -25 25v87q0 24 26 24h93q26 0 26 -24v-77q0 -16 -7 -33z" />
    <glyph glyph-name="rcommaaccent" unicode="&#x157;" horiz-adv-x="422" 
d="M87 532h97q25 0 28 -24l8 -68q18 39 58.5 68.5t94.5 29.5q26 0 26 -25v-110q0 -22 -24 -22q-5 0 -16.5 1t-20.5 1q-53 0 -84.5 -36t-31.5 -91v-228q0 -28 -27 -28h-108q-28 0 -28 28v477q0 27 28 27zM203 -174l-45 -98q-9 -15 -21 -15h-24q-18 0 -13 20l24 91h-29
q-23 0 -23 23v82q0 23 25 23h87q25 0 25 -23v-72q0 -19 -6 -31z" />
    <glyph glyph-name="Rcaron" unicode="&#x158;" horiz-adv-x="669" 
d="M235 363h93q69 0 98.5 23.5t29.5 75.5q0 55 -29 77t-98 22h-94v-198zM94 706h237q149 0 223 -57.5t74 -186.5q0 -166 -155 -213l150 -212q10 -13 4.5 -25t-21.5 -12h-116q-26 0 -41 23l-138 202h-76v-196q0 -29 -29 -29h-112q-29 0 -29 29v648q0 29 29 29zM331 833l67 52
q18 14 30 14h51q12 0 16 -9.5t-4 -16.5l-92 -100q-15 -16 -38 -16h-61q-22 0 -38 16l-92 100q-8 8 -4 17t16 9h51q13 0 30 -13z" />
    <glyph glyph-name="rcaron" unicode="&#x159;" horiz-adv-x="422" 
d="M87 532h97q25 0 28 -24l8 -68q18 39 58.5 68.5t94.5 29.5q26 0 26 -25v-110q0 -22 -24 -22q-5 0 -16.5 1t-20.5 1q-53 0 -84.5 -36t-31.5 -91v-228q0 -28 -27 -28h-108q-28 0 -28 28v477q0 27 28 27zM218 668l66 55q17 13 31 13h50q12 0 15.5 -9t-3.5 -17l-91 -100
q-14 -17 -38 -17h-61q-22 0 -38 17l-91 100q-7 8 -3.5 17t15.5 9h50q15 0 30 -13z" />
    <glyph glyph-name="Sacute" unicode="&#x15a;" horiz-adv-x="591" 
d="M557 198q0 -105 -75.5 -156.5t-196.5 -51.5q-143 0 -229 44q-24 12 -16 36l28 76q9 28 37 17q70 -30 152 -30q128 0 128 67q0 21 -18.5 38.5t-40 27t-66.5 25.5q-40 14 -64 24.5t-56 30t-49.5 41t-30 55.5t-12.5 77q0 99 67.5 148.5t194.5 49.5q123 0 201 -40
q25 -14 17 -36l-28 -72q-10 -27 -37 -17q-61 21 -136 21q-107 0 -107 -59q0 -13 6.5 -24.5t14 -18.5t27 -17t31 -15t40.5 -16q36 -14 49 -19t43 -19t42.5 -24t32.5 -27.5t28.5 -36t15.5 -44t7 -55.5zM233 779l40 87q9 20 31 20h119q13 0 15.5 -11t-6.5 -19l-86 -85
q-16 -14 -35 -14h-61q-12 0 -16.5 6.5t-0.5 15.5z" />
    <glyph glyph-name="sacute" unicode="&#x15b;" horiz-adv-x="486" 
d="M453 147q0 -158 -226 -158q-100 0 -176 29q-25 10 -18 33l17 58q6 26 34 17q59 -19 115 -19q94 0 94 45q0 22 -21.5 35t-71.5 29q-82 28 -111 50q-55 41 -55 122q0 78 55.5 117t156.5 39t165 -27q25 -10 18 -34l-17 -56q-8 -26 -34 -18q-55 17 -107 17q-77 0 -77 -43
q0 -22 21.5 -35t73.5 -32q41 -15 64.5 -26t49.5 -30.5t38 -47t12 -65.5zM179 615l40 87q8 19 30 19h118q13 0 15.5 -10.5t-6.5 -18.5l-85 -85q-14 -14 -35 -14h-61q-11 0 -15.5 6.5t-0.5 15.5z" />
    <glyph glyph-name="Scircumflex" unicode="&#x15c;" horiz-adv-x="591" 
d="M557 198q0 -105 -75.5 -156.5t-196.5 -51.5q-143 0 -229 44q-24 12 -16 36l28 76q9 28 37 17q70 -30 152 -30q128 0 128 67q0 21 -18.5 38.5t-40 27t-66.5 25.5q-40 14 -64 24.5t-56 30t-49.5 41t-30 55.5t-12.5 77q0 99 67.5 148.5t194.5 49.5q123 0 201 -40
q25 -14 17 -36l-28 -72q-10 -27 -37 -17q-61 21 -136 21q-107 0 -107 -59q0 -13 6.5 -24.5t14 -18.5t27 -17t31 -15t40.5 -16q36 -14 49 -19t43 -19t42.5 -24t32.5 -27.5t28.5 -36t15.5 -44t7 -55.5zM361 770l-67 53l-68 -53q-17 -13 -31 -13h-50q-13 0 -16.5 9t4.5 17
l92 99q16 17 38 17h61q22 0 38 -17l92 -99q8 -8 4.5 -17t-16.5 -9h-50q-16 0 -31 13z" />
    <glyph glyph-name="scircumflex" unicode="&#x15d;" horiz-adv-x="486" 
d="M453 147q0 -158 -226 -158q-100 0 -176 29q-25 10 -18 33l17 58q6 26 34 17q59 -19 115 -19q94 0 94 45q0 22 -21.5 35t-71.5 29q-82 28 -111 50q-55 41 -55 122q0 78 55.5 117t156.5 39t165 -27q25 -10 18 -34l-17 -56q-8 -26 -34 -18q-55 17 -107 17q-77 0 -77 -43
q0 -22 21.5 -35t73.5 -32q41 -15 64.5 -26t49.5 -30.5t38 -47t12 -65.5zM310 606l-66 54l-68 -54q-17 -13 -30 -13h-50q-12 0 -15.5 9t3.5 17l91 100q14 17 38 17h61q24 0 38 -17l91 -100q7 -8 3.5 -17t-15.5 -9h-50q-16 0 -31 13z" />
    <glyph glyph-name="Scedilla" unicode="&#x15e;" horiz-adv-x="591" 
d="M557 198q0 -95 -62.5 -146t-165.5 -60q72 -33 72 -91q0 -42 -30.5 -64.5t-89.5 -22.5q-37 0 -56 7q-16 5 -16 18v39q0 17 18 17h33q46 0 46 33t-46 63q-129 4 -204 43q-24 12 -16 36l28 76q9 28 37 17q70 -30 152 -30q128 0 128 67q0 21 -18.5 38.5t-40 27t-66.5 25.5
q-40 14 -64 24.5t-56 30t-49.5 41t-30 55.5t-12.5 77q0 99 67.5 148.5t194.5 49.5q123 0 201 -40q25 -14 17 -36l-28 -72q-10 -27 -37 -17q-61 21 -136 21q-107 0 -107 -59q0 -13 6.5 -24.5t14 -18.5t27 -17t31 -15t40.5 -16q36 -14 49 -19t43 -19t42.5 -24t32.5 -27.5
t28.5 -36t15.5 -44t7 -55.5z" />
    <glyph glyph-name="scedilla" unicode="&#x15f;" horiz-adv-x="486" 
d="M453 147q0 -140 -179 -156q67 -32 67 -85q0 -39 -29.5 -60.5t-85.5 -21.5q-33 0 -54 7q-15 3 -15 17v37q0 16 17 16h31q46 0 46 31q0 32 -42 57q-92 3 -158 29q-25 10 -18 33l17 58q6 26 34 17q59 -19 115 -19q94 0 94 45q0 22 -21.5 35t-71.5 29q-82 28 -111 50
q-55 41 -55 122q0 78 55.5 117t156.5 39t165 -27q25 -10 18 -34l-17 -56q-8 -26 -34 -18q-55 17 -107 17q-77 0 -77 -43q0 -22 21.5 -35t73.5 -32q41 -15 64.5 -26t49.5 -30.5t38 -47t12 -65.5z" />
    <glyph glyph-name="Scaron" unicode="&#x160;" horiz-adv-x="591" 
d="M557 198q0 -105 -75.5 -156.5t-196.5 -51.5q-143 0 -229 44q-24 12 -16 36l28 76q9 28 37 17q70 -30 152 -30q128 0 128 67q0 21 -18.5 38.5t-40 27t-66.5 25.5q-40 14 -64 24.5t-56 30t-49.5 41t-30 55.5t-12.5 77q0 99 67.5 148.5t194.5 49.5q123 0 201 -40
q25 -14 17 -36l-28 -72q-10 -27 -37 -17q-61 21 -136 21q-107 0 -107 -59q0 -13 6.5 -24.5t14 -18.5t27 -17t31 -15t40.5 -16q36 -14 49 -19t43 -19t42.5 -24t32.5 -27.5t28.5 -36t15.5 -44t7 -55.5zM292 833l67 52q18 14 30 14h51q12 0 16 -9.5t-4 -16.5l-92 -100
q-15 -16 -38 -16h-61q-22 0 -38 16l-92 100q-8 8 -4 17t16 9h51q13 0 30 -13z" />
    <glyph glyph-name="scaron" unicode="&#x161;" horiz-adv-x="486" 
d="M453 147q0 -158 -226 -158q-100 0 -176 29q-25 10 -18 33l17 58q6 26 34 17q59 -19 115 -19q94 0 94 45q0 22 -21.5 35t-71.5 29q-82 28 -111 50q-55 41 -55 122q0 78 55.5 117t156.5 39t165 -27q25 -10 18 -34l-17 -56q-8 -26 -34 -18q-55 17 -107 17q-77 0 -77 -43
q0 -22 21.5 -35t73.5 -32q41 -15 64.5 -26t49.5 -30.5t38 -47t12 -65.5zM244 668l66 55q17 13 31 13h50q12 0 15.5 -9t-3.5 -17l-91 -100q-14 -17 -38 -17h-61q-22 0 -38 17l-91 100q-7 8 -3.5 17t15.5 9h50q15 0 30 -13z" />
    <glyph glyph-name="Tcommaaccent" unicode="&#x162;" horiz-adv-x="576" 
d="M25 583v94q0 29 29 29h467q30 0 30 -29v-94q0 -30 -30 -30h-147v-524q0 -29 -30 -29h-112q-30 0 -30 29v524h-148q-29 0 -29 30zM352 -182l-49 -101q-7 -16 -22 -16h-24q-19 0 -14 20l26 95h-30q-25 0 -25 25v87q0 24 26 24h93q26 0 26 -24v-77q0 -16 -7 -33z" />
    <glyph glyph-name="tcommaaccent" unicode="&#x163;" horiz-adv-x="395" 
d="M340 397h-97v-219q0 -36 12.5 -49.5t47.5 -13.5q8 0 20.5 2.5t19.5 2.5q22 0 23 -25l4 -66q0 -13 -6 -18.5t-19 -9.5q-38 -10 -89 -10q-91 0 -132 38.5t-41 130.5v237h-46q-28 0 -28 27v65q0 28 28 28h48v121q0 24 28 24h100q28 0 28 -24v-121h99q27 0 27 -28v-65
q0 -27 -27 -27zM278 -174l-45 -98q-9 -15 -21 -15h-24q-18 0 -13 20l24 91h-29q-23 0 -23 23v82q0 23 25 23h87q25 0 25 -23v-72q0 -19 -6 -31z" />
    <glyph glyph-name="Tcaron" unicode="&#x164;" horiz-adv-x="576" 
d="M25 583v94q0 29 29 29h467q30 0 30 -29v-94q0 -30 -30 -30h-147v-524q0 -29 -30 -29h-112q-30 0 -30 29v524h-148q-29 0 -29 30zM287 833l67 52q18 14 30 14h51q12 0 16 -9.5t-4 -16.5l-92 -100q-15 -16 -38 -16h-61q-22 0 -38 16l-92 100q-8 8 -4 17t16 9h51
q13 0 30 -13z" />
    <glyph glyph-name="tcaron" unicode="&#x165;" horiz-adv-x="552" 
d="M339 397h-97v-219q0 -36 12.5 -49.5t47.5 -13.5q8 0 20.5 2.5t19.5 2.5q22 0 23 -25l4 -66q0 -13 -6 -18.5t-19 -9.5q-38 -10 -89 -10q-91 0 -132 38.5t-41 130.5v237h-46q-28 0 -28 27v65q0 28 28 28h48v121q0 24 28 24h100q28 0 28 -24v-121h99q27 0 27 -28v-65
q0 -27 -27 -27zM545 571l-56 -109q-8 -15 -24 -15h-33q-10 0 -13.5 7t-0.5 16l38 102h-35q-28 0 -28 28v97q0 27 29 27h101q29 0 29 -27v-91q0 -22 -7 -35z" />
    <glyph glyph-name="Tbar" unicode="&#x166;" horiz-adv-x="576" 
d="M25 583v94q0 29 29 29h467q30 0 30 -29v-94q0 -30 -30 -30h-147v-191h88q21 0 21 -20v-43q0 -20 -21 -20h-88v-250q0 -29 -30 -29h-112q-30 0 -30 29v250h-88q-21 0 -21 20v43q0 20 21 20h88v191h-148q-29 0 -29 30z" />
    <glyph glyph-name="tbar" unicode="&#x167;" horiz-adv-x="395" 
d="M340 397h-97v-96h86q21 0 21 -20v-36q0 -20 -21 -20h-86v-47q0 -36 12.5 -49.5t47.5 -13.5q8 0 20.5 2.5t19.5 2.5q22 0 23 -25l4 -66q1 -20 -25 -28q-38 -10 -89 -10q-92 0 -132.5 38.5t-40.5 131.5v64h-53q-21 0 -21 20v36q0 20 21 20h53v96h-46q-28 0 -28 27v65
q0 28 28 28h48v121q0 24 28 24h100q28 0 28 -24v-121h99q27 0 27 -28v-65q0 -27 -27 -27z" />
    <glyph glyph-name="Utilde" unicode="&#x168;" horiz-adv-x="692" 
d="M346 -11q-285 0 -285 271v417q0 29 29 29h113q30 0 30 -29v-402q0 -68 26.5 -101t86.5 -33t87 33t27 101v402q0 29 29 29h113q29 0 29 -29v-417q0 -271 -285 -271zM533 841q0 -41 -21.5 -64.5t-62.5 -23.5q-43 0 -85 16l-43 16q-33 12 -52 12q-23 0 -24 -16l-1 -7
q-3 -18 -25 -18h-35q-14 0 -20 7t-6 26q0 43 22 67.5t65 24.5q38 0 82 -17l44 -16q33 -12 50 -12q22 0 25 17l1 7q3 19 25 19h35q26 0 26 -38z" />
    <glyph glyph-name="utilde" unicode="&#x169;" horiz-adv-x="610" 
d="M54 181v324q0 27 28 27h108q27 0 27 -27v-292q0 -45 16.5 -68t58.5 -23q45 0 70 28t25 75v280q0 27 28 27h108q27 0 27 -27v-477q0 -28 -27 -28h-97q-25 0 -29 22l-7 46q-49 -79 -156 -79q-92 0 -136 46.5t-44 145.5zM485 677q0 -86 -79 -86q-40 0 -83 16l-43 15
q-64 25 -70 -4l-1 -7q-4 -17 -25 -17h-35q-14 0 -20 6.5t-6 24.5q0 42 21 66t61 24q37 0 81 -16l44 -16q65 -22 69 6l1 7q4 17 25 17h35q25 0 25 -36z" />
    <glyph glyph-name="Umacron" unicode="&#x16a;" horiz-adv-x="692" 
d="M346 -11q-285 0 -285 271v417q0 29 29 29h113q30 0 30 -29v-402q0 -68 26.5 -101t86.5 -33t87 33t27 101v402q0 29 29 29h113q29 0 29 -29v-417q0 -271 -285 -271zM501 762h-311q-26 0 -26 26v42q0 26 26 26h311q26 0 26 -26v-42q0 -26 -26 -26z" />
    <glyph glyph-name="umacron" unicode="&#x16b;" horiz-adv-x="610" 
d="M54 181v324q0 27 28 27h108q27 0 27 -27v-292q0 -45 16.5 -68t58.5 -23q45 0 70 28t25 75v280q0 27 28 27h108q27 0 27 -27v-477q0 -28 -27 -28h-97q-25 0 -29 22l-7 46q-49 -79 -156 -79q-92 0 -136 46.5t-44 145.5zM457 598h-305q-26 0 -26 26v39q0 26 26 26h305
q26 0 26 -26v-39q0 -26 -26 -26z" />
    <glyph glyph-name="Ubreve" unicode="&#x16c;" horiz-adv-x="692" 
d="M346 -11q-285 0 -285 271v417q0 29 29 29h113q30 0 30 -29v-402q0 -68 26.5 -101t86.5 -33t87 33t27 101v402q0 29 29 29h113q29 0 29 -29v-417q0 -271 -285 -271zM346 753q-81 0 -123 38.5t-42 92.5q0 21 21 21h43q20 0 25 -20q12 -53 76 -53q63 0 75 53q5 20 24 20h44
q21 0 21 -21q0 -54 -42 -92.5t-122 -38.5z" />
    <glyph glyph-name="ubreve" unicode="&#x16d;" horiz-adv-x="610" 
d="M54 181v324q0 27 28 27h108q27 0 27 -27v-292q0 -45 16.5 -68t58.5 -23q45 0 70 28t25 75v280q0 27 28 27h108q27 0 27 -27v-477q0 -28 -27 -28h-97q-25 0 -29 22l-7 46q-49 -79 -156 -79q-92 0 -136 46.5t-44 145.5zM305 588q-82 0 -123 38.5t-41 93.5q0 21 21 21h41
q21 0 24 -20q12 -55 78 -55q65 0 76 55q5 20 25 20h41q21 0 21 -21q-1 -56 -41.5 -94t-121.5 -38z" />
    <glyph glyph-name="Uring" unicode="&#x16e;" horiz-adv-x="692" 
d="M346 -11q-285 0 -285 271v417q0 29 29 29h113q30 0 30 -29v-402q0 -68 26.5 -101t86.5 -33t87 33t27 101v402q0 29 29 29h113q29 0 29 -29v-417q0 -271 -285 -271zM291 846q0 -23 15.5 -37t39.5 -14t39 14t15 37t-15 37t-39 14t-39.5 -14t-15.5 -37zM224 846
q0 50 34.5 81t87.5 31q52 0 86.5 -31t34.5 -81t-34.5 -81t-86.5 -31q-53 0 -87.5 31t-34.5 81z" />
    <glyph glyph-name="uring" unicode="&#x16f;" horiz-adv-x="610" 
d="M54 181v324q0 27 28 27h108q27 0 27 -27v-292q0 -45 16.5 -68t58.5 -23q45 0 70 28t25 75v280q0 27 28 27h108q27 0 27 -27v-477q0 -28 -27 -28h-97q-25 0 -29 22l-7 46q-49 -79 -156 -79q-92 0 -136 46.5t-44 145.5zM305 646q23 0 38 14t15 36t-15.5 36t-38.5 14
t-38 -14t-15 -36t15 -36t39 -14zM304 805q52 0 86 -30.5t34 -78.5q0 -49 -33.5 -79t-85.5 -30t-86 30t-34 79q0 48 33.5 78.5t85.5 30.5z" />
    <glyph glyph-name="Uhungarumlaut" unicode="&#x170;" horiz-adv-x="692" 
d="M346 -11q-285 0 -285 271v417q0 29 29 29h113q30 0 30 -29v-402q0 -68 26.5 -101t86.5 -33t87 33t27 101v402q0 29 29 29h113q29 0 29 -29v-417q0 -271 -285 -271zM182 784l36 91q7 20 30 20h110q13 0 16 -11.5t-5 -19.5l-75 -89q-11 -14 -36 -14h-57q-12 0 -17 7t-2 16z
M384 784l36 91q7 20 30 20h109q14 0 17 -11t-5 -20l-75 -89q-11 -14 -36 -14h-57q-12 0 -17.5 7t-1.5 16z" />
    <glyph glyph-name="uhungarumlaut" unicode="&#x171;" horiz-adv-x="610" 
d="M54 181v324q0 27 28 27h108q27 0 27 -27v-292q0 -45 16.5 -68t58.5 -23q45 0 70 28t25 75v280q0 27 28 27h108q27 0 27 -27v-477q0 -28 -27 -28h-97q-25 0 -29 22l-7 46q-49 -79 -156 -79q-92 0 -136 46.5t-44 145.5zM146 615l36 87q9 19 28 19h104q12 0 15.5 -10.5
t-4.5 -18.5l-73 -85q-13 -14 -34 -14h-53q-12 0 -17 6.5t-2 15.5zM340 615l34 87q6 19 29 19h103q14 0 17 -10.5t-5 -18.5l-72 -85q-11 -14 -35 -14h-53q-25 0 -18 22z" />
    <glyph glyph-name="Uogonek" unicode="&#x172;" horiz-adv-x="692" 
d="M631 260q0 -238 -222 -267q-41 -27 -41 -62q0 -33 47 -33q10 0 19.5 2.5t12.5 2.5q12 0 15 -11l11 -38q4 -13 -10 -21q-29 -19 -83 -19q-109 0 -109 80q0 55 63 95q-273 6 -273 271v417q0 29 29 29h113q30 0 30 -29v-402q0 -68 26.5 -101t86.5 -33t87 33t27 101v402
q0 29 29 29h113q29 0 29 -29v-417z" />
    <glyph glyph-name="uogonek" unicode="&#x173;" horiz-adv-x="610" 
d="M54 181v324q0 27 28 27h108q27 0 27 -27v-292q0 -45 16.5 -68t58.5 -23q45 0 70 28t25 75v280q0 27 28 27h108q27 0 27 -27v-477q0 -28 -27 -28h-17q-51 -28 -51 -65q0 -31 43 -31q10 0 19.5 2t12.5 2q12 1 15 -11l10 -35q4 -13 -9 -20q-30 -18 -80 -18q-104 0 -104 76
q0 31 23 58t57 42h-16q-25 0 -29 22l-7 46q-49 -79 -156 -79q-92 0 -136 46.5t-44 145.5z" />
    <glyph glyph-name="Wcircumflex" unicode="&#x174;" horiz-adv-x="1037" 
d="M468 706h101q30 0 36 -26l77 -298l39 -174h4l37 173l73 298q6 27 35 27h117q14 0 20 -9.5t2 -25.5l-177 -644q-8 -27 -36 -27h-125q-29 0 -36 27l-80 285l-35 144h-3l-35 -144l-80 -285q-8 -27 -36 -27h-124q-28 0 -36 27l-178 644q-4 16 2 25.5t20 9.5h117q29 0 35 -27
l73 -298l38 -173h3l39 174l77 298q6 26 36 26zM586 770l-67 53l-68 -53q-17 -13 -31 -13h-50q-13 0 -16.5 9t4.5 17l92 99q16 17 38 17h61q22 0 38 -17l92 -99q8 -8 4.5 -17t-16.5 -9h-50q-16 0 -31 13z" />
    <glyph glyph-name="wcircumflex" unicode="&#x175;" horiz-adv-x="866" 
d="M393 532h79q24 0 31 -23l69 -240l24 -105h2l21 105l58 238q6 25 33 25h111q31 0 21 -32l-140 -473q-8 -27 -35 -27h-106q-27 0 -36 27l-63 208l-27 110h-4l-27 -110l-62 -208q-9 -27 -37 -27h-106q-26 0 -34 27l-142 473q-5 14 1 23t21 9h111q27 0 33 -25l59 -238
l20 -105h2l24 105l69 240q7 23 30 23zM499 606l-66 54l-68 -54q-17 -13 -30 -13h-50q-12 0 -15.5 9t3.5 17l91 100q14 17 38 17h61q24 0 38 -17l91 -100q7 -8 3.5 -17t-15.5 -9h-50q-16 0 -31 13z" />
    <glyph glyph-name="Ycircumflex" unicode="&#x176;" horiz-adv-x="676" 
d="M424 260v-231q0 -29 -29 -29h-114q-29 0 -29 29v231l-228 410q-8 13 -2 24.5t21 11.5h119q26 0 39 -27l95 -190l41 -94h2l41 94l95 190q13 27 39 27h119q15 0 21 -11.5t-2 -24.5zM406 770l-67 53l-68 -53q-17 -13 -31 -13h-50q-13 0 -16.5 9t4.5 17l92 99q16 17 38 17h61
q22 0 38 -17l92 -99q8 -8 4.5 -17t-16.5 -9h-50q-16 0 -31 13z" />
    <glyph glyph-name="ycircumflex" unicode="&#x177;" horiz-adv-x="560" 
d="M544 500l-146 -450q-31 -97 -71 -132.5t-136 -35.5q-70 0 -107 11q-27 6 -26 28l4 66q1 23 24 23q3 0 23 -3t38 -3q34 0 45.5 16.5t0.5 42.5l-174 437q-5 14 0 23t19 9h112q27 0 34 -25l70 -218l38 -140h3l31 140l54 218q6 25 32 25h110q14 0 20 -9t2 -23zM347 606
l-66 54l-68 -54q-17 -13 -30 -13h-50q-12 0 -15.5 9t3.5 17l91 100q14 17 38 17h61q24 0 38 -17l91 -100q7 -8 3.5 -17t-15.5 -9h-50q-16 0 -31 13z" />
    <glyph glyph-name="Ydieresis" unicode="&#x178;" horiz-adv-x="676" 
d="M424 260v-231q0 -29 -29 -29h-114q-29 0 -29 29v231l-228 410q-8 13 -2 24.5t21 11.5h119q26 0 39 -27l95 -190l41 -94h2l41 94l95 190q13 27 39 27h119q15 0 21 -11.5t-2 -24.5zM303 843v-59q0 -27 -28 -27h-86q-27 0 -27 27v59q0 28 27 28h86q28 0 28 -28zM515 843v-59
q0 -27 -28 -27h-85q-28 0 -28 27v59q0 28 28 28h85q28 0 28 -28z" />
    <glyph glyph-name="Zacute" unicode="&#x179;" horiz-adv-x="620" 
d="M48 29v90q0 23 18 46l296 388h-276q-29 0 -29 30v94q0 29 29 29h447q29 0 29 -29v-90q0 -21 -18 -46l-294 -388h290q29 0 29 -29v-95q0 -29 -29 -29h-463q-29 0 -29 29zM249 779l40 87q9 20 31 20h119q13 0 15.5 -11t-6.5 -19l-86 -85q-16 -14 -35 -14h-61
q-12 0 -16.5 6.5t-0.5 15.5z" />
    <glyph glyph-name="zacute" unicode="&#x17a;" horiz-adv-x="529" 
d="M484 505v-57q0 -22 -15 -39l-236 -280h227q27 0 27 -27v-74q0 -28 -27 -28h-393q-27 0 -27 28v57q0 17 12 34l240 284h-216q-28 0 -28 27v75q0 27 28 27h381q27 0 27 -27zM199 615l40 87q8 19 30 19h118q13 0 15.5 -10.5t-6.5 -18.5l-85 -85q-14 -14 -35 -14h-61
q-11 0 -15.5 6.5t-0.5 15.5z" />
    <glyph glyph-name="Zdotaccent" unicode="&#x17b;" horiz-adv-x="620" 
d="M48 29v90q0 23 18 46l296 388h-276q-29 0 -29 30v94q0 29 29 29h447q29 0 29 -29v-90q0 -21 -18 -46l-294 -388h290q29 0 29 -29v-95q0 -29 -29 -29h-463q-29 0 -29 29zM389 855v-72q0 -28 -28 -28h-103q-28 0 -28 28v72q0 27 28 27h103q28 0 28 -27z" />
    <glyph glyph-name="zdotaccent" unicode="&#x17c;" horiz-adv-x="529" 
d="M484 505v-57q0 -22 -15 -39l-236 -280h227q27 0 27 -27v-74q0 -28 -27 -28h-393q-27 0 -27 28v57q0 17 12 34l240 284h-216q-28 0 -28 27v75q0 27 28 27h381q27 0 27 -27zM344 687v-69q0 -27 -28 -27h-103q-28 0 -28 27v69q0 28 28 28h103q28 0 28 -28z" />
    <glyph glyph-name="Zcaron" unicode="&#x17d;" horiz-adv-x="620" 
d="M48 29v90q0 23 18 46l296 388h-276q-29 0 -29 30v94q0 29 29 29h447q29 0 29 -29v-90q0 -21 -18 -46l-294 -388h290q29 0 29 -29v-95q0 -29 -29 -29h-463q-29 0 -29 29zM309 833l67 52q18 14 30 14h51q12 0 16 -9.5t-4 -16.5l-92 -100q-15 -16 -38 -16h-61q-22 0 -38 16
l-92 100q-8 8 -4 17t16 9h51q13 0 30 -13z" />
    <glyph glyph-name="zcaron" unicode="&#x17e;" horiz-adv-x="529" 
d="M484 505v-57q0 -22 -15 -39l-236 -280h227q27 0 27 -27v-74q0 -28 -27 -28h-393q-27 0 -27 28v57q0 17 12 34l240 284h-216q-28 0 -28 27v75q0 27 28 27h381q27 0 27 -27zM265 668l66 55q17 13 31 13h50q12 0 15.5 -9t-3.5 -17l-91 -100q-14 -17 -38 -17h-61
q-22 0 -38 17l-91 100q-7 8 -3.5 17t15.5 9h50q15 0 30 -13z" />
    <glyph glyph-name="longs" unicode="&#x17f;" horiz-adv-x="351" 
d="M244 543v-518q0 -25 -28 -25h-99q-28 0 -28 25v372h-45q-27 0 -27 27v65q0 28 27 28h45v38q0 84 41.5 122t128.5 38q50 0 80 -9q24 -6 24 -28v-59q0 -14 -6 -21t-17 -6q-30 4 -42 4q-29 0 -41.5 -12.5t-12.5 -40.5z" />
    <glyph glyph-name="florin" unicode="&#x192;" horiz-adv-x="647" 
d="M423 539l-19 -142h117q22 0 19 -22l-5 -35q-3 -20 -23 -20h-118l-36 -280q-10 -83 -50.5 -121t-123.5 -38q-47 0 -79 10q-26 6 -22 28l9 68q4 23 27 23q5 0 16 -2t18 -2q39 0 45 50l33 264h-84q-21 0 -18 21l4 36q3 20 24 20h84l20 157q11 85 58 123.5t134 38.5
q59 0 91 -9q26 -8 23 -29l-9 -57q-5 -28 -27 -28q-8 0 -21.5 2.5t-19.5 2.5q-60 0 -67 -59z" />
    <glyph glyph-name="Aringacute" unicode="&#x1fa;" horiz-adv-x="693" 
d="M225 757q0 35 18.5 62t49.5 40l32 69q9 20 31 20h119q13 0 15.5 -11t-6.5 -19l-68 -67q52 -31 52 -94q0 -37 -21 -66l5 -12l223 -645q5 -15 -1.5 -24.5t-20.5 -9.5h-119q-26 0 -35 27l-37 108h-232l-36 -108q-9 -27 -34 -27h-120q-14 0 -20.5 9.5t-1.5 24.5l223 645
q1 4 5 12q-21 27 -21 66zM262 278h167l-81 259h-2zM292 757q0 -23 15.5 -37t39.5 -14t39 14t15 37t-15 37t-39 14t-39.5 -14t-15.5 -37z" />
    <glyph glyph-name="aringacute" unicode="&#x1fb;" horiz-adv-x="586" 
d="M529 354v-326q0 -28 -27 -28h-91q-24 0 -28 22l-6 44q-54 -74 -176 -74q-77 0 -123.5 40t-46.5 116q0 44 16.5 76t43.5 51t73 30t92.5 15.5t114.5 5.5v19q0 75 -103 75q-69 0 -144 -28q-26 -11 -34 17l-20 62q-8 23 16 34q90 39 206 39q237 0 237 -190zM173 696
q0 71 66 99l34 73q8 19 30 19h118q13 0 15.5 -10.5t-6.5 -18.5l-70 -70q52 -31 52 -92q0 -49 -33.5 -79t-85.5 -30t-86 30t-34 79zM371 197v42q-97 -2 -141 -18.5t-44 -61.5q0 -28 20 -45t55 -17q55 0 82.5 27.5t27.5 72.5zM293 646q23 0 38 14t15 36t-15 36t-39 14
q-23 0 -38 -14t-15 -36t15 -36t39 -14z" />
    <glyph glyph-name="AEacute" unicode="&#x1fc;" horiz-adv-x="902" 
d="M814 290h-227v-145h246q29 0 29 -29v-87q0 -29 -29 -29h-385q-30 0 -30 29v103h-188l-45 -105q-11 -27 -36 -27h-121q-15 0 -21 10t0 24l275 645q10 27 37 27h509q29 0 29 -29v-87q0 -29 -29 -29h-241v-133h227q28 0 28 -29v-80q0 -29 -28 -29zM270 274h148v288h-28z
M395 779l40 87q9 20 31 20h119q13 0 15.5 -11t-6.5 -19l-86 -85q-16 -14 -35 -14h-61q-12 0 -16.5 6.5t-0.5 15.5z" />
    <glyph glyph-name="aeacute" unicode="&#x1fd;" horiz-adv-x="908" 
d="M669 103q63 0 126 30q25 11 35 -17l19 -54q6 -20 -18 -34q-74 -40 -176 -40q-80 0 -134 27.5t-75 71.5q-68 -95 -212 -95q-103 0 -153 38.5t-50 118.5q0 45 17 75.5t42.5 47.5t74 27t91.5 12.5t115 3.5v36q0 69 -102 69q-71 0 -146 -28q-26 -10 -35 17l-20 62
q-8 24 17 34q97 39 201 39q137 0 174 -79q25 37 71.5 58t104.5 21q108 0 171 -67.5t63 -181.5v-51q0 -27 -28 -27h-313q10 -53 45.5 -83.5t94.5 -30.5zM630 429q-96 0 -106 -119h201v7q0 112 -95 112zM371 203v24q-35 -1 -55 -1.5t-44.5 -3t-37.5 -7t-25.5 -11.5t-17.5 -18
t-5 -27q0 -61 77 -61q54 0 81 29.5t27 75.5zM376 615l40 87q8 19 30 19h118q13 0 15.5 -10.5t-6.5 -18.5l-85 -85q-14 -14 -35 -14h-61q-11 0 -15.5 6.5t-0.5 15.5z" />
    <glyph glyph-name="Oslashacute" unicode="&#x1fe;" horiz-adv-x="722" 
d="M361 718q108 0 184 -54l30 35q17 21 38 6l33 -24q22 -16 5 -39l-36 -45q63 -91 63 -244q0 -183 -83 -273.5t-234 -90.5q-113 0 -186 53l-31 -36q-17 -22 -38 -5l-33 25q-20 16 -5 37l37 46q-62 91 -62 244q0 182 83.5 273.5t234.5 91.5zM361 137q143 0 143 216
q0 48 -10 88l-224 -272q36 -32 91 -32zM218 353q0 -53 10 -87l222 271q-36 33 -89 33q-143 0 -143 -217zM305 779l40 87q9 20 31 20h119q13 0 15.5 -11t-6.5 -19l-86 -85q-16 -14 -35 -14h-61q-12 0 -16.5 6.5t-0.5 15.5z" />
    <glyph glyph-name="oslashacute" unicode="&#x1ff;" horiz-adv-x="616" 
d="M244 615l40 87q8 19 30 19h118q13 0 15.5 -10.5t-6.5 -18.5l-85 -85q-14 -14 -35 -14h-61q-11 0 -15.5 6.5t-0.5 15.5zM308 -11q125 0 197 71t72 206q0 111 -50 181l26 30q17 19 -3 36l-22 20q-19 18 -38 -4l-24 -26q-66 41 -158 41q-125 0 -196.5 -71t-71.5 -207
q0 -112 49 -180l-26 -30q-17 -19 3 -36l22 -20q20 -18 38 3l24 27q62 -41 158 -41zM308 418q44 0 68 -26l-162 -179q-8 22 -8 53q0 152 102 152zM308 115q-43 0 -67 25l161 180q9 -21 9 -54q0 -151 -103 -151z" />
    <glyph glyph-name="Scommaaccent" unicode="&#x218;" horiz-adv-x="591" 
d="M557 198q0 -105 -75.5 -156.5t-196.5 -51.5q-143 0 -229 44q-24 12 -16 36l28 76q9 28 37 17q70 -30 152 -30q128 0 128 67q0 21 -18.5 38.5t-40 27t-66.5 25.5q-40 14 -64 24.5t-56 30t-49.5 41t-30 55.5t-12.5 77q0 99 67.5 148.5t194.5 49.5q123 0 201 -40
q25 -14 17 -36l-28 -72q-10 -27 -37 -17q-61 21 -136 21q-107 0 -107 -59q0 -13 6.5 -24.5t14 -18.5t27 -17t31 -15t40.5 -16q36 -14 49 -19t43 -19t42.5 -24t32.5 -27.5t28.5 -36t15.5 -44t7 -55.5zM363 -182l-49 -101q-7 -16 -22 -16h-24q-19 0 -14 20l26 95h-30
q-25 0 -25 25v87q0 24 26 24h93q26 0 26 -24v-77q0 -16 -7 -33z" />
    <glyph glyph-name="scommaaccent" unicode="&#x219;" horiz-adv-x="486" 
d="M453 147q0 -158 -226 -158q-100 0 -176 29q-25 10 -18 33l17 58q6 26 34 17q59 -19 115 -19q94 0 94 45q0 22 -21.5 35t-71.5 29q-82 28 -111 50q-55 41 -55 122q0 78 55.5 117t156.5 39t165 -27q25 -10 18 -34l-17 -56q-8 -26 -34 -18q-55 17 -107 17q-77 0 -77 -43
q0 -22 21.5 -35t73.5 -32q41 -15 64.5 -26t49.5 -30.5t38 -47t12 -65.5zM308 -174l-45 -98q-9 -15 -21 -15h-24q-18 0 -13 20l24 91h-29q-23 0 -23 23v82q0 23 25 23h87q25 0 25 -23v-72q0 -19 -6 -31z" />
    <glyph glyph-name="uni021A" unicode="&#x21a;" horiz-adv-x="576" 
d="M25 583v94q0 29 29 29h467q30 0 30 -29v-94q0 -30 -30 -30h-147v-524q0 -29 -30 -29h-112q-30 0 -30 29v524h-148q-29 0 -29 30zM352 -182l-49 -101q-7 -16 -22 -16h-24q-19 0 -14 20l26 95h-30q-25 0 -25 25v87q0 24 26 24h93q26 0 26 -24v-77q0 -16 -7 -33z" />
    <glyph glyph-name="uni021B" unicode="&#x21b;" horiz-adv-x="395" 
d="M340 397h-97v-219q0 -36 12.5 -49.5t47.5 -13.5q8 0 20.5 2.5t19.5 2.5q22 0 23 -25l4 -66q0 -13 -6 -18.5t-19 -9.5q-38 -10 -89 -10q-91 0 -132 38.5t-41 130.5v237h-46q-28 0 -28 27v65q0 28 28 28h48v121q0 24 28 24h100q28 0 28 -24v-121h99q27 0 27 -28v-65
q0 -27 -27 -27zM278 -174l-45 -98q-9 -15 -21 -15h-24q-18 0 -13 20l24 91h-29q-23 0 -23 23v82q0 23 25 23h87q25 0 25 -23v-72q0 -19 -6 -31z" />
    <glyph glyph-name="dotlessj" unicode="&#x237;" horiz-adv-x="309" 
d="M83 57v448q0 27 27 27h108q28 0 28 -27v-464q0 -84 -36.5 -121.5t-118.5 -37.5q-49 0 -79 8q-26 6 -26 29v68q0 23 24 23q6 0 18 -1.5t17 -1.5q20 0 29 11.5t9 38.5z" />
    <glyph glyph-name="circumflex" unicode="&#x2c6;" horiz-adv-x="365" 
d="M249 606l-66 54l-68 -54q-17 -13 -30 -13h-50q-12 0 -15.5 9t3.5 17l91 100q14 17 38 17h61q24 0 38 -17l91 -100q7 -8 3.5 -17t-15.5 -9h-50q-16 0 -31 13z" />
    <glyph glyph-name="caron" unicode="&#x2c7;" horiz-adv-x="365" 
d="M183 668l66 55q17 13 31 13h50q12 0 15.5 -9t-3.5 -17l-91 -100q-14 -17 -38 -17h-61q-22 0 -38 17l-91 100q-7 8 -3.5 17t15.5 9h50q15 0 30 -13z" />
    <glyph glyph-name="uni02C9" unicode="&#x2c9;" horiz-adv-x="365" 
d="M335 598h-305q-26 0 -26 26v39q0 26 26 26h305q26 0 26 -26v-39q0 -26 -26 -26z" />
    <glyph glyph-name="breve" unicode="&#x2d8;" horiz-adv-x="365" 
d="M183 588q-82 0 -123 38.5t-41 93.5q0 21 21 21h41q21 0 24 -20q12 -55 78 -55q65 0 76 55q5 20 25 20h41q21 0 21 -21q-1 -56 -41.5 -94t-121.5 -38z" />
    <glyph glyph-name="dotaccent" unicode="&#x2d9;" horiz-adv-x="365" 
d="M262 687v-69q0 -27 -28 -27h-103q-28 0 -28 27v69q0 28 28 28h103q28 0 28 -28z" />
    <glyph glyph-name="ring" unicode="&#x2da;" horiz-adv-x="365" 
d="M183 646q23 0 38 14t15 36t-15 36t-39 14q-23 0 -38 -14t-15 -36t15 -36t39 -14zM182 805q52 0 86 -30.5t34 -78.5q0 -49 -33.5 -79t-85.5 -30t-86 30t-34 79q0 48 33.5 78.5t85.5 30.5z" />
    <glyph glyph-name="ogonek" unicode="&#x2db;" horiz-adv-x="365" 
d="M189 11l52 -2q-70 -30 -70 -74q0 -31 43 -31q10 0 19.5 2t12.5 2q12 1 15 -11l10 -35q4 -13 -9 -20q-30 -18 -80 -18q-104 0 -104 76q0 37 34.5 69t76.5 42z" />
    <glyph glyph-name="tilde" unicode="&#x2dc;" horiz-adv-x="365" 
d="M363 677q0 -86 -79 -86q-40 0 -83 16l-43 15q-64 25 -70 -4l-1 -7q-4 -17 -25 -17h-35q-14 0 -20 6.5t-6 24.5q0 42 21 66t61 24q37 0 81 -16l44 -16q65 -22 69 6l1 7q4 17 25 17h35q25 0 25 -36z" />
    <glyph glyph-name="hungarumlaut" unicode="&#x2dd;" horiz-adv-x="365" 
d="M37 615l36 87q9 19 28 19h104q12 0 15.5 -10.5t-4.5 -18.5l-73 -85q-13 -14 -34 -14h-53q-12 0 -17 6.5t-2 15.5zM231 615l34 87q6 19 29 19h103q14 0 17 -10.5t-5 -18.5l-72 -85q-11 -14 -35 -14h-53q-25 0 -18 22z" />
    <glyph glyph-name="uni037E" unicode="&#x37e;" horiz-adv-x="260" 
d="M49 215v106q0 27 30 27h103q29 0 29 -27v-106q0 -28 -27 -28h-108q-27 0 -27 28z" />
    <glyph glyph-name="uni0394" unicode="&#x394;" horiz-adv-x="694" 
d="M270 706h153q24 0 30 -21l198 -652q9 -33 -24 -33h-561q-32 0 -23 33l198 652q6 21 29 21zM345 564l-119 -432h241l-118 432h-4z" />
    <glyph glyph-name="uni03A9" unicode="&#x3a9;" horiz-adv-x="805" 
d="M403 718q166 0 258 -82.5t92 -221.5q0 -96 -49 -163t-122 -102v-31l110 13q33 5 33 -24v-81q0 -26 -29 -26h-249v146q0 18 17 28q122 67 122 213q0 90 -48.5 139.5t-134.5 49.5t-134.5 -49.5t-48.5 -139.5q0 -140 122 -213q16 -11 16 -28v-146h-249q-29 0 -29 26v81
q0 29 33 24l110 -13v31q-73 35 -122 102t-49 163q0 138 92.5 221t258.5 83z" />
    <glyph glyph-name="uni03BC" unicode="&#x3bc;" horiz-adv-x="611" 
d="M555 505v-324q0 -99 -43.5 -146t-135.5 -47q-109 0 -156 79l2 -151q0 -26 -28 -26h-107q-28 0 -28 28v587q0 27 28 27h108q27 0 27 -27v-281q0 -47 25 -74.5t70 -27.5q42 0 58.5 22.5t16.5 67.5v293q0 27 28 27h108q27 0 27 -27z" />
    <glyph glyph-name="pi" unicode="&#x3c0;" horiz-adv-x="745" 
d="M584 398v-221q0 -36 12.5 -49.5t45.5 -13.5q8 0 21.5 1.5t16.5 1.5q12 1 18.5 -5.5t6.5 -19.5v-64q0 -22 -26 -28q-34 -9 -84 -9q-88 0 -127 38t-39 130v239h-122l-74 -373q-5 -25 -32 -25h-101q-30 0 -25 25l76 373h-86q-27 0 -27 28v79q0 27 27 27h612q28 0 28 -27v-79
q0 -28 -28 -28h-93z" />
    <glyph glyph-name="Wgrave" unicode="&#x1e80;" horiz-adv-x="1037" 
d="M468 706h101q30 0 36 -26l77 -298l39 -174h4l37 173l73 298q6 27 35 27h117q14 0 20 -9.5t2 -25.5l-177 -644q-8 -27 -36 -27h-125q-29 0 -36 27l-80 285l-35 144h-3l-35 -144l-80 -285q-8 -27 -36 -27h-124q-28 0 -36 27l-178 644q-4 16 2 25.5t20 9.5h117q29 0 35 -27
l73 -298l38 -173h3l39 174l77 298q6 26 36 26zM525 866l40 -87q4 -9 -0.5 -15.5t-16.5 -6.5h-61q-21 0 -35 14l-87 85q-9 8 -6 19t16 11h119q22 0 31 -20z" />
    <glyph glyph-name="wgrave" unicode="&#x1e81;" horiz-adv-x="866" 
d="M393 532h79q24 0 31 -23l69 -240l24 -105h2l21 105l58 238q6 25 33 25h111q31 0 21 -32l-140 -473q-8 -27 -35 -27h-106q-27 0 -36 27l-63 208l-27 110h-4l-27 -110l-62 -208q-9 -27 -37 -27h-106q-26 0 -34 27l-142 473q-5 14 1 23t21 9h111q27 0 33 -25l59 -238
l20 -105h2l24 105l69 240q7 23 30 23zM442 702l40 -87q7 -22 -17 -22h-61q-21 0 -35 14l-86 85q-9 8 -6 18.5t16 10.5h118q23 0 31 -19z" />
    <glyph glyph-name="Wacute" unicode="&#x1e82;" horiz-adv-x="1037" 
d="M468 706h101q30 0 36 -26l77 -298l39 -174h4l37 173l73 298q6 27 35 27h117q14 0 20 -9.5t2 -25.5l-177 -644q-8 -27 -36 -27h-125q-29 0 -36 27l-80 285l-35 144h-3l-35 -144l-80 -285q-8 -27 -36 -27h-124q-28 0 -36 27l-178 644q-4 16 2 25.5t20 9.5h117q29 0 35 -27
l73 -298l38 -173h3l39 174l77 298q6 26 36 26zM473 779l40 87q9 20 31 20h119q13 0 15.5 -11t-6.5 -19l-86 -85q-16 -14 -35 -14h-61q-12 0 -16.5 6.5t-0.5 15.5z" />
    <glyph glyph-name="wacute" unicode="&#x1e83;" horiz-adv-x="866" 
d="M393 532h79q24 0 31 -23l69 -240l24 -105h2l21 105l58 238q6 25 33 25h111q31 0 21 -32l-140 -473q-8 -27 -35 -27h-106q-27 0 -36 27l-63 208l-27 110h-4l-27 -110l-62 -208q-9 -27 -37 -27h-106q-26 0 -34 27l-142 473q-5 14 1 23t21 9h111q27 0 33 -25l59 -238
l20 -105h2l24 105l69 240q7 23 30 23zM384 615l40 87q8 19 30 19h118q13 0 15.5 -10.5t-6.5 -18.5l-85 -85q-14 -14 -35 -14h-61q-11 0 -15.5 6.5t-0.5 15.5z" />
    <glyph glyph-name="Wdieresis" unicode="&#x1e84;" horiz-adv-x="1037" 
d="M468 706h101q30 0 36 -26l77 -298l39 -174h4l37 173l73 298q6 27 35 27h117q14 0 20 -9.5t2 -25.5l-177 -644q-8 -27 -36 -27h-125q-29 0 -36 27l-80 285l-35 144h-3l-35 -144l-80 -285q-8 -27 -36 -27h-124q-28 0 -36 27l-178 644q-4 16 2 25.5t20 9.5h117q29 0 35 -27
l73 -298l38 -173h3l39 174l77 298q6 26 36 26zM483 843v-59q0 -27 -28 -27h-86q-27 0 -27 27v59q0 28 27 28h86q28 0 28 -28zM695 843v-59q0 -27 -28 -27h-85q-28 0 -28 27v59q0 28 28 28h85q28 0 28 -28z" />
    <glyph glyph-name="wdieresis" unicode="&#x1e85;" horiz-adv-x="866" 
d="M393 532h79q24 0 31 -23l69 -240l24 -105h2l21 105l58 238q6 25 33 25h111q31 0 21 -32l-140 -473q-8 -27 -35 -27h-106q-27 0 -36 27l-63 208l-27 110h-4l-27 -110l-62 -208q-9 -27 -37 -27h-106q-26 0 -34 27l-142 473q-5 14 1 23t21 9h111q27 0 33 -25l59 -238
l20 -105h2l24 105l69 240q7 23 30 23zM397 681v-61q0 -27 -27 -27h-83q-28 0 -28 27v61q0 27 28 27h83q27 0 27 -27zM606 681v-61q0 -27 -28 -27h-83q-27 0 -27 27v61q0 27 27 27h83q28 0 28 -27z" />
    <glyph glyph-name="Ygrave" unicode="&#x1ef2;" horiz-adv-x="676" 
d="M424 260v-231q0 -29 -29 -29h-114q-29 0 -29 29v231l-228 410q-8 13 -2 24.5t21 11.5h119q26 0 39 -27l95 -190l41 -94h2l41 94l95 190q13 27 39 27h119q15 0 21 -11.5t-2 -24.5zM347 866l40 -87q4 -9 -0.5 -15.5t-16.5 -6.5h-61q-21 0 -35 14l-87 85q-9 8 -6 19t16 11
h119q22 0 31 -20z" />
    <glyph glyph-name="ygrave" unicode="&#x1ef3;" horiz-adv-x="560" 
d="M544 500l-146 -450q-31 -97 -71 -132.5t-136 -35.5q-70 0 -107 11q-27 6 -26 28l4 66q1 23 24 23q3 0 23 -3t38 -3q34 0 45.5 16.5t0.5 42.5l-174 437q-5 14 0 23t19 9h112q27 0 34 -25l70 -218l38 -140h3l31 140l54 218q6 25 32 25h110q14 0 20 -9t2 -23zM288 702
l40 -87q7 -22 -17 -22h-61q-21 0 -35 14l-86 85q-9 8 -6 18.5t16 10.5h118q23 0 31 -19z" />
    <glyph glyph-name="figuredash" unicode="&#x2012;" horiz-adv-x="606" 
d="M524 228h-443q-24 0 -24 23v66q0 23 24 23h443q25 0 25 -24v-65q0 -23 -25 -23z" />
    <glyph glyph-name="endash" unicode="&#x2013;" horiz-adv-x="546" 
d="M478 214h-411q-27 0 -27 27v75q0 27 27 27h411q28 0 28 -27v-75q0 -27 -28 -27z" />
    <glyph glyph-name="emdash" unicode="&#x2014;" horiz-adv-x="781" 
d="M713 214h-646q-27 0 -27 27v75q0 27 27 27h646q28 0 28 -27v-75q0 -27 -28 -27z" />
    <glyph glyph-name="quoteleft" unicode="&#x2018;" horiz-adv-x="256" 
d="M59 588l55 109q8 15 24 15h34q10 0 13.5 -7.5t-0.5 -15.5l-37 -102h35q28 0 28 -28v-97q0 -27 -30 -27h-100q-30 0 -30 27v91q0 19 8 35z" />
    <glyph glyph-name="quoteright" unicode="&#x2019;" horiz-adv-x="256" 
d="M198 557l-56 -109q-8 -15 -24 -15h-33q-10 0 -13.5 7t-0.5 16l38 102h-35q-28 0 -28 28v97q0 27 29 27h101q29 0 29 -27v-91q0 -22 -7 -35z" />
    <glyph glyph-name="quotesinglbase" unicode="&#x201a;" horiz-adv-x="256" 
d="M198 -1l-56 -109q-8 -15 -24 -15h-33q-10 0 -13.5 7t-0.5 16l38 102h-35q-28 0 -28 28v97q0 27 29 27h101q29 0 29 -27v-91q0 -22 -7 -35z" />
    <glyph glyph-name="quotedblleft" unicode="&#x201c;" horiz-adv-x="474" 
d="M276 588l56 109q8 15 24 15h33q10 0 13.5 -7.5t-0.5 -15.5l-37 -102h35q28 0 28 -28v-97q0 -27 -30 -27h-100q-30 0 -30 27v91q0 20 8 35zM59 588l55 109q8 15 24 15h34q10 0 13.5 -7.5t-0.5 -15.5l-37 -102h35q28 0 28 -28v-97q0 -27 -30 -27h-100q-30 0 -30 27v91
q0 19 8 35z" />
    <glyph glyph-name="quotedblright" unicode="&#x201d;" horiz-adv-x="474" 
d="M198 557l-56 -109q-8 -15 -24 -15h-33q-10 0 -13.5 7t-0.5 16l38 102h-35q-28 0 -28 27v98q0 27 29 27h101q29 0 29 -27v-91q0 -22 -7 -35zM415 557l-55 -109q-8 -15 -25 -15h-33q-10 0 -13.5 7.5t0.5 15.5l37 102h-35q-28 0 -28 27v98q0 27 30 27h100q30 0 30 -27v-91
q0 -20 -8 -35z" />
    <glyph glyph-name="quotedblbase" unicode="&#x201e;" horiz-adv-x="474" 
d="M198 -1l-56 -109q-8 -15 -24 -15h-33q-10 0 -13.5 7t-0.5 16l38 102h-35q-28 0 -28 27v98q0 27 29 27h101q29 0 29 -27v-91q0 -22 -7 -35zM415 -1l-55 -109q-8 -15 -25 -15h-33q-10 0 -13.5 7.5t0.5 15.5l37 102h-35q-28 0 -28 27v98q0 27 30 27h100q30 0 30 -27v-91
q0 -20 -8 -35z" />
    <glyph glyph-name="dagger" unicode="&#x2020;" horiz-adv-x="553" 
d="M521 511v-79q0 -28 -28 -28h-135v-486q0 -28 -28 -28h-108q-27 0 -27 28v486h-135q-28 0 -28 28v79q0 28 28 28h135v140q0 27 27 27h108q28 0 28 -27v-140h135q28 0 28 -28z" />
    <glyph glyph-name="daggerdbl" unicode="&#x2021;" horiz-adv-x="554" 
d="M521 165v-80q0 -27 -27 -27h-136v-140q0 -28 -27 -28h-108q-28 0 -28 28v140h-135q-27 0 -27 27v80q0 27 27 27h135v212h-135q-27 0 -27 28v79q0 28 27 28h135v140q0 27 28 27h108q27 0 27 -27v-140h136q27 0 27 -28v-79q0 -28 -27 -28h-136v-212h136q27 0 27 -27z" />
    <glyph glyph-name="bullet" unicode="&#x2022;" horiz-adv-x="423" 
d="M212 123q-65 0 -108.5 44t-43.5 109q0 64 44 108t108 44t107.5 -43.5t43.5 -108.5t-43.5 -109t-107.5 -44z" />
    <glyph glyph-name="onedotenleader" unicode="&#x2024;" horiz-adv-x="260" 
d="M49 28v106q0 27 30 27h103q29 0 29 -27v-106q0 -28 -27 -28h-108q-27 0 -27 28z" />
    <glyph glyph-name="twodotenleader" unicode="&#x2025;" horiz-adv-x="519" 
d="M308 28v106q0 27 30 27h103q29 0 29 -27v-106q0 -28 -27 -28h-108q-27 0 -27 28zM49 28v106q0 27 30 27h103q29 0 29 -27v-106q0 -28 -27 -28h-108q-27 0 -27 28z" />
    <glyph glyph-name="ellipsis" unicode="&#x2026;" horiz-adv-x="781" 
d="M49 28v106q0 27 30 27h103q29 0 29 -27v-106q0 -28 -27 -28h-108q-27 0 -27 28zM310 28v106q0 27 29 27h103q30 0 30 -27v-106q0 -28 -28 -28h-107q-27 0 -27 28zM570 28v106q0 27 30 27h103q29 0 29 -27v-106q0 -28 -27 -28h-107q-28 0 -28 28z" />
    <glyph glyph-name="perthousand" unicode="&#x2030;" horiz-adv-x="1406" 
d="M741 679l-388 -652q-15 -27 -40 -27h-65q-32 0 -15 28l388 652q15 26 40 26h65q30 0 15 -27zM35 502q0 100 50 156t134 56t134 -56t50 -156q0 -99 -50 -155t-134 -56t-134 56t-50 155zM279 502q0 114 -60 114q-61 0 -61 -114q0 -113 61 -113q60 0 60 113zM571 204
q0 99 50 155t134 56t134 -56t50 -155q0 -100 -50 -155.5t-134 -55.5t-134 55.5t-50 155.5zM816 204q0 113 -61 113q-60 0 -60 -113q0 -114 60 -114q61 0 61 114zM996 204q0 99 50 155t134 56t134 -56t50 -155q0 -100 -50 -155.5t-134 -55.5t-134 55.5t-50 155.5zM1241 204
q0 113 -61 113q-60 0 -60 -113q0 -114 60 -114q61 0 61 114z" />
    <glyph glyph-name="guilsinglleft" unicode="&#x2039;" horiz-adv-x="304" 
d="M30 289q0 6 4 14l82 140q11 19 33 19h91q14 0 18.5 -8.5t-2.5 -19.5l-85 -144l85 -144q7 -11 2.5 -19.5t-18.5 -8.5h-91q-23 0 -33 19l-82 140q-4 8 -4 12z" />
    <glyph glyph-name="guilsinglright" unicode="&#x203a;" horiz-adv-x="304" 
d="M273 289q0 -6 -2 -11l-83 -141q-12 -19 -33 -19h-91q-14 0 -18.5 8t2.5 20l86 144l-86 144q-7 11 -2 19.5t18 8.5h91q22 0 33 -19l82 -140q3 -6 3 -14z" />
    <glyph glyph-name="exclamdbl" unicode="&#x203c;" horiz-adv-x="634" 
d="M76 28v107q0 27 29 27h111q29 0 29 -27v-107q0 -28 -27 -28h-115q-27 0 -27 28zM198 224h-75q-27 0 -29 26l-30 427q-2 29 28 29h137q30 0 28 -29l-30 -427q-2 -26 -29 -26zM389 28v107q0 27 29 27h111q29 0 29 -27v-107q0 -28 -27 -28h-115q-27 0 -27 28zM511 224h-75
q-27 0 -29 26l-30 427q-2 29 28 29h137q30 0 28 -29l-30 -427q-2 -26 -29 -26z" />
    <glyph glyph-name="fraction" unicode="&#x2044;" horiz-adv-x="82" 
d="M295 679l-388 -652q-15 -27 -40 -27h-65q-31 0 -15 28l388 652q15 26 40 26h65q14 0 18.5 -7t-3.5 -20z" />
    <glyph glyph-name="zero.superior" unicode="&#x2070;" 
d="M217 484q-90 0 -141 57.5t-51 164.5t51 164.5t141 57.5q89 0 140 -57.5t51 -164.5t-51 -164.5t-140 -57.5zM217 585q67 0 67 121t-67 121q-68 0 -68 -121t68 -121z" />
    <glyph glyph-name="four.superior" unicode="&#x2074;" 
d="M234 799l-109 -128h109v128zM388 576h-34v-59q0 -27 -27 -27h-67q-26 0 -26 27v59h-187q-27 0 -27 23v48q0 13 10 26l199 235q12 14 29 14h69q27 0 27 -27v-224h34q27 0 27 -26v-43q0 -26 -27 -26z" />
    <glyph glyph-name="five.superior" unicode="&#x2075;" 
d="M385 631q0 -70 -46 -108.5t-131 -38.5q-99 0 -152 29q-23 11 -16 30l18 42q9 23 34 14q46 -20 101 -20q73 0 73 57q0 52 -65 52q-20 0 -42 -5t-24 -5q-19 -4 -35 1l-31 11q-18 6 -17 25q13 133 13 180q0 27 28 27h241q26 0 26 -27v-43q0 -26 -26 -26h-170q0 -31 -4 -69
q43 8 66 8q159 0 159 -134z" />
    <glyph glyph-name="six.superior" unicode="&#x2076;" 
d="M322 825q-42 10 -63 10q-92 0 -102 -86q35 33 97 33q72 0 109.5 -37.5t37.5 -102.5q0 -71 -46 -114.5t-126 -43.5q-97 0 -144 59t-47 147q0 110 52.5 174t153.5 64q64 0 105 -18q20 -9 15 -27l-11 -43q-6 -21 -31 -15zM228 579q30 0 47 17.5t17 47.5q0 62 -63 62
q-32 0 -49.5 -17.5t-17.5 -45.5q0 -29 16 -46.5t50 -17.5z" />
    <glyph glyph-name="seven.superior" unicode="&#x2077;" 
d="M382 896v-33q0 -17 -15 -36q-50 -68 -90 -154.5t-46 -155.5q-3 -27 -27 -27h-70q-26 0 -26 25q1 65 43 149.5t102 161.5h-180q-27 0 -27 26v43q0 27 27 27h281q28 0 28 -26z" />
    <glyph glyph-name="eight.superior" unicode="&#x2078;" 
d="M217 484q-87 0 -133.5 33.5t-46.5 91.5q0 76 79 105q-70 28 -70 96q0 56 45.5 87t125.5 31t125 -31t45 -87q0 -68 -70 -96q80 -30 80 -105q0 -57 -47 -91t-133 -34zM217 681q-62 -17 -62 -63q0 -22 16.5 -35t45.5 -13t45 13t16 35q0 47 -61 63zM217 744q54 19 54 59
t-54 40t-54 -40q0 -41 54 -59z" />
    <glyph glyph-name="nine.superior" unicode="&#x2079;" 
d="M111 587q33 -10 64 -10q93 0 101 86q-35 -33 -97 -33q-72 0 -109.5 37.5t-37.5 102.5q0 71 46 114.5t126 43.5q96 0 143.5 -59t47.5 -147q0 -112 -52 -175t-154 -63q-63 0 -104 18q-21 10 -16 27l12 43q6 21 30 15zM205 833q-29 0 -46.5 -17.5t-17.5 -47.5
q0 -29 16.5 -45.5t46.5 -16.5q33 0 50 17.5t17 45.5q0 29 -16 46.5t-50 17.5z" />
    <glyph glyph-name="parenleft.superior" unicode="&#x207d;" horiz-adv-x="253" 
d="M43 706q0 61 25.5 121.5t60.5 91.5q12 12 27 12h56q12 0 15.5 -8.5t-2.5 -15.5q-60 -82 -60 -201q0 -114 60 -201q6 -7 2.5 -15.5t-15.5 -8.5h-56q-15 0 -27 12q-35 31 -60.5 91.5t-25.5 121.5z" />
    <glyph glyph-name="parenright.superior" unicode="&#x207e;" horiz-adv-x="253" 
d="M210 706q0 -61 -25 -122t-60 -91q-12 -12 -27 -12h-56q-12 0 -16 8.5t2 15.5q61 88 61 201q0 120 -61 201q-6 7 -2 15.5t16 8.5h56q13 0 27 -12q35 -32 60 -92t25 -121z" />
    <glyph glyph-name="n.superior" unicode="&#x207f;" horiz-adv-x="501" 
d="M73 922h74q25 0 28 -21l4 -31q36 58 133 58q142 0 142 -165v-247q0 -26 -26 -26h-83q-25 0 -25 26v223q0 76 -63 76q-36 0 -55.5 -23.5t-19.5 -60.5v-215q0 -26 -26 -26h-83q-25 0 -25 26v380q0 26 25 26z" />
    <glyph glyph-name="zero.inferior" unicode="&#x2080;" 
d="M217 -222q-90 0 -141 57.5t-51 164.5t51 164.5t141 57.5q89 0 140 -57.5t51 -164.5t-51 -164.5t-140 -57.5zM217 -121q67 0 67 121t-67 121q-68 0 -68 -121t68 -121z" />
    <glyph glyph-name="one.inferior" unicode="&#x2081;" 
d="M186 91l-61 -33q-23 -12 -34 6l-26 40q-11 16 5 28l109 74q14 10 34 10h68q26 0 26 -27v-378q0 -27 -26 -27h-68q-27 0 -27 27v280z" />
    <glyph glyph-name="two.inferior" unicode="&#x2082;" 
d="M152 86q0 -4 0.5 -11.5t0.5 -13.5q0 -21 -24 -21h-59q-22 0 -25 20q-3 13 -3 31q0 59 41.5 95t126.5 36q87 0 128.5 -37.5t41.5 -97.5q0 -62 -49.5 -115.5t-114.5 -91.5h149q27 0 27 -26v-43q0 -27 -27 -27h-296q-26 0 -26 27v39q0 13 18 25q197 117 197 204q0 48 -54 48
q-52 0 -52 -41z" />
    <glyph glyph-name="three.inferior" unicode="&#x2083;" 
d="M202 -39h-52q-26 0 -26 26v33q0 26 26 26h50q53 0 53 42q0 40 -65 40q-47 0 -93 -19q-25 -11 -34 12l-17 44q-7 18 14 29q60 28 148 28q74 0 120.5 -29t46.5 -88q0 -66 -57 -92q65 -28 65 -99q0 -66 -44.5 -101t-125.5 -35q-92 0 -154 30q-13 6 -16.5 11.5t0.5 17.5
l17 43q10 25 35 14q48 -21 102 -21q64 0 64 46q0 42 -57 42z" />
    <glyph glyph-name="four.inferior" unicode="&#x2084;" 
d="M234 93l-109 -128h109v128zM388 -130h-34v-59q0 -27 -27 -27h-67q-26 0 -26 27v59h-187q-27 0 -27 23v48q0 13 10 26l199 235q12 14 29 14h69q27 0 27 -27v-224h34q27 0 27 -26v-43q0 -26 -27 -26z" />
    <glyph glyph-name="five.inferior" unicode="&#x2085;" 
d="M385 -75q0 -70 -46 -108.5t-131 -38.5q-99 0 -152 29q-23 11 -16 30l18 42q9 23 34 14q46 -20 101 -20q73 0 73 57q0 52 -65 52q-20 0 -42 -5t-24 -5q-19 -4 -35 1l-31 11q-18 6 -17 25q13 133 13 180q0 27 28 27h241q26 0 26 -27v-43q0 -26 -26 -26h-170q0 -31 -4 -69
q43 8 66 8q159 0 159 -134z" />
    <glyph glyph-name="six.inferior" unicode="&#x2086;" 
d="M322 119q-42 10 -63 10q-92 0 -102 -86q35 33 97 33q72 0 109.5 -37.5t37.5 -102.5q0 -71 -46 -114.5t-126 -43.5q-97 0 -144 59t-47 147q0 110 52.5 174t153.5 64q64 0 105 -18q20 -9 15 -27l-11 -43q-6 -21 -31 -15zM228 -127q30 0 47 17.5t17 47.5q0 62 -63 62
q-32 0 -49.5 -17.5t-17.5 -45.5q0 -29 16 -46.5t50 -17.5z" />
    <glyph glyph-name="seven.inferior" unicode="&#x2087;" 
d="M382 190v-33q0 -17 -15 -36q-50 -68 -90 -154.5t-46 -155.5q-3 -27 -27 -27h-70q-26 0 -26 25q1 65 43 149.5t102 161.5h-180q-27 0 -27 26v43q0 27 27 27h281q28 0 28 -26z" />
    <glyph glyph-name="eight.inferior" unicode="&#x2088;" 
d="M217 -222q-87 0 -133.5 33.5t-46.5 91.5q0 76 79 105q-70 28 -70 96q0 56 45.5 87t125.5 31t125 -31t45 -87q0 -68 -70 -96q80 -30 80 -105q0 -57 -47 -91t-133 -34zM217 -25q-62 -17 -62 -63q0 -22 16.5 -35t45.5 -13t45 13t16 35q0 47 -61 63zM217 38q54 19 54 59
t-54 40t-54 -40q0 -41 54 -59z" />
    <glyph glyph-name="nine.inferior" unicode="&#x2089;" 
d="M111 -119q33 -10 64 -10q93 0 101 86q-35 -33 -97 -33q-72 0 -109.5 37.5t-37.5 102.5q0 71 46 114.5t126 43.5q96 0 143.5 -59t47.5 -147q0 -112 -52 -175t-154 -63q-63 0 -104 18q-21 10 -16 27l12 43q6 21 30 15zM205 127q-29 0 -46.5 -17.5t-17.5 -47.5
q0 -29 16.5 -45.5t46.5 -16.5q33 0 50 17.5t17 45.5q0 29 -16 46.5t-50 17.5z" />
    <glyph glyph-name="parenleft.inferior" unicode="&#x208d;" horiz-adv-x="253" 
d="M43 0q0 61 25.5 121.5t60.5 91.5q12 12 27 12h56q12 0 15.5 -8.5t-2.5 -15.5q-60 -82 -60 -201q0 -114 60 -201q6 -7 2.5 -15.5t-15.5 -8.5h-56q-15 0 -27 12q-35 31 -60.5 91.5t-25.5 121.5z" />
    <glyph glyph-name="parenright.inferior" unicode="&#x208e;" horiz-adv-x="253" 
d="M210 0q0 -61 -25 -122t-60 -91q-12 -12 -27 -12h-56q-12 0 -16 8.5t2 15.5q61 88 61 201q0 120 -61 201q-6 7 -2 15.5t16 8.5h56q13 0 27 -12q35 -32 60 -92t25 -121z" />
    <glyph glyph-name="Euro" unicode="&#x20ac;" horiz-adv-x="658" 
d="M39 322h50q-2 18 -2 31q0 17 2 31h-50q-21 0 -21 21v36q0 21 21 21h58q24 121 108 188.5t213 67.5q116 0 193 -50q25 -15 14 -37l-33 -73q-12 -26 -41 -14q-52 24 -111 24q-124 0 -164 -106h234q11 0 14.5 -7t-0.5 -17l-15 -35q-8 -19 -29 -19h-217q-1 -10 -1 -31
q0 -22 1 -31h182q11 0 14.5 -7t-0.5 -17l-14 -35q-8 -19 -29 -19h-139q17 -49 58.5 -77.5t106.5 -28.5q58 0 112 25q28 13 40 -15l34 -73q5 -14 1.5 -21t-16.5 -16q-76 -49 -193 -49q-130 0 -214.5 67t-109.5 188h-57q-21 0 -21 21v36q0 21 21 21z" />
    <glyph glyph-name="afii61289" unicode="&#x2113;" horiz-adv-x="495" 
d="M337 115q9 0 17.5 1t18 3t14.5 3q9 1 14 -4.5t7 -16.5l12 -64q2 -13 -3 -19t-19 -12q-39 -15 -103 -15q-90 0 -137.5 42.5t-47.5 138.5v28q-35 -10 -60 -14q-16 -4 -19 10l-15 61q-4 16 9 19q50 12 85 25v164q0 123 44 188t147 65q85 0 124 -47.5t39 -125.5
q0 -175 -200 -284v-70q0 -44 17 -60t56 -16zM264 484v-111q102 71 102 174q0 67 -46 67q-34 0 -45 -29t-11 -101z" />
    <glyph glyph-name="trademark" unicode="&#x2122;" horiz-adv-x="780" 
d="M287 622h-67v-226q0 -20 -21 -20h-58q-22 0 -22 20v226h-66q-20 0 -20 21v42q0 21 20 21h234q20 0 20 -21v-42q0 -21 -20 -21zM544 451q-11 0 -18 12l-70 105v-172q0 -20 -21 -20h-56q-21 0 -21 20v289q0 21 20 21h61q16 0 24 -13l81 -124l81 124q8 13 23 13h61
q21 0 21 -21v-289q0 -20 -22 -20h-55q-21 0 -21 20v172l-70 -105q-9 -12 -18 -12z" />
    <glyph glyph-name="Omega" unicode="&#x2126;" horiz-adv-x="805" 
d="M403 718q166 0 258 -82.5t92 -221.5q0 -96 -49 -163t-122 -102v-31l110 13q33 5 33 -24v-81q0 -26 -29 -26h-249v146q0 18 17 28q122 67 122 213q0 90 -48.5 139.5t-134.5 49.5t-134.5 -49.5t-48.5 -139.5q0 -140 122 -213q16 -11 16 -28v-146h-249q-29 0 -29 26v81
q0 29 33 24l110 -13v31q-73 35 -122 102t-49 163q0 138 92.5 221t258.5 83z" />
    <glyph glyph-name="estimated" unicode="&#x212e;" horiz-adv-x="856" 
d="M820 335h-628q-5 0 -5 -4v-185q0 -19 8 -29q83 -96 240 -96q158 0 252 109h58q-55 -65 -136 -102t-175 -37q-165 0 -279.5 105t-114.5 253q0 150 112.5 254.5t277.5 104.5t277.5 -104.5t112.5 -254.5v-14zM673 365v186q0 24 -11 36q-93 91 -231 91q-141 0 -235 -97
q-9 -9 -9 -29v-187q0 -6 5 -6h476q5 0 5 6z" />
    <glyph glyph-name="onethird" unicode="&#x2153;" horiz-adv-x="999" 
d="M721 679l-388 -652q-15 -27 -40 -27h-65q-31 0 -15 28l388 652q15 26 40 26h65q14 0 18.5 -7t-3.5 -20zM186 581l-61 -33q-23 -12 -34 6l-26 40q-11 16 5 28l109 74q14 10 34 10h68q26 0 26 -27v-378q0 -27 -26 -27h-68q-27 0 -27 27v280zM716 176h52q57 0 57 -42
q0 -46 -64 -46q-54 0 -102 21q-25 11 -35 -14l-17 -43q-7 -18 16 -29q62 -30 154 -30q81 0 125.5 35t44.5 101q0 71 -65 99q57 26 57 92q0 59 -46.5 88t-120.5 29q-88 0 -148 -28q-21 -11 -14 -29l17 -44q9 -23 34 -12q46 19 93 19q65 0 65 -40q0 -42 -53 -42h-50
q-26 0 -26 -26v-33q0 -26 26 -26z" />
    <glyph glyph-name="twothirds" unicode="&#x2154;" horiz-adv-x="999" 
d="M761 679l-388 -652q-15 -27 -40 -27h-65q-31 0 -15 28l388 652q15 26 40 26h65q31 0 15 -27zM152 576q0 -4 0.5 -11.5t0.5 -13.5q0 -21 -24 -21h-59q-22 0 -25 20q-3 14 -3 31q0 59 41.5 95t126.5 36q87 0 128.5 -37.5t41.5 -97.5q0 -62 -49.5 -115.5t-114.5 -91.5h149
q27 0 27 -26v-43q0 -27 -27 -27h-296q-26 0 -26 27v39q0 13 18 25q197 117 197 204q0 48 -54 48q-52 0 -52 -41zM768 176h-52q-26 0 -26 26v33q0 26 26 26h50q53 0 53 42q0 40 -65 40q-47 0 -93 -19q-25 -11 -34 12l-17 44q-7 18 14 29q60 28 148 28q74 0 120.5 -29
t46.5 -88q0 -66 -57 -92q65 -28 65 -99q0 -66 -44.5 -101t-125.5 -35q-92 0 -154 30q-23 11 -16 29l17 43q10 25 35 14q48 -21 102 -21q64 0 64 46q0 42 -57 42z" />
    <glyph glyph-name="oneeighth" unicode="&#x215b;" horiz-adv-x="999" 
d="M734 679l-388 -652q-15 -27 -40 -27h-65q-31 0 -15 28l388 652q15 26 40 26h65q31 0 15 -27zM186 581l-61 -33q-23 -12 -34 6l-26 40q-11 16 5 28l109 74q14 10 34 10h68q26 0 26 -27v-378q0 -27 -26 -27h-68q-27 0 -27 27v280zM783 -7q86 0 133 34t47 91q0 75 -80 105
q70 28 70 96q0 56 -45 87t-125 31t-125.5 -31t-45.5 -87q0 -68 70 -96q-79 -29 -79 -105q0 -58 46.5 -91.5t133.5 -33.5zM783 190q61 -16 61 -63q0 -22 -16 -35t-45 -13t-45.5 13t-16.5 35q0 46 62 63zM783 253q-54 18 -54 59q0 40 54 40t54 -40t-54 -59z" />
    <glyph glyph-name="threeeighths" unicode="&#x215c;" horiz-adv-x="999" 
d="M747 679l-388 -652q-15 -27 -40 -27h-65q-31 0 -15 28l388 652q15 26 40 26h65q14 0 18.5 -7t-3.5 -20zM783 -7q-87 0 -133.5 33.5t-46.5 91.5q0 76 79 105q-70 28 -70 96q0 56 45.5 87t125.5 31t125 -31t45 -87q0 -68 -70 -96q80 -30 80 -105q0 -57 -47 -91t-133 -34z
M783 190q-62 -17 -62 -63q0 -22 16.5 -35t45.5 -13t45 13t16 35q0 47 -61 63zM783 253q54 19 54 59t-54 40t-54 -40q0 -41 54 -59zM202 451h-52q-26 0 -26 26v33q0 26 26 26h50q53 0 53 42q0 40 -65 40q-47 0 -93 -19q-25 -11 -34 12l-17 44q-7 18 14 29q60 28 148 28
q74 0 120.5 -29t46.5 -88q0 -66 -57 -92q65 -28 65 -99q0 -66 -44.5 -101t-125.5 -35q-92 0 -154 30q-13 6 -16.5 11.5t0.5 17.5l17 43q10 25 35 14q48 -21 102 -21q64 0 64 46q0 42 -57 42z" />
    <glyph glyph-name="fiveeighths" unicode="&#x215d;" horiz-adv-x="999" 
d="M748 679l-388 -652q-15 -27 -40 -27h-65q-31 0 -15 28l388 652q15 26 40 26h65q31 0 15 -27zM385 415q0 134 -159 134q-23 0 -66 -8q4 38 4 69h170q26 0 26 26v43q0 27 -26 27h-241q-28 0 -28 -27q0 -47 -13 -180q-1 -19 17 -25l31 -11q16 -5 35 -1q2 0 24 5t42 5
q65 0 65 -52q0 -57 -73 -57q-55 0 -101 20q-25 9 -34 -14l-18 -42q-7 -19 16 -30q53 -29 152 -29q85 0 131 38.5t46 108.5zM783 -7q86 0 133 34t47 91q0 75 -80 105q70 28 70 96q0 56 -45 87t-125 31t-125.5 -31t-45.5 -87q0 -68 70 -96q-79 -29 -79 -105q0 -58 46.5 -91.5
t133.5 -33.5zM783 190q61 -16 61 -63q0 -22 -16 -35t-45 -13t-45.5 13t-16.5 35q0 46 62 63zM783 253q-54 18 -54 59q0 40 54 40t54 -40t-54 -59z" />
    <glyph glyph-name="seveneighths" unicode="&#x215e;" horiz-adv-x="999" 
d="M698 679l-388 -652q-15 -27 -40 -27h-65q-31 0 -15 28l388 652q15 26 40 26h65q31 0 15 -27zM783 -7q86 0 133 34t47 91q0 75 -80 105q70 28 70 96q0 56 -45 87t-125 31t-125.5 -31t-45.5 -87q0 -68 70 -96q-79 -29 -79 -105q0 -58 46.5 -91.5t133.5 -33.5zM783 190
q61 -16 61 -63q0 -22 -16 -35t-45 -13t-45.5 13t-16.5 35q0 46 62 63zM783 253q-54 18 -54 59q0 40 54 40t54 -40t-54 -59zM382 647v33q0 26 -28 26h-281q-27 0 -27 -27v-43q0 -26 27 -26h180q-60 -77 -102 -161.5t-43 -149.5q0 -25 26 -25h70q24 0 27 27q6 69 46 155.5
t90 154.5q15 19 15 36z" />
    <glyph glyph-name="arrowleft" unicode="&#x2190;" horiz-adv-x="669" 
d="M417 484l-151 -153l313 4q28 0 28 -25v-87q0 -25 -28 -25l-313 4l151 -153q8 -8 5 -18t-15 -10h-117q-17 0 -31 14l-198 214q-8 10 -8 17q0 10 8 18l198 214q14 14 31 14h117q12 0 15 -10t-5 -18z" />
    <glyph glyph-name="arrowup" unicode="&#x2191;" horiz-adv-x="669" 
d="M553 194l-153 152l4 -314q0 -28 -24 -28h-87q-25 0 -25 28l4 314l-153 -152q-8 -8 -18 -5t-10 15v118q0 18 13 31l214 197q9 8 18 8q8 0 18 -8l214 -197q13 -13 13 -31v-118q0 -12 -10 -15t-18 5z" />
    <glyph glyph-name="arrowright" unicode="&#x2192;" horiz-adv-x="669" 
d="M403 331l-151 153q-8 8 -5 18t15 10h117q18 0 32 -14l197 -214q8 -10 8 -18q0 -9 -8 -17l-197 -214q-12 -14 -32 -14h-117q-12 0 -15 10t5 18l151 153l-313 -4q-28 0 -28 25v87q0 25 28 25z" />
    <glyph glyph-name="arrowdown" unicode="&#x2193;" horiz-adv-x="669" 
d="M119 339l153 -152l-4 314q0 28 25 28h87q24 0 24 -28l-4 -314l153 152q7 8 17.5 4.5t10.5 -15.5v-117q0 -18 -13 -31l-214 -197q-8 -8 -18 -8q-9 0 -18 8l-214 197q-13 13 -13 31v117q0 12 10 15.5t18 -4.5z" />
    <glyph glyph-name="arrowboth" unicode="&#x2194;" horiz-adv-x="1053" 
d="M787 331l-151 153q-8 8 -5 18t15 10h117q19 0 31 -14l197 -214q8 -8 8 -18t-8 -17l-197 -214q-12 -14 -31 -14h-117q-12 0 -15 10t5 18l151 153l-262 -5l-259 5l151 -153q8 -8 5 -18t-15 -10h-117q-20 0 -31 14l-198 214q-8 7 -8 17t8 18l198 214q14 14 31 14h117
q12 0 15 -10t-5 -18l-151 -153l259 5z" />
    <glyph glyph-name="arrowupdn" unicode="&#x2195;" horiz-adv-x="669" 
d="M399 38l152 151q9 9 19 5.5t10 -15.5v-117q0 -19 -14 -31l-214 -197q-8 -8 -18 -8q-9 0 -17 8l-214 197q-14 14 -14 31v117q0 12 10 15t18 -5l154 -151l-6 230l6 227l-154 -151q-8 -9 -18 -6t-10 15v117q0 20 14 32l214 197q10 8 17 8q10 0 18 -8l214 -197q14 -12 14 -32
v-117q0 -12 -10.5 -15t-18.5 6l-152 151l5 -227z" />
    <glyph glyph-name="arrowupleft" unicode="&#x2196;" horiz-adv-x="669" 
d="M543 365l-215 -2l224 -218q21 -21 2 -38l-60 -60q-19 -19 -38 2l-219 224l-1 -216q0 -12 -9 -16.5t-18 4.5l-83 82q-12 11 -12 32l12 291q0 11 6 18q9 7 18 7l291 12q19 2 32 -13l82 -82q9 -10 4.5 -18.5t-16.5 -8.5z" />
    <glyph glyph-name="arrowupright" unicode="&#x2197;" horiz-adv-x="669" 
d="M341 363l-215 2q-12 0 -16.5 8.5t4.5 18.5l82 82q12 13 31 13l292 -12q10 0 17 -7t7 -18l12 -291q2 -17 -12 -32l-83 -82q-9 -8 -18 -3.5t-9 15.5l-1 216l-219 -224q-19 -21 -38 -2l-60 60q-19 19 2 38z" />
    <glyph glyph-name="arrowdownright" unicode="&#x2198;" horiz-adv-x="669" 
d="M126 138l215 2l-224 218q-19 19 -2 38l60 60q19 19 38 -2l219 -224l1 215q0 12 8.5 16.5t18.5 -4.5l83 -82q14 -14 12 -31l-12 -291q0 -11 -7 -18q-6 -7 -17 -7l-292 -12q-19 0 -31 13l-82 82q-9 10 -4 18.5t16 8.5z" />
    <glyph glyph-name="arrowdownleft" unicode="&#x2199;" horiz-adv-x="669" 
d="M328 140l215 -2q12 0 16.5 -9t-4.5 -18l-82 -83q-14 -14 -32 -12l-291 12q-10 0 -18 7q-6 7 -6 18l-12 291q0 19 12 31l83 82q10 9 18.5 4.5t8.5 -16.5l1 -215l219 224q19 21 38 2l60 -60q20 -18 -2 -38z" />
    <glyph glyph-name="partialdiff" unicode="&#x2202;" horiz-adv-x="659" 
d="M193 570q-31 -8 -36 19l-12 69q-4 24 24 35q69 25 147 25q152 0 225 -87.5t73 -247.5q0 -78 -17 -146t-52.5 -125t-97 -90t-142.5 -33q-127 0 -197 64t-70 169q0 114 69.5 183.5t189.5 69.5q56 0 96.5 -22.5t62.5 -53.5q1 15 1 37q-7 148 -159 148q-52 0 -105 -14z
M302 124q66 0 101.5 37.5t35.5 94.5q0 50 -31 77t-83 27q-61 0 -98.5 -34t-37.5 -97q0 -49 30 -77t83 -28z" />
    <glyph glyph-name="Delta" unicode="&#x2206;" horiz-adv-x="694" 
d="M270 706h153q24 0 30 -21l198 -652q9 -33 -24 -33h-561q-32 0 -23 33l198 652q6 21 29 21zM345 564l-119 -432h241l-118 432h-4z" />
    <glyph glyph-name="product" unicode="&#x220f;" horiz-adv-x="808" 
d="M34 595v83q0 28 28 28h684q28 0 28 -28v-83q0 -28 -28 -28h-84v-539q0 -28 -28 -28h-109q-28 0 -28 28v539h-186v-539q0 -28 -28 -28h-109q-27 0 -27 28v539h-85q-28 0 -28 28z" />
    <glyph glyph-name="summation" unicode="&#x2211;" horiz-adv-x="617" 
d="M435 258l-203 -230h316q27 0 27 -27v-83q0 -28 -27 -28h-474q-28 0 -28 28v75q0 28 20 51l223 256l-219 251q-18 19 -18 51v76q0 28 28 28h461q28 0 28 -28v-82q0 -28 -28 -28h-305l200 -227q7 -7 7 -22v-38q0 -14 -8 -23z" />
    <glyph glyph-name="minus" unicode="&#x2212;" horiz-adv-x="604" 
d="M516 282h-428q-28 0 -28 27v75q0 27 28 27h428q27 0 27 -27v-75q0 -27 -27 -27z" />
    <glyph glyph-name="uni2215" unicode="&#x2215;" horiz-adv-x="82" 
d="M295 679l-388 -652q-15 -27 -40 -27h-65q-31 0 -15 28l388 652q15 26 40 26h65q14 0 18.5 -7t-3.5 -20z" />
    <glyph glyph-name="uni2219" unicode="&#x2219;" horiz-adv-x="260" 
d="M49 225v106q0 27 30 27h103q29 0 29 -27v-106q0 -28 -27 -28h-108q-27 0 -27 28z" />
    <glyph glyph-name="radical" unicode="&#x221a;" horiz-adv-x="757" 
d="M451 -70h-139q-26 0 -37 27l-146 388h-67q-28 0 -28 27v71q0 27 28 27h170q16 0 23 -5.5t12 -20.5l106 -332h5l155 631q6 24 32 24h119q30 0 22 -29l-221 -780q-7 -28 -34 -28z" />
    <glyph glyph-name="infinity" unicode="&#x221e;" horiz-adv-x="743" 
d="M372 475q50 52 141 52q96 0 141 -47t45 -129q0 -73 -44.5 -124.5t-142.5 -51.5q-96 0 -141 53q-50 -52 -143 -52q-95 0 -141 47.5t-46 128.5q0 73 45.5 124.5t144.5 51.5q96 0 141 -53zM314 341l20 76q-23 35 -83 35q-94 0 -94 -111q0 -78 74 -78q37 0 54.5 18.5
t28.5 59.5zM429 361l-20 -76q25 -34 83 -34q94 0 94 111q0 78 -74 78q-36 0 -54 -19t-29 -60z" />
    <glyph glyph-name="integral" unicode="&#x222b;" horiz-adv-x="464" 
d="M151 60v491q0 85 36 124t118 39q53 0 81 -9q27 -5 26 -28l-3 -67q-1 -25 -23 -23q-5 0 -15.5 1.5t-18.5 1.5q-38 0 -38 -54v-491q0 -85 -36.5 -124t-118.5 -39q-45 0 -81 9q-27 7 -26 28l3 68q1 23 24 23q3 0 14 -2t19 -2q39 0 39 54z" />
    <glyph glyph-name="approxequal" unicode="&#x2248;" horiz-adv-x="604" 
d="M534 258q-2 -54 -29.5 -81t-74.5 -27q-44 0 -93 18l-70 26q-40 15 -63 15q-26 0 -32 -22l-2 -10q-3 -19 -28 -19h-41q-33 0 -31 46q3 54 31 82t75 28q40 0 92 -19l67 -24q46 -16 65 -16q26 0 32 22l2 10q4 18 28 18h41q33 0 31 -47zM534 491q-2 -54 -29.5 -81t-74.5 -27
q-43 0 -93 18l-70 26q-40 15 -62 15q-27 0 -33 -22l-2 -10q-4 -19 -28 -19h-41q-32 0 -31 46q3 54 30.5 81.5t75.5 27.5q45 0 92 -18l67 -24q44 -16 66 -16q25 0 31 22l2 9q3 12 9 15.5t19 3.5h41q33 0 31 -47z" />
    <glyph glyph-name="notequal" unicode="&#x2260;" horiz-adv-x="604" 
d="M513 177h-224l-68 -149q-12 -28 -34 -28h-67q-32 0 -20 28l67 149h-76q-27 0 -27 27v68q0 27 28 27h126l44 99h-171q-27 0 -27 28v68q0 27 28 27h221l72 159q10 26 34 26h67q31 0 19 -28l-70 -157h78q27 0 27 -27v-68q0 -28 -27 -28h-129l-44 -99h173q27 0 27 -27v-68
q0 -27 -27 -27z" />
    <glyph glyph-name="lessequal" unicode="&#x2264;" horiz-adv-x="604" 
d="M64 421q0 16 14 27l345 255q21 15 39 -4l60 -65q9 -10 7 -21t-11 -17l-250 -176l250 -176q23 -18 4 -38l-60 -65q-17 -20 -39 -4l-345 255q-14 10 -14 29zM498 0h-403q-27 0 -27 27v47q0 27 28 27h402q27 0 27 -27v-47q0 -27 -27 -27z" />
    <glyph glyph-name="greaterequal" unicode="&#x2265;" horiz-adv-x="604" 
d="M542 420q0 -18 -14 -28l-346 -255q-21 -15 -38 4l-60 65q-9 9 -7.5 20t11.5 18l249 176l-249 176q-10 7 -11.5 18t7.5 20l60 65q19 20 38 4l346 -255q14 -11 14 -28zM510 0h-402q-27 0 -27 27v47q0 27 27 27h402q28 0 28 -27v-47q0 -27 -28 -27z" />
    <glyph glyph-name="lozenge" unicode="&#x25ca;" horiz-adv-x="694" 
d="M347 177l138 176l-138 176l-139 -176zM347 -13q-11 0 -23 13l-269 339q-6 7 -6 14t6 14l269 339q11 12 23 12t23 -12l268 -339q7 -9 7 -14t-7 -14l-268 -339q-10 -13 -23 -13z" />
    <glyph glyph-name="uniE000" unicode="&#xe000;" horiz-adv-x="500" 
 />
    <glyph glyph-name="Q.alt" unicode="&#xe001;" horiz-adv-x="719" 
d="M271 -81l9 82q-111 20 -174.5 109.5t-63.5 242.5q0 183 83 274t234 91q152 0 235 -91t83 -274q0 -152 -64 -242t-175 -110l10 -82q4 -29 -27 -29h-122q-31 0 -28 29zM359 137q73 0 108.5 52.5t35.5 163.5q0 217 -144 217q-143 0 -143 -216q0 -217 143 -217z" />
    <glyph glyph-name="a.alt" unicode="&#xe002;" horiz-adv-x="631" 
d="M411 266q0 151 -104 151q-51 0 -76.5 -35.5t-25.5 -114.5q0 -80 25.5 -115.5t76.5 -35.5q104 0 104 150zM572 505v-477q0 -28 -27 -28h-96q-27 0 -29 22l-5 45q-21 -37 -66 -57.5t-94 -20.5q-103 0 -159.5 70t-56.5 207q0 138 56.5 208t159.5 70q48 0 93.5 -21.5
t66.5 -56.5l5 44q3 22 29 22h96q27 0 27 -27z" />
    <glyph glyph-name="u.alt" unicode="&#xe003;" horiz-adv-x="601" 
d="M301 -11q-116 0 -181 55t-65 163v298q0 27 27 27h108q28 0 28 -27v-290q0 -91 83 -91q82 0 82 91v290q0 27 28 27h108q27 0 27 -27v-298q0 -109 -64.5 -163.5t-180.5 -54.5z" />
    <glyph glyph-name="y.alt" unicode="&#xe004;" horiz-adv-x="601" 
d="M390 109v34q-49 -74 -154 -74q-181 0 -181 193v243q0 27 27 27h108q28 0 28 -27v-215q0 -45 15.5 -68t54.5 -23q43 0 67 28t24 75v203q0 27 28 27h108q27 0 27 -27v-406q0 -104 -68 -162.5t-194 -58.5q-123 0 -187 32q-23 12 -17 34l15 63q7 28 34 17q74 -26 132 -26
q70 0 101.5 27t31.5 84z" />
    <glyph glyph-name="j.alt" unicode="&#xe005;" horiz-adv-x="289" 
d="M226 505v-587q0 -28 -27 -28h-109q-27 0 -27 28v587q0 27 27 27h109q27 0 27 -27zM227 677v-63q0 -28 -27 -28h-111q-27 0 -27 28v63q0 27 27 27h111q27 0 27 -27z" />
    <glyph glyph-name="agrave.alt" unicode="&#xe006;" horiz-adv-x="631" 
d="M411 266q0 151 -104 151q-51 0 -76.5 -35.5t-25.5 -114.5q0 -80 25.5 -115.5t76.5 -35.5q104 0 104 150zM572 505v-477q0 -28 -27 -28h-96q-27 0 -29 22l-5 45q-21 -37 -66 -57.5t-94 -20.5q-103 0 -159.5 70t-56.5 207q0 138 56.5 208t159.5 70q48 0 93.5 -21.5
t66.5 -56.5l5 44q3 22 29 22h96q27 0 27 -27zM364 702l40 -87q7 -22 -17 -22h-61q-21 0 -35 14l-86 85q-9 8 -6 18.5t16 10.5h118q23 0 31 -19z" />
    <glyph glyph-name="aacute.alt" unicode="&#xe007;" horiz-adv-x="631" 
d="M411 266q0 151 -104 151q-51 0 -76.5 -35.5t-25.5 -114.5q0 -80 25.5 -115.5t76.5 -35.5q104 0 104 150zM572 505v-477q0 -28 -27 -28h-96q-27 0 -29 22l-5 45q-21 -37 -66 -57.5t-94 -20.5q-103 0 -159.5 70t-56.5 207q0 138 56.5 208t159.5 70q48 0 93.5 -21.5
t66.5 -56.5l5 44q3 22 29 22h96q27 0 27 -27zM241 615l40 87q8 19 30 19h118q13 0 15.5 -10.5t-6.5 -18.5l-85 -85q-14 -14 -35 -14h-61q-11 0 -15.5 6.5t-0.5 15.5z" />
    <glyph glyph-name="acircumflex.alt" unicode="&#xe008;" horiz-adv-x="631" 
d="M411 266q0 151 -104 151q-51 0 -76.5 -35.5t-25.5 -114.5q0 -80 25.5 -115.5t76.5 -35.5q104 0 104 150zM572 505v-477q0 -28 -27 -28h-96q-27 0 -29 22l-5 45q-21 -37 -66 -57.5t-94 -20.5q-103 0 -159.5 70t-56.5 207q0 138 56.5 208t159.5 70q48 0 93.5 -21.5
t66.5 -56.5l5 44q3 22 29 22h96q27 0 27 -27zM384 606l-66 54l-68 -54q-17 -13 -30 -13h-50q-12 0 -15.5 9t3.5 17l91 100q14 17 38 17h61q24 0 38 -17l91 -100q7 -8 3.5 -17t-15.5 -9h-50q-16 0 -31 13z" />
    <glyph glyph-name="atilde.alt" unicode="&#xe009;" horiz-adv-x="631" 
d="M411 266q0 151 -104 151q-51 0 -76.5 -35.5t-25.5 -114.5q0 -80 25.5 -115.5t76.5 -35.5q104 0 104 150zM572 505v-477q0 -28 -27 -28h-96q-27 0 -29 22l-5 45q-21 -37 -66 -57.5t-94 -20.5q-103 0 -159.5 70t-56.5 207q0 138 56.5 208t159.5 70q48 0 93.5 -21.5
t66.5 -56.5l5 44q3 22 29 22h96q27 0 27 -27zM498 677q0 -86 -79 -86q-40 0 -83 16l-43 15q-64 25 -70 -4l-1 -7q-4 -17 -25 -17h-35q-14 0 -20 6.5t-6 24.5q0 42 21 66t61 24q37 0 81 -16l44 -16q65 -22 69 6l1 7q4 17 25 17h35q25 0 25 -36z" />
    <glyph glyph-name="adieresis.alt" unicode="&#xe00a;" horiz-adv-x="631" 
d="M411 266q0 151 -104 151q-51 0 -76.5 -35.5t-25.5 -114.5q0 -80 25.5 -115.5t76.5 -35.5q104 0 104 150zM572 505v-477q0 -28 -27 -28h-96q-27 0 -29 22l-5 45q-21 -37 -66 -57.5t-94 -20.5q-103 0 -159.5 70t-56.5 207q0 138 56.5 208t159.5 70q48 0 93.5 -21.5
t66.5 -56.5l5 44q3 22 29 22h96q27 0 27 -27zM282 681v-61q0 -27 -27 -27h-83q-28 0 -28 27v61q0 27 28 27h83q27 0 27 -27zM491 681v-61q0 -27 -28 -27h-83q-27 0 -27 27v61q0 27 27 27h83q28 0 28 -27z" />
    <glyph glyph-name="amacron.alt" unicode="&#xe00b;" horiz-adv-x="631" 
d="M411 266q0 151 -104 151q-51 0 -76.5 -35.5t-25.5 -114.5q0 -80 25.5 -115.5t76.5 -35.5q104 0 104 150zM572 505v-477q0 -28 -27 -28h-96q-27 0 -29 22l-5 45q-21 -37 -66 -57.5t-94 -20.5q-103 0 -159.5 70t-56.5 207q0 138 56.5 208t159.5 70q48 0 93.5 -21.5
t66.5 -56.5l5 44q3 22 29 22h96q27 0 27 -27zM470 598h-305q-26 0 -26 26v39q0 26 26 26h305q26 0 26 -26v-39q0 -26 -26 -26z" />
    <glyph glyph-name="abreve.alt" unicode="&#xe00c;" horiz-adv-x="631" 
d="M411 266q0 151 -104 151q-51 0 -76.5 -35.5t-25.5 -114.5q0 -80 25.5 -115.5t76.5 -35.5q104 0 104 150zM572 505v-477q0 -28 -27 -28h-96q-27 0 -29 22l-5 45q-21 -37 -66 -57.5t-94 -20.5q-103 0 -159.5 70t-56.5 207q0 138 56.5 208t159.5 70q48 0 93.5 -21.5
t66.5 -56.5l5 44q3 22 29 22h96q27 0 27 -27zM318 588q-82 0 -123 38.5t-41 93.5q0 21 21 21h41q21 0 24 -20q12 -55 78 -55q65 0 76 55q5 20 25 20h41q21 0 21 -21q-1 -56 -41.5 -94t-121.5 -38z" />
    <glyph glyph-name="aring.alt" unicode="&#xe00d;" horiz-adv-x="631" 
d="M318 646q23 0 38 14t15 36t-15.5 36t-38.5 14t-38 -14t-15 -36t15 -36t39 -14zM317 805q52 0 86 -30.5t34 -78.5q0 -49 -33.5 -79t-85.5 -30t-86 30t-34 79q0 48 33.5 78.5t85.5 30.5zM411 266q0 151 -104 151q-51 0 -76.5 -35.5t-25.5 -114.5q0 -80 25.5 -115.5
t76.5 -35.5q104 0 104 150zM572 505v-477q0 -28 -27 -28h-96q-27 0 -29 22l-5 45q-21 -37 -66 -57.5t-94 -20.5q-103 0 -159.5 70t-56.5 207q0 138 56.5 208t159.5 70q48 0 93.5 -21.5t66.5 -56.5l5 44q3 22 29 22h96q27 0 27 -27z" />
    <glyph glyph-name="aringacute.alt" unicode="&#xe00e;" horiz-adv-x="631" 
d="M572 505v-477q0 -28 -27 -28h-96q-27 0 -29 22l-5 45q-21 -37 -66 -57.5t-94 -20.5q-103 0 -159.5 70t-56.5 207q0 138 56.5 208t159.5 70q48 0 93.5 -21.5t66.5 -56.5l5 44q3 22 29 22h96q27 0 27 -27zM197 696q0 68 61 96l34 75q8 19 30 19h118q13 0 15.5 -10.5
t-6.5 -18.5l-68 -68q55 -29 55 -93q0 -49 -33.5 -79t-85.5 -30t-86 30t-34 79zM411 266q0 151 -104 151q-51 0 -76.5 -35.5t-25.5 -114.5q0 -80 25.5 -115.5t76.5 -35.5q104 0 104 150zM317 646q23 0 38 14t15 36t-15 36t-39 14q-23 0 -38 -14t-15 -36t15 -36t39 -14z" />
    <glyph glyph-name="aogonek.alt" unicode="&#xe00f;" horiz-adv-x="631" 
d="M572 505v-477q0 -28 -27 -28h-20q-51 -28 -51 -65q0 -31 43 -31q10 0 19.5 2t12.5 2q12 1 15 -11l10 -35q4 -13 -9 -20q-30 -18 -80 -18q-104 0 -104 76q0 31 23 58t57 42h-12q-27 0 -29 22l-5 45q-21 -37 -66 -57.5t-94 -20.5q-103 0 -159.5 70t-56.5 207
q0 138 56.5 208t159.5 70q48 0 93.5 -21.5t66.5 -56.5l5 44q3 22 29 22h96q27 0 27 -27zM411 266q0 151 -104 151q-51 0 -76.5 -35.5t-25.5 -114.5q0 -80 25.5 -115.5t76.5 -35.5q104 0 104 150z" />
    <glyph glyph-name="ij.alt" unicode="&#xe010;" horiz-adv-x="568" 
d="M226 505v-477q0 -28 -27 -28h-109q-27 0 -27 28v477q0 27 27 27h109q27 0 27 -27zM227 677v-63q0 -28 -27 -28h-111q-27 0 -27 28v63q0 27 27 27h111q27 0 27 -27zM505 505v-587q0 -28 -27 -28h-109q-27 0 -27 28v587q0 27 27 27h109q27 0 27 -27zM506 677v-63
q0 -28 -27 -28h-111q-27 0 -27 28v63q0 27 27 27h111q27 0 27 -27z" />
    <glyph glyph-name="jcircumflex.alt" unicode="&#xe011;" horiz-adv-x="290" 
d="M211 606l-66 54l-68 -54q-17 -13 -30 -13h-50q-12 0 -15.5 9t3.5 17l91 100q14 17 38 17h61q24 0 38 -17l91 -100q7 -8 3.5 -17t-15.5 -9h-50q-16 0 -31 13zM226 505v-587q0 -28 -27 -28h-109q-27 0 -27 28v587q0 27 27 27h109q27 0 27 -27z" />
    <glyph glyph-name="dotlessj.alt" unicode="&#xe012;" horiz-adv-x="289" 
d="M226 505v-587q0 -28 -27 -28h-109q-27 0 -27 28v587q0 27 27 27h109q27 0 27 -27z" />
    <glyph glyph-name="ugrave.alt" unicode="&#xe013;" horiz-adv-x="601" 
d="M320 702l40 -87q7 -22 -17 -22h-61q-21 0 -35 14l-86 85q-9 8 -6 18.5t16 10.5h118q23 0 31 -19zM301 -11q-116 0 -181 55t-65 163v298q0 27 27 27h108q28 0 28 -27v-290q0 -91 83 -91q82 0 82 91v290q0 27 28 27h108q27 0 27 -27v-298q0 -109 -64.5 -163.5t-180.5 -54.5
z" />
    <glyph glyph-name="uacute.alt" unicode="&#xe014;" horiz-adv-x="601" 
d="M242 615l40 87q8 19 30 19h118q13 0 15.5 -10.5t-6.5 -18.5l-85 -85q-14 -14 -35 -14h-61q-11 0 -15.5 6.5t-0.5 15.5zM301 -11q-116 0 -181 55t-65 163v298q0 27 27 27h108q28 0 28 -27v-290q0 -91 83 -91q82 0 82 91v290q0 27 28 27h108q27 0 27 -27v-298
q0 -109 -64.5 -163.5t-180.5 -54.5z" />
    <glyph glyph-name="ucircumflex.alt" unicode="&#xe015;" horiz-adv-x="601" 
d="M301 -11q-116 0 -181 55t-65 163v298q0 27 27 27h108q28 0 28 -27v-290q0 -91 83 -91q82 0 82 91v290q0 27 28 27h108q27 0 27 -27v-298q0 -109 -64.5 -163.5t-180.5 -54.5zM367 606l-66 54l-68 -54q-17 -13 -30 -13h-50q-12 0 -15.5 9t3.5 17l91 100q14 17 38 17h61
q24 0 38 -17l91 -100q7 -8 3.5 -17t-15.5 -9h-50q-16 0 -31 13z" />
    <glyph glyph-name="utilde.alt" unicode="&#xe016;" horiz-adv-x="601" 
d="M481 677q0 -86 -79 -86q-40 0 -83 16l-43 15q-64 25 -70 -4l-1 -7q-4 -17 -25 -17h-35q-14 0 -20 6.5t-6 24.5q0 42 21 66t61 24q37 0 81 -16l44 -16q65 -22 69 6l1 7q4 17 25 17h35q25 0 25 -36zM301 -11q-116 0 -181 55t-65 163v298q0 27 27 27h108q28 0 28 -27v-290
q0 -91 83 -91q82 0 82 91v290q0 27 28 27h108q27 0 27 -27v-298q0 -109 -64.5 -163.5t-180.5 -54.5z" />
    <glyph glyph-name="udieresis.alt" unicode="&#xe017;" horiz-adv-x="601" 
d="M301 -11q-116 0 -181 55t-65 163v298q0 27 27 27h108q28 0 28 -27v-290q0 -91 83 -91q82 0 82 91v290q0 27 28 27h108q27 0 27 -27v-298q0 -109 -64.5 -163.5t-180.5 -54.5zM265 681v-61q0 -27 -27 -27h-83q-28 0 -28 27v61q0 27 28 27h83q27 0 27 -27zM474 681v-61
q0 -27 -28 -27h-83q-27 0 -27 27v61q0 27 27 27h83q28 0 28 -27z" />
    <glyph glyph-name="umacron.alt" unicode="&#xe018;" horiz-adv-x="601" 
d="M301 -11q-116 0 -181 55t-65 163v298q0 27 27 27h108q28 0 28 -27v-290q0 -91 83 -91q82 0 82 91v290q0 27 28 27h108q27 0 27 -27v-298q0 -109 -64.5 -163.5t-180.5 -54.5zM453 598h-305q-26 0 -26 26v39q0 26 26 26h305q26 0 26 -26v-39q0 -26 -26 -26z" />
    <glyph glyph-name="ubreve.alt" unicode="&#xe019;" horiz-adv-x="601" 
d="M301 588q-82 0 -123 38.5t-41 93.5q0 21 21 21h41q21 0 24 -20q12 -55 78 -55q65 0 76 55q5 20 25 20h41q21 0 21 -21q-1 -56 -41.5 -94t-121.5 -38zM301 -11q-116 0 -181 55t-65 163v298q0 27 27 27h108q28 0 28 -27v-290q0 -91 83 -91q82 0 82 91v290q0 27 28 27h108
q27 0 27 -27v-298q0 -109 -64.5 -163.5t-180.5 -54.5z" />
    <glyph glyph-name="uring.alt" unicode="&#xe01a;" horiz-adv-x="601" 
d="M301 646q23 0 38 14t15 36t-15 36t-39 14q-23 0 -38 -14t-15 -36t15 -36t39 -14zM300 805q52 0 86 -30.5t34 -78.5q0 -49 -33.5 -79t-85.5 -30t-86 30t-34 79q0 48 33.5 78.5t85.5 30.5zM301 -11q-116 0 -181 55t-65 163v298q0 27 27 27h108q28 0 28 -27v-290
q0 -91 83 -91q82 0 82 91v290q0 27 28 27h108q27 0 27 -27v-298q0 -109 -64.5 -163.5t-180.5 -54.5z" />
    <glyph glyph-name="uhungarumlaut.alt" unicode="&#xe01b;" horiz-adv-x="601" 
d="M301 -11q-116 0 -181 55t-65 163v298q0 27 27 27h108q28 0 28 -27v-290q0 -91 83 -91q82 0 82 91v290q0 27 28 27h108q27 0 27 -27v-298q0 -109 -64.5 -163.5t-180.5 -54.5zM138 615l36 87q9 19 28 19h104q12 0 15.5 -10.5t-4.5 -18.5l-73 -85q-13 -14 -34 -14h-53
q-12 0 -17 6.5t-2 15.5zM332 615l34 87q6 19 29 19h103q14 0 17 -10.5t-5 -18.5l-72 -85q-11 -14 -35 -14h-53q-25 0 -18 22z" />
    <glyph glyph-name="ydieresis.alt" unicode="&#xe01c;" horiz-adv-x="601" 
d="M390 109v34q-49 -74 -154 -74q-181 0 -181 193v243q0 27 27 27h108q28 0 28 -27v-215q0 -45 15.5 -68t54.5 -23q43 0 67 28t24 75v203q0 27 28 27h108q27 0 27 -27v-406q0 -104 -68 -162.5t-194 -58.5q-123 0 -187 32q-23 12 -17 34l15 63q7 28 34 17q74 -26 132 -26
q70 0 101.5 27t31.5 84zM265 681v-61q0 -27 -27 -27h-83q-28 0 -28 27v61q0 27 28 27h83q27 0 27 -27zM474 681v-61q0 -27 -28 -27h-83q-27 0 -27 27v61q0 27 27 27h83q28 0 28 -27z" />
    <glyph glyph-name="yacute.alt" unicode="&#xe01d;" horiz-adv-x="601" 
d="M234 615l40 87q8 19 30 19h118q13 0 15.5 -10.5t-6.5 -18.5l-85 -85q-14 -14 -35 -14h-61q-11 0 -15.5 6.5t-0.5 15.5zM390 109v34q-49 -74 -154 -74q-181 0 -181 193v243q0 27 27 27h108q28 0 28 -27v-215q0 -45 15.5 -68t54.5 -23q43 0 67 28t24 75v203q0 27 28 27h108
q27 0 27 -27v-406q0 -104 -68 -162.5t-194 -58.5q-123 0 -187 32q-23 12 -17 34l15 63q7 28 34 17q74 -26 132 -26q70 0 101.5 27t31.5 84z" />
    <glyph glyph-name="ycircumflex.alt" unicode="&#xe01e;" horiz-adv-x="601" 
d="M390 109v34q-49 -74 -154 -74q-181 0 -181 193v243q0 27 27 27h108q28 0 28 -27v-215q0 -45 15.5 -68t54.5 -23q43 0 67 28t24 75v203q0 27 28 27h108q27 0 27 -27v-406q0 -104 -68 -162.5t-194 -58.5q-123 0 -187 32q-23 12 -17 34l15 63q7 28 34 17q74 -26 132 -26
q70 0 101.5 27t31.5 84zM364 606l-66 54l-68 -54q-17 -13 -30 -13h-50q-12 0 -15.5 9t3.5 17l91 100q14 17 38 17h61q24 0 38 -17l91 -100q7 -8 3.5 -17t-15.5 -9h-50q-16 0 -31 13z" />
    <glyph glyph-name="ygrave.alt" unicode="&#xe01f;" horiz-adv-x="601" 
d="M316 702l40 -87q7 -22 -17 -22h-61q-21 0 -35 14l-86 85q-9 8 -6 18.5t16 10.5h118q23 0 31 -19zM390 109v34q-49 -74 -154 -74q-181 0 -181 193v243q0 27 27 27h108q28 0 28 -27v-215q0 -45 15.5 -68t54.5 -23q43 0 67 28t24 75v203q0 27 28 27h108q27 0 27 -27v-406
q0 -104 -68 -162.5t-194 -58.5q-123 0 -187 32q-23 12 -17 34l15 63q7 28 34 17q74 -26 132 -26q70 0 101.5 27t31.5 84z" />
    <glyph glyph-name="i.dot" unicode="&#xe020;" horiz-adv-x="289" 
d="M226 505v-477q0 -28 -27 -28h-109q-27 0 -27 28v477q0 27 27 27h109q27 0 27 -27zM227 677v-63q0 -28 -27 -28h-111q-27 0 -27 28v63q0 27 27 27h111q27 0 27 -27z" />
    <glyph glyph-name="dollar.old" unicode="&#xe021;" horiz-adv-x="552" 
d="M325 654v-59q91 -7 146 -33q21 -12 15 -31l-25 -67q-8 -23 -34 -14q-72 21 -130 21q-88 0 -88 -44q0 -16 13 -28t28.5 -19t55.5 -21l7.5 -3t6.5 -2.5t8 -2.5q34 -13 54 -21.5t48.5 -25t44 -34.5t27 -45.5t11.5 -61.5q0 -73 -48 -117t-140 -53v-57q0 -24 -23 -24h-48
q-23 0 -23 24v55q-114 5 -179 37q-22 10 -16 31l26 72q8 23 33 13q65 -27 154 -27q98 0 98 45q0 13 -6 23t-24 19t-30.5 14t-44.5 16q-44 16 -65 24.5t-52 26t-45.5 35.5t-25.5 47.5t-11 67.5q0 67 47.5 109t140.5 51v59q0 23 23 23h48q23 0 23 -23z" />
    <glyph glyph-name="cent.old" unicode="&#xe022;" horiz-adv-x="543" 
d="M39 293q0 270 237 300v61q0 23 23 23h48q23 0 23 -23v-60q73 -7 127 -36q23 -13 15 -33l-31 -71q-11 -21 -34 -12q-44 19 -97 19q-74 0 -109.5 -40.5t-35.5 -127.5q0 -168 146 -168q57 0 101 19q24 10 33 -12l31 -71q8 -19 -15 -32q-46 -29 -131 -37v-56q0 -23 -23 -23
h-48q-23 0 -23 23v57q-237 29 -237 300z" />
    <glyph glyph-name="sterling.old" unicode="&#xe023;" horiz-adv-x="596" 
d="M123 252h-71q-19 0 -19 19v35q0 19 19 19h35q-28 47 -28 93q0 77 65.5 127.5t178.5 50.5q130 0 186 -48t56 -126q0 -44 -23 -44h-95q-21 0 -21 16q0 3 1 10t1 12q0 54 -87 54q-96 0 -96 -77q0 -30 19 -68h142q19 0 19 -19v-35q0 -19 -19 -19h-116q6 -14 6 -32
q0 -64 -56 -103q26 8 60 8q20 0 54 -5t53 -5q54 0 59 54q1 21 25 21h74q14 0 20.5 -6t6.5 -23q0 -83 -27 -127.5t-100 -44.5q-37 0 -103 10.5t-99 10.5q-67 0 -119 -18q-24 -9 -33 4l-46 67q-11 20 5 31q40 21 62 54.5t22 61.5q0 22 -11 42z" />
    <glyph glyph-name="yen.old" unicode="&#xe024;" horiz-adv-x="586" 
d="M502 123h-126v-97q0 -26 -26 -26h-113q-26 0 -26 26v97h-126q-19 0 -19 18v34q0 18 19 18h126v17l-25 43h-101q-19 0 -19 18v33q0 19 19 19h64l-134 235q-7 10 -3 20t20 10h112q24 0 33 -19l115 -243h2l116 243q9 19 33 19h111q17 0 21 -10t-3 -20l-135 -235h65
q19 0 19 -19v-33q0 -18 -19 -18h-103l-24 -43v-17h127q19 0 19 -18v-34q0 -18 -19 -18z" />
    <glyph glyph-name="Euro.old" unicode="&#xe025;" horiz-adv-x="572" 
d="M23 272h39q-1 7 -1 22q0 7 2 25h-40q-20 0 -20 18v31q0 18 20 18h47q22 101 95.5 155.5t191.5 54.5q49 0 98.5 -11.5t74.5 -28.5q22 -16 14 -33l-33 -68q-10 -23 -34 -13q-51 21 -99 21q-100 0 -133 -77h187q10 0 13.5 -5.5t-0.5 -15.5l-13 -31q-7 -15 -27 -15h-176
q-2 -18 -2 -25q0 -6 2 -22h148q21 0 13 -22l-13 -31q-7 -15 -28 -15h-104q32 -82 134 -82q53 0 101 21q24 9 34 -12l33 -68q8 -18 -14 -33q-27 -17 -76 -28.5t-99 -11.5q-119 0 -193 55.5t-96 158.5h-46q-20 0 -20 18v31q0 19 20 19z" />
    <glyph glyph-name="zero.old" unicode="&#xe026;" horiz-adv-x="630" 
d="M315 595q126 0 200 -77t74 -226q0 -148 -74 -225t-200 -77t-200 77.5t-74 225.5t74 225t200 77zM315 123q107 0 107 169q0 170 -107 170t-107 -169q0 -170 107 -170z" />
    <glyph glyph-name="one.old" unicode="&#xe027;" horiz-adv-x="575" 
d="M510 0h-407q-28 0 -28 28v77q0 28 28 28h128v293l-85 -49q-22 -13 -35 4l-44 57q-15 21 3 33l148 107q18 12 37 12h112q29 0 29 -29v-428h114q28 0 28 -28v-77q0 -28 -28 -28z" />
    <glyph glyph-name="two.old" unicode="&#xe028;" horiz-adv-x="576" 
d="M43 25v72q0 17 20 29q10 6 45.5 26t51.5 29.5t48.5 29.5t49 33t40 33.5t35 37t20.5 37t9 40.5q0 72 -84 72q-45 0 -65.5 -19.5t-19.5 -45.5q0 -12 1.5 -24t1.5 -16q0 -21 -23 -21h-106q-19 0 -25 22q-4 15 -4 42q0 84 60 139t184 55q123 0 184 -51.5t61 -132.5
q0 -49 -21 -92.5t-61.5 -79t-73 -57.5t-81.5 -50h222q28 0 28 -28v-77q0 -28 -28 -28h-443q-26 0 -26 25z" />
    <glyph glyph-name="three.old" unicode="&#xe029;" horiz-adv-x="565" 
d="M172 318h69q105 0 105 75q0 71 -110 71q-76 0 -143 -30q-25 -10 -37 17l-27 66q-9 24 16 36q86 43 220 43q106 0 174 -43.5t68 -136.5q0 -112 -98 -147q50 -16 83.5 -58t33.5 -106q0 -109 -73 -167t-206 -58q-112 0 -216 47q-25 10 -16 36l27 71q10 26 37 16
q83 -35 153 -35t100.5 23t30.5 72q0 83 -116 83h-75q-30 0 -30 28v69q0 28 30 28z" />
    <glyph glyph-name="four.old" unicode="&#xe02a;" horiz-adv-x="647" 
d="M365 417l-200 -251h200v251zM388 588h113q28 0 28 -29v-393h74q28 0 28 -29v-75q0 -29 -28 -29h-74v-114q0 -29 -28 -29h-108q-29 0 -29 29v114h-309q-29 0 -29 29v74q0 23 11 37l318 399q13 16 33 16z" />
    <glyph glyph-name="five.old" unicode="&#xe02b;" horiz-adv-x="592" 
d="M486 455h-274q-2 -55 -11 -137q49 17 109 17q240 0 240 -217q0 -119 -71.5 -178.5t-205.5 -59.5q-139 0 -221 47q-26 15 -17 36l27 70q12 30 37 16q70 -36 160 -36q128 0 128 105q0 100 -112 100q-42 0 -80.5 -11t-46.5 -11q-6 0 -18 4l-56 16q-20 6 -17 27
q20 190 20 312q0 33 31 33h378q29 0 29 -28v-77q0 -28 -29 -28z" />
    <glyph glyph-name="six.old" unicode="&#xe02c;" horiz-adv-x="613" 
d="M255 694q13 12 31 12h133q11 0 14 -8t-6 -16q-116 -102 -164 -210q27 20 84 20q105 0 167.5 -65t62.5 -184t-71.5 -186t-190.5 -67q-127 0 -200 69.5t-73 205.5q0 115 62.5 231t150.5 198zM205 243q0 -60 28.5 -91t78.5 -31q103 0 103 122t-104 122q-50 0 -78 -30.5
t-28 -91.5z" />
    <glyph glyph-name="seven.old" unicode="&#xe02d;" horiz-adv-x="558" 
d="M60 588h436q29 0 29 -28v-65q0 -8 -3 -15.5t-5.5 -11t-8 -10t-6.5 -7.5q-74 -102 -135.5 -250t-74.5 -278q-3 -29 -30 -29h-109q-15 0 -22.5 8.5t-6.5 21.5q8 129 76 281t151 250h-291q-28 0 -28 28v77q0 28 28 28z" />
    <glyph glyph-name="eight.old" unicode="&#xe02e;" horiz-adv-x="639" 
d="M319 -10q-135 0 -208 54t-73 146q0 72 41 115.5t108 60.5q-60 18 -95.5 61.5t-35.5 102.5q0 90 69.5 138.5t193.5 48.5t193.5 -48.5t69.5 -138.5q0 -58 -35.5 -102t-94.5 -62q67 -17 108 -60.5t41 -115.5q0 -92 -73.5 -146t-208.5 -54zM319 601q-49 0 -75.5 -21
t-26.5 -56q0 -79 102 -107q103 28 103 107q0 35 -27 56t-76 21zM319 314q-118 -30 -118 -115q0 -39 31.5 -63t86.5 -24q56 0 87.5 23.5t31.5 63.5q0 84 -119 115z" />
    <glyph glyph-name="nine.old" unicode="&#xe02f;" horiz-adv-x="614" 
d="M361 -98q-15 -12 -32 -12h-132q-11 0 -14 8t6 16q114 101 161 198q-26 -18 -83 -18q-105 0 -167.5 64.5t-62.5 183.5q0 120 71.5 187t190.5 67q127 0 200 -70t73 -205q0 -115 -61 -227t-150 -192zM409 342q0 60 -28.5 91t-78.5 31q-103 0 -103 -122t103 -122
q50 0 78.5 31t28.5 91z" />
    <glyph glyph-name="dollar.tab" unicode="&#xe030;" horiz-adv-x="647" 
d="M382 779v-64q101 -9 161 -40q25 -12 16 -36l-28 -73q-10 -26 -37 -17q-62 24 -142 24q-117 0 -117 -60q0 -36 58 -62q17 -8 73 -28q48 -17 70.5 -26.5t58.5 -29.5t53 -40t30.5 -53t13.5 -74q0 -89 -56.5 -139t-149.5 -65v-68q0 -28 -28 -28h-47q-28 0 -28 28v63
q-126 6 -207 45q-14 6 -17.5 13.5t0.5 22.5l28 76q10 27 37 16q75 -31 158 -31q138 0 138 67q0 16 -7.5 28t-29 23.5t-34 16.5t-49.5 18q-9 3 -14 5q-40 13 -66 23.5t-59 29.5t-51.5 41t-32 56.5t-13.5 77.5q0 86 56.5 135.5t158.5 59.5v65q0 27 28 27h47q28 0 28 -27z" />
    <glyph glyph-name="cent.tab" unicode="&#xe031;" horiz-adv-x="647" 
d="M89 266q0 121 62 191.5t171 83.5v64q0 27 28 27h48q27 0 27 -27v-64q73 -8 117 -34q24 -14 14 -37l-29 -63q-10 -25 -39 -13q-46 18 -95 18q-66 0 -102 -36t-36 -110q0 -145 139 -145q55 0 99 20q27 12 39 -13l29 -63q9 -23 -15 -38q-41 -27 -121 -35v-64q0 -28 -27 -28
h-48q-28 0 -28 28v65q-110 13 -171.5 82.5t-61.5 190.5z" />
    <glyph glyph-name="sterling.tab" unicode="&#xe032;" horiz-adv-x="647" 
d="M142 316h-90q-21 0 -21 21v36q0 20 21 20h51q-33 64 -33 113q0 91 67 151.5t204 60.5q129 0 191 -53t62 -143q0 -47 -26 -47h-99q-24 0 -24 20q0 5 1 12t1 13q0 29 -25.5 46t-73.5 17q-57 0 -85 -26t-28 -67q0 -35 27 -97h173q21 0 21 -20v-36q0 -21 -21 -21h-146
q15 -35 15 -66q0 -72 -80 -118q34 9 71 9q26 0 67 -7.5t64 -7.5q36 0 51 16.5t17 49.5q1 25 32 25h73q31 0 31 -35q0 -94 -33.5 -142t-119.5 -48q-46 0 -111.5 14.5t-104.5 14.5q-74 0 -125 -22q-30 -12 -39 2l-55 78q-16 23 6 36q111 62 111 138q0 29 -17 63z" />
    <glyph glyph-name="yen.tab" unicode="&#xe033;" horiz-adv-x="647" 
d="M409 161v-132q0 -29 -29 -29h-114q-29 0 -29 29v132h-155q-21 0 -21 21v35q0 20 21 20h155v17l-30 55h-125q-21 0 -21 21v35q0 20 21 20h87l-154 285q-8 14 -2 25t21 11h119q27 0 39 -27l130 -282h3l129 282q11 27 39 27h119q15 0 21 -11t-2 -25l-154 -285h87
q21 0 21 -20v-35q0 -21 -21 -21h-125l-30 -55v-17h155q21 0 21 -20v-35q0 -21 -21 -21h-155z" />
    <glyph glyph-name="Euro.tab" unicode="&#xe034;" horiz-adv-x="647" 
d="M36 322h50q-2 18 -2 31q0 17 2 31h-50q-21 0 -21 21v36q0 21 21 21h58q24 121 108 188.5t213 67.5q116 0 193 -50q25 -15 14 -37l-33 -73q-12 -26 -41 -14q-52 24 -111 24q-124 0 -164 -106h234q11 0 14.5 -7t-0.5 -17l-15 -35q-8 -19 -29 -19h-217q-1 -10 -1 -31
q0 -22 1 -31h182q11 0 14.5 -7t-0.5 -17l-14 -35q-8 -19 -29 -19h-139q17 -49 58.5 -77.5t106.5 -28.5q58 0 112 25q28 13 40 -15l34 -73q5 -14 1.5 -21t-16.5 -16q-76 -49 -193 -49q-130 0 -214.5 67t-109.5 188h-57q-21 0 -21 21v36q0 21 21 21z" />
    <glyph glyph-name="zero.tab" unicode="&#xe035;" horiz-adv-x="647" 
d="M323 718q138 0 216 -92.5t78 -271.5t-78 -272t-216 -93q-137 0 -215.5 93t-78.5 271q0 179 78.5 272t215.5 93zM323 134q124 0 124 219t-124 219q-123 0 -123 -219t123 -219z" />
    <glyph glyph-name="one.tab" unicode="&#xe036;" horiz-adv-x="647" 
d="M298 29v503l-110 -65q-23 -13 -35 5l-50 65q-14 20 5 32l174 124q18 13 43 13h112q29 0 29 -29v-648q0 -29 -29 -29h-110q-29 0 -29 29z" />
    <glyph glyph-name="two.tab" unicode="&#xe037;" horiz-adv-x="647" 
d="M215 502q0 -14 2.5 -29.5t2.5 -19.5q0 -24 -25 -24h-102q-22 0 -28 26q-5 19 -5 52q0 94 63.5 152.5t191.5 58.5q138 0 203 -61.5t65 -158.5q0 -56 -27 -112t-72.5 -102.5t-91.5 -82t-96 -64.5h265q30 0 30 -29v-79q0 -29 -30 -29h-474q-29 0 -29 29v65q0 21 22 35
q60 34 113 70t106 83t84.5 99.5t31.5 102.5q0 97 -102 97q-52 0 -75 -23t-23 -56z" />
    <glyph glyph-name="three.tab" unicode="&#xe038;" horiz-adv-x="647" 
d="M222 426h76q53 0 77.5 18.5t24.5 59.5q0 78 -109 78q-80 0 -161 -32q-26 -11 -37 16l-27 68q-10 26 17 37q100 46 229 46q68 0 122.5 -17t92.5 -59.5t38 -107.5q0 -117 -102 -157q52 -15 85.5 -56.5t33.5 -108.5q0 -109 -69.5 -165t-205.5 -56q-134 0 -232 47
q-26 12 -17 37l27 71q11 27 38 16q76 -34 165 -34q67 0 97 22t30 68q0 82 -112 82h-81q-30 0 -30 29v69q0 29 30 29z" />
    <glyph glyph-name="four.tab" unicode="&#xe039;" horiz-adv-x="647" 
d="M510 0h-110q-29 0 -29 29v111h-324q-29 0 -29 30v76q0 21 12 36l332 408q13 16 33 16h114q29 0 29 -29v-402h75q29 0 29 -29v-76q0 -30 -29 -30h-75v-111q0 -29 -28 -29zM372 532l-212 -257h212v257z" />
    <glyph glyph-name="five.tab" unicode="&#xe03a;" horiz-adv-x="647" 
d="M591 229q0 -120 -75 -179.5t-215 -59.5q-130 0 -228 48q-25 12 -16 38l27 69q11 29 38 16q81 -34 169 -34q69 0 101 25t32 77q0 49 -28 74t-90 25q-43 0 -83.5 -11.5t-48.5 -11.5q-6 0 -18 4l-58 17q-19 5 -16 27q20 193 20 320q0 33 31 33h389q29 0 29 -29v-79
q0 -29 -29 -29h-283q-6 -91 -11 -139q49 17 115 17q128 0 188 -57.5t60 -160.5z" />
    <glyph glyph-name="six.tab" unicode="&#xe03b;" horiz-adv-x="647" 
d="M481 568q-53 16 -103 16q-88 0 -129 -45.5t-43 -131.5q58 70 167 70q115 0 175.5 -63.5t60.5 -168.5q0 -114 -72 -185t-194 -71q-150 0 -224 89.5t-74 242.5q0 194 76 295.5t243 101.5q87 0 151 -27q28 -10 22 -34l-18 -69q-7 -28 -38 -20zM341 126q55 0 86.5 33t31.5 89
q0 49 -30.5 80t-89.5 31t-91.5 -31.5t-32.5 -83.5q0 -48 32 -83t94 -35z" />
    <glyph glyph-name="seven.tab" unicode="&#xe03c;" horiz-adv-x="647" 
d="M159 28q14 131 85.5 287.5t151.5 253.5h-306q-29 0 -29 29v79q0 29 29 29h456q29 0 29 -29v-67q0 -10 -3.5 -18t-10.5 -16.5t-8 -10.5q-83 -119 -147 -262.5t-74 -274.5q-2 -16 -8 -22t-22 -6h-114q-32 0 -29 28z" />
    <glyph glyph-name="eight.tab" unicode="&#xe03d;" horiz-adv-x="647" 
d="M323 -11q-138 0 -211 54t-73 147q0 136 150 176q-61 18 -96.5 61t-35.5 103q0 91 70 139.5t196 48.5t195.5 -48.5t69.5 -139.5q0 -59 -35.5 -102.5t-95.5 -61.5q150 -40 150 -176q0 -93 -73 -147t-211 -54zM323 598q-102 0 -102 -76q0 -41 25 -66.5t77 -40.5
q102 30 102 107q0 76 -102 76zM323 314q-118 -30 -118 -113q0 -40 30.5 -63.5t87.5 -23.5q56 0 87 23.5t31 63.5q0 82 -118 113z" />
    <glyph glyph-name="nine.tab" unicode="&#xe03e;" horiz-adv-x="647" 
d="M167 138q53 -16 103 -16q168 0 171 173q-58 -66 -167 -66q-115 0 -176 63.5t-61 168.5q0 114 72 185t194 71q150 0 224 -90t74 -243q0 -194 -75 -294.5t-243 -100.5q-87 0 -151 26q-26 10 -21 34l18 69q7 28 38 20zM305 580q-55 0 -86.5 -33t-31.5 -88q0 -50 30.5 -81
t89.5 -31t91.5 31t32.5 83q0 51 -31.5 85t-94.5 34z" />
    <glyph glyph-name="dollar.tabold" unicode="&#xe03f;" horiz-adv-x="647" 
d="M375 654v-59q91 -7 146 -33q21 -12 15 -31l-25 -67q-8 -23 -34 -14q-72 21 -130 21q-88 0 -88 -44q0 -16 13 -28t28.5 -19t55.5 -21l7.5 -3t6.5 -2.5t8 -2.5q34 -13 54 -21.5t48.5 -25t44 -34.5t27 -45.5t11.5 -61.5q0 -73 -48 -117t-140 -53v-57q0 -24 -23 -24h-48
q-23 0 -23 24v55q-114 5 -179 37q-22 10 -16 31l26 72q8 23 33 13q65 -27 154 -27q98 0 98 45q0 13 -6 23t-24 19t-30.5 14t-44.5 16q-44 16 -65 24.5t-52 26t-45.5 35.5t-25.5 47.5t-11 67.5q0 67 47.5 109t140.5 51v59q0 23 23 23h48q23 0 23 -23z" />
    <glyph glyph-name="cent.tabold" unicode="&#xe040;" horiz-adv-x="647" 
d="M96 293q0 270 237 300v61q0 23 23 23h48q23 0 23 -23v-60q73 -7 127 -36q23 -13 15 -33l-31 -71q-11 -21 -34 -12q-44 19 -97 19q-74 0 -109.5 -40.5t-35.5 -127.5q0 -168 146 -168q57 0 101 19q24 10 33 -12l31 -71q8 -19 -15 -32q-46 -29 -131 -37v-56q0 -23 -23 -23
h-48q-23 0 -23 23v57q-237 29 -237 300z" />
    <glyph glyph-name="sterling.tabold" unicode="&#xe041;" horiz-adv-x="647" 
d="M151 252h-71q-19 0 -19 19v35q0 19 19 19h35q-28 47 -28 93q0 77 65.5 127.5t178.5 50.5q130 0 186 -48t56 -126q0 -44 -23 -44h-95q-21 0 -21 16q0 3 1 10t1 12q0 54 -87 54q-96 0 -96 -77q0 -30 19 -68h142q19 0 19 -19v-35q0 -19 -19 -19h-116q6 -14 6 -32
q0 -64 -56 -103q26 8 60 8q20 0 54 -5t53 -5q54 0 59 54q1 21 25 21h74q14 0 20.5 -6t6.5 -23q0 -83 -27 -127.5t-100 -44.5q-37 0 -103 10.5t-99 10.5q-67 0 -119 -18q-24 -9 -33 4l-46 67q-11 20 5 31q40 21 62 54.5t22 61.5q0 22 -11 42z" />
    <glyph glyph-name="yen.tabold" unicode="&#xe042;" horiz-adv-x="647" 
d="M532 123h-126v-97q0 -26 -26 -26h-113q-26 0 -26 26v97h-126q-19 0 -19 18v34q0 18 19 18h126v17l-25 43h-101q-19 0 -19 18v33q0 19 19 19h64l-134 235q-7 10 -3 20t20 10h112q24 0 33 -19l115 -243h2l116 243q9 19 33 19h111q17 0 21 -10t-3 -20l-135 -235h65
q19 0 19 -19v-33q0 -18 -19 -18h-103l-24 -43v-17h127q19 0 19 -18v-34q0 -18 -19 -18z" />
    <glyph glyph-name="Euro.tabold" unicode="&#xe043;" horiz-adv-x="647" 
d="M57 272h39q-1 7 -1 22q0 7 2 25h-40q-20 0 -20 18v31q0 18 20 18h47q22 101 95.5 155.5t191.5 54.5q49 0 98.5 -11.5t74.5 -28.5q22 -16 14 -33l-33 -68q-10 -23 -34 -13q-51 21 -99 21q-100 0 -133 -77h187q10 0 13.5 -5.5t-0.5 -15.5l-13 -31q-7 -15 -27 -15h-176
q-2 -18 -2 -25q0 -6 2 -22h148q21 0 13 -22l-13 -31q-7 -15 -28 -15h-104q32 -82 134 -82q53 0 101 21q24 9 34 -12l33 -68q8 -18 -14 -33q-27 -17 -76 -28.5t-99 -11.5q-119 0 -193 55.5t-96 158.5h-46q-20 0 -20 18v31q0 19 20 19z" />
    <glyph glyph-name="zero.tabold" unicode="&#xe044;" horiz-adv-x="647" 
d="M323 595q126 0 200 -77t74 -226q0 -148 -74 -225t-200 -77t-200 77.5t-74 225.5t74 225t200 77zM323 123q107 0 107 169q0 170 -107 170t-107 -169q0 -170 107 -170z" />
    <glyph glyph-name="one.tabold" unicode="&#xe045;" horiz-adv-x="647" 
d="M545 0h-407q-28 0 -28 28v77q0 28 28 28h128v293l-85 -49q-22 -13 -35 4l-44 57q-15 21 3 33l148 107q18 12 37 12h112q29 0 29 -29v-428h114q28 0 28 -28v-77q0 -28 -28 -28z" />
    <glyph glyph-name="two.tabold" unicode="&#xe046;" horiz-adv-x="647" 
d="M77 25v72q0 17 20 29q10 6 45.5 26t51.5 29.5t48.5 29.5t49 33t40 33.5t35 37t20.5 37t9 40.5q0 72 -84 72q-45 0 -65.5 -19.5t-19.5 -45.5q0 -12 1.5 -24t1.5 -16q0 -21 -23 -21h-106q-19 0 -25 22q-4 15 -4 42q0 84 60 139t184 55q123 0 184 -51.5t61 -132.5
q0 -49 -21 -92.5t-61.5 -79t-73 -57.5t-81.5 -50h222q28 0 28 -28v-77q0 -28 -28 -28h-443q-26 0 -26 25z" />
    <glyph glyph-name="three.tabold" unicode="&#xe047;" horiz-adv-x="647" 
d="M213 318h69q105 0 105 75q0 71 -110 71q-76 0 -143 -30q-25 -10 -37 17l-27 66q-9 24 16 36q86 43 220 43q106 0 174 -43.5t68 -136.5q0 -112 -98 -147q50 -16 83.5 -58t33.5 -106q0 -109 -73 -167t-206 -58q-112 0 -216 47q-25 10 -16 36l27 71q10 26 37 16
q83 -35 153 -35t100.5 23t30.5 72q0 83 -116 83h-75q-30 0 -30 28v69q0 28 30 28z" />
    <glyph glyph-name="four.tabold" unicode="&#xe048;" horiz-adv-x="647" 
d="M369 417l-200 -251h200v251zM392 588h113q28 0 28 -29v-393h74q28 0 28 -29v-75q0 -29 -28 -29h-74v-114q0 -29 -28 -29h-108q-29 0 -29 29v114h-309q-29 0 -29 29v74q0 23 11 37l318 399q13 16 33 16z" />
    <glyph glyph-name="five.tabold" unicode="&#xe049;" horiz-adv-x="647" 
d="M516 455h-274q-2 -55 -11 -137q49 17 109 17q240 0 240 -217q0 -119 -71.5 -178.5t-205.5 -59.5q-139 0 -221 47q-26 15 -17 36l27 70q12 30 37 16q70 -36 160 -36q128 0 128 105q0 100 -112 100q-42 0 -80.5 -11t-46.5 -11q-6 0 -18 4l-56 16q-20 6 -17 27
q20 190 20 312q0 33 31 33h378q29 0 29 -28v-77q0 -28 -29 -28z" />
    <glyph glyph-name="six.tabold" unicode="&#xe04a;" horiz-adv-x="647" 
d="M273 694q13 12 31 12h133q11 0 14 -8t-6 -16q-116 -102 -164 -210q27 20 84 20q105 0 167.5 -65t62.5 -184t-71.5 -186t-190.5 -67q-127 0 -200 69.5t-73 205.5q0 115 62.5 231t150.5 198zM223 243q0 -60 28.5 -91t78.5 -31q103 0 103 122t-104 122q-50 0 -78 -30.5
t-28 -91.5z" />
    <glyph glyph-name="seven.tabold" unicode="&#xe04b;" horiz-adv-x="647" 
d="M105 588h436q29 0 29 -28v-65q0 -8 -3 -15.5t-5.5 -11t-8 -10t-6.5 -7.5q-74 -102 -135.5 -250t-74.5 -278q-3 -29 -30 -29h-109q-15 0 -22.5 8.5t-6.5 21.5q8 129 76 281t151 250h-291q-28 0 -28 28v77q0 28 28 28z" />
    <glyph glyph-name="eight.tabold" unicode="&#xe04c;" horiz-adv-x="647" 
d="M325 -10q-135 0 -208 54t-73 146q0 72 41 115.5t108 60.5q-60 18 -95.5 61.5t-35.5 102.5q0 90 69.5 138.5t193.5 48.5t193.5 -48.5t69.5 -138.5q0 -58 -35.5 -102t-94.5 -62q67 -17 108 -60.5t41 -115.5q0 -92 -73.5 -146t-208.5 -54zM325 601q-49 0 -75.5 -21
t-26.5 -56q0 -79 102 -107q103 28 103 107q0 35 -27 56t-76 21zM325 314q-118 -30 -118 -115q0 -39 31.5 -63t86.5 -24q56 0 87.5 23.5t31.5 63.5q0 84 -119 115z" />
    <glyph glyph-name="nine.tabold" unicode="&#xe04d;" horiz-adv-x="647" 
d="M376 -98q-15 -12 -32 -12h-132q-11 0 -14 8t6 16q114 101 161 198q-26 -18 -83 -18q-105 0 -167.5 64.5t-62.5 183.5q0 120 71.5 187t190.5 67q127 0 200 -70t73 -205q0 -115 -61 -227t-150 -192zM424 342q0 60 -28.5 91t-78.5 31q-103 0 -103 -122t103 -122
q50 0 78.5 31t28.5 91z" />
    <glyph glyph-name="ampersand.alt" unicode="&#xe04e;" horiz-adv-x="754" 
d="M658 189h-65q-10 -39 -27.5 -71.5t-47.5 -63t-77.5 -48t-108.5 -17.5q-59 0 -109 16t-91.5 50t-65.5 93.5t-24 139.5q0 144 77 224.5t201 80.5q83 0 128.5 -38.5t45.5 -94.5q0 -25 -11 -48q85 74 110 185q5 19 25 15l95 -18q20 -5 15 -24q-43 -148 -179.5 -235
t-338.5 -113q19 -106 124 -106q69 -1 111.5 43t58.5 118q3 16 10.5 20.5t22.5 4.5h121q27 0 27 -28v-58q0 -27 -27 -27zM328 470q-59 0 -88.5 -44t-29.5 -118q178 27 178 112q0 50 -60 50z" />
    <glyph glyph-name="at.cap" unicode="&#xe04f;" horiz-adv-x="936" 
d="M543 337l21 122q-26 10 -61 10q-62 0 -95 -41t-33 -104q0 -84 70 -84q81 0 98 97zM677 85q16 4 20 -14l8 -32q4 -14 -12 -19q-110 -32 -219 -32q-417 0 -417 335q0 178 120 285.5t318 107.5q188 0 287.5 -85.5t99.5 -223.5q0 -124 -61 -197t-163 -73h-61q-31 0 -35 20
l-8 46q-48 -67 -138 -67q-79 0 -126 44.5t-47 126.5q0 117 65 190t201 73q97 0 171 -36q21 -9 17 -28l-50 -296h18q137 0 137 198q0 110 -75 172.5t-233 62.5q-164 0 -260.5 -84.5t-96.5 -235.5q0 -139 82.5 -201.5t255.5 -62.5q82 0 202 26z" />
    <glyph glyph-name="paragraph.cap" unicode="&#xe050;" horiz-adv-x="562" 
d="M512 623h-34q-28 0 -39.5 -11.5t-11.5 -39.5v-450q0 -67 -28 -98t-97 -31q-47 0 -68 9q-15 7 -15 27v35q0 18 20 16q6 0 20 -1.5t22 -1.5q41 0 41 57v124h-31q-109 0 -177.5 57.5t-68.5 166.5q0 110 67 167t178 57h222q28 0 28 -27v-29q0 -27 -28 -27z" />
    <glyph glyph-name="registered.cap" unicode="&#xe051;" horiz-adv-x="875" 
d="M138 353q0 -126 77.5 -207.5t221.5 -81.5t222 81.5t78 207.5t-78 208t-222 82t-221.5 -82t-77.5 -208zM397 367h46q37 0 53 12t16 39q0 28 -15.5 39.5t-52.5 11.5h-47v-102zM301 559h147q178 0 178 -141q0 -46 -22.5 -77.5t-64.5 -44.5l81 -116q6 -9 3 -16.5t-13 -7.5
h-77q-17 0 -25 15l-72 109h-39v-105q0 -19 -20 -19h-76q-19 0 -19 19v365q0 19 19 19zM58 353q0 155 100.5 260t278.5 105q179 0 280 -105t101 -260t-101 -259.5t-280 -104.5q-178 0 -278.5 104.5t-100.5 259.5z" />
    <glyph glyph-name="questiondown.cap" unicode="&#xe052;" horiz-adv-x="554" 
d="M371 678v-107q0 -27 -30 -27h-110q-29 0 -29 27v107q0 28 27 28h114q28 0 28 -28zM207 457v-17q0 -21 -17 -42.5t-41 -42t-48 -45t-41 -62.5t-17 -84q0 -85 63.5 -130t180.5 -45q124 0 215 43q27 12 17 37l-28 71q-11 27 -38 16q-73 -29 -145 -29q-100 0 -100 65
q0 30 15.5 58t37.5 50.5t44 44t37.5 46t15.5 48.5v16q0 27 -29 27h-93q-29 0 -29 -25z" />
    <glyph glyph-name="exclamdown.cap" unicode="&#xe053;" horiz-adv-x="319" 
d="M75 571v107q0 28 27 28h115q27 0 27 -28v-107q0 -27 -29 -27h-111q-29 0 -29 27zM122 482h75q27 0 29 -26l30 -427q2 -29 -28 -29h-137q-30 0 -28 29l30 427q2 26 29 26z" />
    <glyph glyph-name="parenleft.cap" unicode="&#xe054;" horiz-adv-x="386" 
d="M71 353q0 169 149 348q11 15 30 15h76q14 0 18 -10t-4 -21q-115 -169 -115 -332q0 -155 115 -331q8 -11 4 -21t-18 -10h-76q-20 0 -30 14q-149 179 -149 348z" />
    <glyph glyph-name="parenright.cap" unicode="&#xe055;" horiz-adv-x="386" 
d="M316 353q0 -163 -150 -348q-10 -14 -30 -14h-76q-14 0 -17.5 10t3.5 21q115 179 115 331q0 163 -115 332q-8 11 -4 21t18 10h76q19 0 30 -15q150 -178 150 -348z" />
    <glyph glyph-name="bracketleft.cap" unicode="&#xe056;" horiz-adv-x="386" 
d="M345 87v-59q0 -28 -28 -28h-196q-28 0 -28 28v651q0 27 28 27h196q28 0 28 -27v-59q0 -28 -28 -28h-78v-478h78q28 0 28 -27z" />
    <glyph glyph-name="bracketright.cap" unicode="&#xe057;" horiz-adv-x="386" 
d="M41 28v59q0 27 27 27h79v478h-78q-28 0 -28 28v59q0 27 28 27h196q28 0 28 -27v-651q0 -28 -28 -28h-196q-28 0 -28 28z" />
    <glyph glyph-name="braceleft.cap" unicode="&#xe058;" horiz-adv-x="386" 
d="M26 317v72q0 27 28 27h15q53 0 53 117q0 101 33.5 137t129.5 36h46q27 0 27 -27v-60q0 -27 -27 -27h-16q-31 0 -39.5 -18.5t-8.5 -61.5q0 -136 -88 -159q88 -23 88 -158q0 -44 8.5 -62.5t39.5 -18.5h16q27 0 27 -27v-59q0 -28 -27 -28h-48q-95 0 -128 36.5t-33 137.5
q0 116 -53 116h-15q-28 0 -28 27z" />
    <glyph glyph-name="braceright.cap" unicode="&#xe059;" horiz-adv-x="386" 
d="M360 389v-72q0 -27 -28 -27h-15q-53 0 -53 -116q0 -102 -32.5 -138t-128.5 -36h-47q-28 0 -28 28v59q0 27 28 27h15q31 0 39.5 18.5t8.5 62.5q0 135 88 158q-88 23 -88 159q0 43 -8.5 61.5t-39.5 18.5h-15q-28 0 -28 27v60q0 27 28 27h45q96 0 129.5 -36t33.5 -137
q0 -117 53 -117h15q28 0 28 -27z" />
    <glyph glyph-name="guillemotleft.cap" unicode="&#xe05a;" horiz-adv-x="529" 
d="M30 353q0 5 4 13l82 140q11 19 33 19h91q14 0 18.5 -8.5t-2.5 -19.5l-85 -144l85 -144q7 -11 2.5 -19.5t-18.5 -8.5h-91q-23 0 -33 19l-82 140q-4 8 -4 13zM255 352q0 6 4 14l82 140q11 19 33 19h91q14 0 18 -8.5t-3 -19.5l-85 -144l85 -144q7 -12 3 -20t-18 -8h-91
q-23 0 -33 19l-82 140q-4 7 -4 12z" />
    <glyph glyph-name="guillemotright.cap" unicode="&#xe05b;" horiz-adv-x="529" 
d="M499 353q0 -5 -4 -13l-82 -140q-12 -19 -34 -19h-91q-13 0 -17.5 8t2.5 20l85 144l-85 144q-7 11 -2.5 19.5t17.5 8.5h91q23 0 34 -19l82 -140q4 -8 4 -13zM274 353q0 -5 -4 -13l-82 -140q-12 -19 -33 -19h-91q-14 0 -18.5 8t2.5 20l86 144l-86 144q-7 11 -2 19.5t18 8.5
h91q22 0 33 -19l82 -140q4 -8 4 -13z" />
    <glyph glyph-name="guilsinglleft.cap" unicode="&#xe05c;" horiz-adv-x="304" 
d="M30 352q0 6 4 14l82 140q11 19 33 19h91q14 0 18.5 -8.5t-2.5 -19.5l-85 -144l85 -144q7 -11 2.5 -19.5t-18.5 -8.5h-91q-23 0 -33 19l-82 140q-4 8 -4 12z" />
    <glyph glyph-name="guilsinglright.cap" unicode="&#xe05d;" horiz-adv-x="304" 
d="M273 352q0 -6 -2 -11l-83 -141q-12 -19 -33 -19h-91q-14 0 -18.5 8t2.5 20l86 144l-86 144q-7 11 -2 19.5t18 8.5h91q22 0 33 -19l82 -140q3 -6 3 -14z" />
    <glyph glyph-name="hyphen.cap" unicode="&#xe05e;" horiz-adv-x="402" 
d="M335 288h-269q-27 0 -27 27v75q0 27 28 27h268q28 0 28 -26v-76q0 -27 -28 -27z" />
    <glyph glyph-name="endash.cap" unicode="&#xe05f;" horiz-adv-x="546" 
d="M478 288h-411q-27 0 -27 27v75q0 27 27 27h411q28 0 28 -27v-75q0 -27 -28 -27z" />
    <glyph glyph-name="emdash.cap" unicode="&#xe060;" horiz-adv-x="781" 
d="M713 288h-646q-27 0 -27 27v75q0 27 27 27h646q28 0 28 -27v-75q0 -27 -28 -27z" />
    <glyph glyph-name="periodcentered.cap" unicode="&#xe061;" horiz-adv-x="260" 
d="M49 301v106q0 27 30 27h103q29 0 29 -27v-106q0 -28 -27 -28h-108q-27 0 -27 28z" />
    <glyph glyph-name="bullet.cap" unicode="&#xe062;" horiz-adv-x="423" 
d="M212 201q-65 0 -108.5 44t-43.5 109q0 64 44 108t108 44t107.5 -43.5t43.5 -108.5t-43.5 -109t-107.5 -44z" />
    <glyph glyph-name="bar.cap" unicode="&#xe063;" horiz-adv-x="325" 
d="M231 743v-780q0 -28 -27 -28h-83q-28 0 -28 28v780q0 28 28 28h83q27 0 27 -28z" />
    <glyph glyph-name="brokenbar.cap" unicode="&#xe064;" horiz-adv-x="325" 
d="M231 743v-280q0 -28 -27 -28h-83q-28 0 -28 28v280q0 28 28 28h83q27 0 27 -28zM231 243v-280q0 -28 -27 -28h-83q-28 0 -28 28v280q0 28 28 28h83q27 0 27 -28z" />
    <glyph glyph-name="arrowleft.cap" unicode="&#xe065;" horiz-adv-x="669" 
d="M417 570l-151 -153l313 4q28 0 28 -25v-87q0 -25 -28 -25l-313 4l151 -153q8 -8 5 -18t-15 -10h-117q-17 0 -31 14l-198 214q-8 10 -8 17q0 10 8 18l198 214q14 14 31 14h117q12 0 15 -10t-5 -18z" />
    <glyph glyph-name="arrowup.cap" unicode="&#xe066;" horiz-adv-x="669" 
d="M553 280l-153 152l4 -314q0 -28 -24 -28h-87q-25 0 -25 28l4 314l-153 -152q-8 -8 -18 -5t-10 15v118q0 18 13 31l214 197q9 8 18 8q8 0 18 -8l214 -197q13 -13 13 -31v-118q0 -12 -10 -15t-18 5z" />
    <glyph glyph-name="arrowright.cap" unicode="&#xe067;" horiz-adv-x="669" 
d="M403 417l-151 153q-8 8 -5 18t15 10h117q18 0 32 -14l197 -214q8 -10 8 -18q0 -9 -8 -17l-197 -214q-12 -14 -32 -14h-117q-12 0 -15 10t5 18l151 153l-313 -4q-28 0 -28 25v87q0 25 28 25z" />
    <glyph glyph-name="arrowdown.cap" unicode="&#xe068;" horiz-adv-x="669" 
d="M119 425l153 -152l-4 314q0 28 25 28h87q24 0 24 -28l-4 -314l153 152q7 8 17.5 4.5t10.5 -15.5v-117q0 -18 -13 -31l-214 -197q-8 -8 -18 -8q-9 0 -18 8l-214 197q-13 13 -13 31v117q0 12 10 15.5t18 -4.5z" />
    </font>
</defs>
</svg>
